0
SECTION
2
HEADER
9
$INSUNITS
70
4
9
$INSBASE
10
0.0
20
0.0
30
0.0
9
$EXTMIN
10
0
20
0
9
$EXTMAX
10
173.83684841368063
20
139.0699629572217
0
ENDSEC
0
SECTION
2
TABLES
0
TABLE
2
LTYPE
70
1
0
LTYPE
2
CONTINUOUS
70
64
3
Solid line
72
65
73
0
40
0.0
0
ENDTAB
0
TABLE
2
LAYER
70
1
0
LAYER
2
Layer1
70
64
62
7
6
CONTINUOUS
0
ENDTAB
0
TABLE
2
STYLE
70
0
0
ENDTAB
0
TABLE
2
VIEW
70
0
0
ENDTAB
0
ENDSEC
0
SECTION
2
BLOCKS
0
ENDSEC
0
SECTION
2
ENTITIES
0
POLYLINE
5
661
8
Layer1
66
1
10
0.0
20
0.0
30
0.0
70
1
0
VERTEX
5
662
8
Layer1
10
0.0000
20
0.0000
30
0.0
0
VERTEX
5
663
8
Layer1
10
173.8368
20
0.0000
30
0.0
0
VERTEX
5
664
8
Layer1
10
173.8368
20
139.0700
30
0.0
0
VERTEX
5
665
8
Layer1
10
0.0000
20
139.0700
30
0.0
0
VERTEX
5
666
8
Layer1
10
0.0000
20
0.0000
30
0.0
0
SEQEND
5
667
8
Layer1
0
POLYLINE
5
668
8
Layer1
66
1
10
0.0
20
0.0
30
0.0
70
1
0
VERTEX
5
669
8
Layer1
10
57.1250
20
91.1830
30
0.0
0
VERTEX
5
66a
8
Layer1
10
43.1250
20
91.1830
30
0.0
0
VERTEX
5
66b
8
Layer1
10
43.1250
20
77.1830
30
0.0
0
VERTEX
5
66c
8
Layer1
10
57.1250
20
77.1830
30
0.0
0
VERTEX
5
66d
8
Layer1
10
57.1250
20
91.1830
30
0.0
0
SEQEND
5
66e
8
Layer1
0
POLYLINE
5
66f
8
Layer1
66
1
10
0.0
20
0.0
30
0.0
70
1
0
VERTEX
5
670
8
Layer1
10
76.1750
20
91.1830
30
0.0
0
VERTEX
5
671
8
Layer1
10
62.1750
20
91.1830
30
0.0
0
VERTEX
5
672
8
Layer1
10
62.1750
20
77.1830
30
0.0
0
VERTEX
5
673
8
Layer1
10
76.1750
20
77.1830
30
0.0
0
VERTEX
5
674
8
Layer1
10
76.1750
20
91.1830
30
0.0
0
SEQEND
5
675
8
Layer1
0
POLYLINE
5
676
8
Layer1
66
1
10
0.0
20
0.0
30
0.0
70
1
0
VERTEX
5
677
8
Layer1
10
57.1250
20
72.1330
30
0.0
0
VERTEX
5
678
8
Layer1
10
43.1250
20
72.1330
30
0.0
0
VERTEX
5
679
8
Layer1
10
43.1250
20
58.1330
30
0.0
0
VERTEX
5
67a
8
Layer1
10
57.1250
20
58.1330
30
0.0
0
VERTEX
5
67b
8
Layer1
10
57.1250
20
72.1330
30
0.0
0
SEQEND
5
67c
8
Layer1
0
POLYLINE
5
67d
8
Layer1
66
1
10
0.0
20
0.0
30
0.0
70
1
0
VERTEX
5
67e
8
Layer1
10
76.1750
20
72.1330
30
0.0
0
VERTEX
5
67f
8
Layer1
10
62.1750
20
72.1330
30
0.0
0
VERTEX
5
680
8
Layer1
10
62.1750
20
58.1330
30
0.0
0
VERTEX
5
681
8
Layer1
10
76.1750
20
58.1330
30
0.0
0
VERTEX
5
682
8
Layer1
10
76.1750
20
72.1330
30
0.0
0
SEQEND
5
683
8
Layer1
0
POLYLINE
5
684
8
Layer1
66
1
10
0.0
20
0.0
30
0.0
70
1
0
VERTEX
5
685
8
Layer1
10
57.1250
20
53.0820
30
0.0
0
VERTEX
5
686
8
Layer1
10
43.1250
20
53.0820
30
0.0
0
VERTEX
5
687
8
Layer1
10
43.1250
20
39.0820
30
0.0
0
VERTEX
5
688
8
Layer1
10
57.1250
20
39.0820
30
0.0
0
VERTEX
5
689
8
Layer1
10
57.1250
20
53.0820
30
0.0
0
SEQEND
5
68a
8
Layer1
0
POLYLINE
5
68b
8
Layer1
66
1
10
0.0
20
0.0
30
0.0
70
1
0
VERTEX
5
68c
8
Layer1
10
76.1750
20
53.0820
30
0.0
0
VERTEX
5
68d
8
Layer1
10
62.1750
20
53.0820
30
0.0
0
VERTEX
5
68e
8
Layer1
10
62.1750
20
39.0820
30
0.0
0
VERTEX
5
68f
8
Layer1
10
76.1750
20
39.0820
30
0.0
0
VERTEX
5
690
8
Layer1
10
76.1750
20
53.0820
30
0.0
0
SEQEND
5
691
8
Layer1
0
POLYLINE
5
692
8
Layer1
66
1
10
0.0
20
0.0
30
0.0
70
1
0
VERTEX
5
693
8
Layer1
10
99.9880
20
38.7950
30
0.0
0
VERTEX
5
694
8
Layer1
10
85.9880
20
38.7950
30
0.0
0
VERTEX
5
695
8
Layer1
10
85.9880
20
24.7950
30
0.0
0
VERTEX
5
696
8
Layer1
10
99.9880
20
24.7950
30
0.0
0
VERTEX
5
697
8
Layer1
10
99.9880
20
38.7950
30
0.0
0
SEQEND
5
698
8
Layer1
0
POLYLINE
5
699
8
Layer1
66
1
10
0.0
20
0.0
30
0.0
70
1
0
VERTEX
5
69a
8
Layer1
10
102.5701
20
101.6343
30
0.0
0
VERTEX
5
69b
8
Layer1
10
88.6899
20
103.4617
30
0.0
0
VERTEX
5
69c
8
Layer1
10
86.8625
20
89.5815
30
0.0
0
VERTEX
5
69d
8
Layer1
10
100.7427
20
87.7541
30
0.0
0
VERTEX
5
69e
8
Layer1
10
102.5701
20
101.6343
30
0.0
0
SEQEND
5
69f
8
Layer1
0
POLYLINE
5
6a0
8
Layer1
66
1
10
0.0
20
0.0
30
0.0
70
1
0
VERTEX
5
6a1
8
Layer1
10
100.0836
20
82.7473
30
0.0
0
VERTEX
5
6a2
8
Layer1
10
86.2033
20
84.5747
30
0.0
0
VERTEX
5
6a3
8
Layer1
10
84.3760
20
70.6944
30
0.0
0
VERTEX
5
6a4
8
Layer1
10
98.2562
20
68.8671
30
0.0
0
VERTEX
5
6a5
8
Layer1
10
100.0836
20
82.7473
30
0.0
0
SEQEND
5
6a6
8
Layer1
0
POLYLINE
5
6a7
8
Layer1
66
1
10
0.0
20
0.0
30
0.0
70
1
0
VERTEX
5
6a8
8
Layer1
10
97.5970
20
63.8603
30
0.0
0
VERTEX
5
6a9
8
Layer1
10
83.7168
20
65.6876
30
0.0
0
VERTEX
5
6aa
8
Layer1
10
81.8895
20
51.8074
30
0.0
0
VERTEX
5
6ab
8
Layer1
10
95.7697
20
49.9800
30
0.0
0
VERTEX
5
6ac
8
Layer1
10
97.5970
20
63.8603
30
0.0
0
SEQEND
5
6ad
8
Layer1
0
POLYLINE
5
6ae
8
Layer1
66
1
10
0.0
20
0.0
30
0.0
70
1
0
VERTEX
5
6af
8
Layer1
10
126.8423
20
35.5957
30
0.0
0
VERTEX
5
6b0
8
Layer1
10
113.0550
20
38.0268
30
0.0
0
VERTEX
5
6b1
8
Layer1
10
110.6239
20
24.2395
30
0.0
0
VERTEX
5
6b2
8
Layer1
10
124.4113
20
21.8084
30
0.0
0
VERTEX
5
6b3
8
Layer1
10
126.8423
20
35.5957
30
0.0
0
SEQEND
5
6b4
8
Layer1
0
POLYLINE
5
6b5
8
Layer1
66
1
10
0.0
20
0.0
30
0.0
70
1
0
VERTEX
5
6b6
8
Layer1
10
127.0898
20
101.8310
30
0.0
0
VERTEX
5
6b7
8
Layer1
10
113.4216
20
104.8612
30
0.0
0
VERTEX
5
6b8
8
Layer1
10
110.3917
20
91.1940
30
0.0
0
VERTEX
5
6b9
8
Layer1
10
124.0598
20
88.1639
30
0.0
0
VERTEX
5
6ba
8
Layer1
10
127.0898
20
101.8310
30
0.0
0
SEQEND
5
6bb
8
Layer1
0
POLYLINE
5
6bc
8
Layer1
66
1
10
0.0
20
0.0
30
0.0
70
1
0
VERTEX
5
6bd
8
Layer1
10
122.9668
20
83.2336
30
0.0
0
VERTEX
5
6be
8
Layer1
10
109.2987
20
86.2637
30
0.0
0
VERTEX
5
6bf
8
Layer1
10
106.2685
20
72.5956
30
0.0
0
VERTEX
5
6c0
8
Layer1
10
119.9367
20
69.5654
30
0.0
0
VERTEX
5
6c1
8
Layer1
10
122.9668
20
83.2336
30
0.0
0
SEQEND
5
6c2
8
Layer1
0
POLYLINE
5
6c3
8
Layer1
66
1
10
0.0
20
0.0
30
0.0
70
1
0
VERTEX
5
6c4
8
Layer1
10
118.8436
20
64.6351
30
0.0
0
VERTEX
5
6c5
8
Layer1
10
105.1755
20
67.6653
30
0.0
0
VERTEX
5
6c6
8
Layer1
10
102.1453
20
53.9971
30
0.0
0
VERTEX
5
6c7
8
Layer1
10
115.8135
20
50.9670
30
0.0
0
VERTEX
5
6c8
8
Layer1
10
118.8436
20
64.6351
30
0.0
0
SEQEND
5
6c9
8
Layer1
0
POLYLINE
5
6ca
8
Layer1
66
1
10
0.0
20
0.0
30
0.0
70
1
0
VERTEX
5
6cb
8
Layer1
10
146.8610
20
90.5451
30
0.0
0
VERTEX
5
6cc
8
Layer1
10
133.3380
20
94.1685
30
0.0
0
VERTEX
5
6cd
8
Layer1
10
129.7148
20
80.6465
30
0.0
0
VERTEX
5
6ce
8
Layer1
10
143.2378
20
77.0231
30
0.0
0
VERTEX
5
6cf
8
Layer1
10
146.8610
20
90.5451
30
0.0
0
SEQEND
5
6d0
8
Layer1
0
POLYLINE
5
6d1
8
Layer1
66
1
10
0.0
20
0.0
30
0.0
70
1
0
VERTEX
5
6d2
8
Layer1
10
165.2619
20
85.6146
30
0.0
0
VERTEX
5
6d3
8
Layer1
10
151.7389
20
89.2380
30
0.0
0
VERTEX
5
6d4
8
Layer1
10
148.1157
20
75.7160
30
0.0
0
VERTEX
5
6d5
8
Layer1
10
161.6387
20
72.0926
30
0.0
0
VERTEX
5
6d6
8
Layer1
10
165.2619
20
85.6146
30
0.0
0
SEQEND
5
6d7
8
Layer1
0
POLYLINE
5
6d8
8
Layer1
66
1
10
0.0
20
0.0
30
0.0
70
1
0
VERTEX
5
6d9
8
Layer1
10
141.9308
20
72.1451
30
0.0
0
VERTEX
5
6da
8
Layer1
10
128.4078
20
75.7686
30
0.0
0
VERTEX
5
6db
8
Layer1
10
124.7843
20
62.2456
30
0.0
0
VERTEX
5
6dc
8
Layer1
10
138.3073
20
58.6222
30
0.0
0
VERTEX
5
6dd
8
Layer1
10
141.9308
20
72.1451
30
0.0
0
SEQEND
5
6de
8
Layer1
0
POLYLINE
5
6df
8
Layer1
66
1
10
0.0
20
0.0
30
0.0
70
1
0
VERTEX
5
6e0
8
Layer1
10
160.3317
20
67.2146
30
0.0
0
VERTEX
5
6e1
8
Layer1
10
146.8087
20
70.8381
30
0.0
0
VERTEX
5
6e2
8
Layer1
10
143.1852
20
57.3151
30
0.0
0
VERTEX
5
6e3
8
Layer1
10
156.7082
20
53.6917
30
0.0
0
VERTEX
5
6e4
8
Layer1
10
160.3317
20
67.2146
30
0.0
0
SEQEND
5
6e5
8
Layer1
0
POLYLINE
5
6e6
8
Layer1
66
1
10
0.0
20
0.0
30
0.0
70
1
0
VERTEX
5
6e7
8
Layer1
10
137.0003
20
53.7442
30
0.0
0
VERTEX
5
6e8
8
Layer1
10
123.4773
20
57.3677
30
0.0
0
VERTEX
5
6e9
8
Layer1
10
119.8538
20
43.8448
30
0.0
0
VERTEX
5
6ea
8
Layer1
10
133.3768
20
40.2213
30
0.0
0
VERTEX
5
6eb
8
Layer1
10
137.0003
20
53.7442
30
0.0
0
SEQEND
5
6ec
8
Layer1
0
POLYLINE
5
6ed
8
Layer1
66
1
10
0.0
20
0.0
30
0.0
70
1
0
VERTEX
5
6ee
8
Layer1
10
155.4012
20
48.8137
30
0.0
0
VERTEX
5
6ef
8
Layer1
10
141.8782
20
52.4372
30
0.0
0
VERTEX
5
6f0
8
Layer1
10
138.2547
20
38.9143
30
0.0
0
VERTEX
5
6f1
8
Layer1
10
151.7777
20
35.2908
30
0.0
0
VERTEX
5
6f2
8
Layer1
10
155.4012
20
48.8137
30
0.0
0
SEQEND
5
6f3
8
Layer1
0
POLYLINE
5
6f4
8
Layer1
66
1
10
0.0
20
0.0
30
0.0
70
1
0
VERTEX
5
6f5
8
Layer1
10
148.2290
20
28.5887
30
0.0
0
VERTEX
5
6f6
8
Layer1
10
135.0733
20
33.3770
30
0.0
0
VERTEX
5
6f7
8
Layer1
10
130.2850
20
20.2213
30
0.0
0
VERTEX
5
6f8
8
Layer1
10
143.4407
20
15.4330
30
0.0
0
VERTEX
5
6f9
8
Layer1
10
148.2290
20
28.5887
30
0.0
0
SEQEND
5
6fa
8
Layer1
0
POLYLINE
5
6fb
8
Layer1
66
1
10
0.0
20
0.0
30
0.0
70
1
0
VERTEX
5
6fc
8
Layer1
10
167.9223
20
18.0397
30
0.0
0
VERTEX
5
6fd
8
Layer1
10
155.7979
20
25.0397
30
0.0
0
VERTEX
5
6fe
8
Layer1
10
148.7979
20
12.9154
30
0.0
0
VERTEX
5
6ff
8
Layer1
10
160.9223
20
5.9154
30
0.0
0
VERTEX
5
700
8
Layer1
10
167.9223
20
18.0397
30
0.0
0
SEQEND
5
701
8
Layer1
0
ENDSEC
0
EOF
