M48
; DRILL file {KiCad (5.1.2)-1} date 2019/05/17 22:53:37
; FORMAT={-:-/ absolute / inch / decimal}
; #@! TF.CreationDate,2019-05-17T22:53:37+09:00
; #@! TF.GenerationSoftware,Kicad,Pcbnew,(5.1.2)-1
; #@! TF.FileFunction,Plated,1,2,PTH
FMAT,2
INCH
T1C0.0157
T2C0.0320
T3C0.0394
T4C0.0512
T5C0.0866
%
G90
G05
T1
X3.4698Y-3.0628
X3.4698Y-3.8126
X3.4698Y-4.5621
X3.7723Y-3.4295
X3.8279Y-3.3134
X3.8517Y-3.1089
X3.8517Y-3.871
X3.8517Y-4.6195
X3.8517Y-4.7879
X3.9676Y-3.4688
X3.9877Y-3.3138
X4.0798Y-4.395
X4.0859Y-2.8951
X4.118Y-4.8435
X4.2198Y-3.0619
X4.2198Y-3.8128
X4.2198Y-4.5619
X4.5242Y-3.3619
X4.5242Y-3.4288
X4.6017Y-3.121
X4.6017Y-3.871
X4.6017Y-4.6254
X4.6017Y-4.7872
X4.7877Y-3.0689
X4.7878Y-3.3309
X4.7893Y-3.3832
X4.8358Y-4.3951
X4.8362Y-2.895
X4.8659Y-4.7833
X5.0181Y-4.0652
X5.1168Y-3.3165
X5.1576Y-5.1241
X5.2031Y-2.5753
X5.2419Y-4.5347
X5.2711Y-4.7227
X5.3804Y-4.1937
X5.4379Y-4.605
X5.4379Y-4.665
X5.4683Y-2.9893
X5.478Y-2.9148
X5.4784Y-3.4498
X5.5395Y-5.184
X5.5763Y-2.7065
X5.6553Y-3.9378
X5.7238Y-3.0076
X5.731Y-2.8942
X5.7643Y-2.8041
X5.7676Y-4.958
X5.8304Y-3.9906
X5.8526Y-2.4399
X5.9524Y-3.0406
X5.9883Y-3.2648
X6.136Y-2.5262
X6.1515Y-5.156
X6.176Y-4.1554
X6.3381Y-3.4238
X6.3515Y-4.7348
X6.3583Y-4.6485
X6.3614Y-2.9548
X6.3769Y-2.8811
X6.4132Y-4.0116
X6.5004Y-2.6918
X6.5108Y-5.3036
X6.5385Y-4.3929
X6.6056Y-4.7592
X6.6064Y-3.0313
X6.6111Y-4.7195
X6.6479Y-3.0129
X6.6726Y-3.8635
X6.7298Y-3.6693
X6.7374Y-2.5482
X6.7898Y-5.1126
X6.8714Y-4.5785
X6.9226Y-2.9418
X6.9601Y-5.318
X7.0646Y-3.8553
X7.0979Y-4.9399
X7.1138Y-4.8615
X7.1184Y-3.3818
X7.1381Y-3.3053
X7.1933Y-4.3454
X7.2587Y-3.0949
X7.2693Y-4.5738
X7.3022Y-5.5307
X7.344Y-5.022
X7.3559Y-3.4631
X7.3651Y-4.9439
X7.3854Y-3.2876
X7.4519Y-3.8611
X7.5021Y-5.0439
X7.5264Y-5.4252
X7.5517Y-2.8336
X7.582Y-4.9179
X7.5946Y-4.774
X7.6308Y-3.1516
X7.6576Y-3.4522
X7.6932Y-3.4888
X7.7005Y-5.6204
X7.757Y-4.9644
X7.7639Y-5.044
X7.7836Y-4.881
X7.7887Y-4.0494
X7.8374Y-3.574
X7.8562Y-3.4982
X7.8974Y-4.2028
X7.9101Y-4.54
X7.9827Y-3.3251
X7.9875Y-4.1542
X7.9974Y-4.195
X8.0137Y-5.9054
X8.0224Y-4.0015
X8.0931Y-4.5158
X8.0949Y-3.6103
X8.1146Y-3.5343
X8.1287Y-3.5771
X8.1408Y-4.3271
X8.1573Y-3.4958
X8.1632Y-4.2361
X8.242Y-3.8594
X8.2608Y-5.8126
X8.2727Y-4.3372
X8.2734Y-3.0253
X8.302Y-3.0743
X8.3263Y-4.3278
X8.3275Y-4.5107
X8.3305Y-2.9921
X8.395Y-4.3531
X8.4844Y-4.3772
X8.5582Y-4.3973
X8.5685Y-4.2612
X8.6067Y-4.158
X8.6277Y-4.4154
X8.6294Y-4.071
X8.6552Y-3.9745
X8.6813Y-3.8778
X8.7072Y-3.7813
X8.7073Y-4.158
X8.7331Y-3.6847
X8.744Y-4.0709
X8.759Y-3.5881
X8.7702Y-3.9744
X8.785Y-3.4914
X8.7958Y-3.8778
X8.8071Y-3.39
X8.8216Y-3.7812
X8.8329Y-3.2932
X8.8478Y-3.6847
X8.8628Y-3.2019
X8.8738Y-3.5881
X8.8892Y-3.1048
X8.8996Y-3.4914
X8.9215Y-3.39
X8.9474Y-3.2932
X8.9773Y-3.2019
X9.0036Y-3.1048
T2
X8.0421Y-4.6109
X8.2352Y-4.6626
X8.0193Y-4.6959
X8.2124Y-4.7476
X8.222Y-4.1486
X8.2479Y-4.052
X8.2737Y-3.9555
X8.2854Y-4.1139
X8.2996Y-3.8589
X8.3112Y-4.0173
X8.3255Y-3.7623
X8.3371Y-3.9207
X8.3514Y-3.6657
X8.363Y-3.8241
X8.3773Y-3.5691
X8.3889Y-3.7275
X8.4031Y-3.4725
X8.4148Y-3.6309
X8.429Y-3.3759
X8.4406Y-3.5343
X8.4549Y-3.2793
X8.4665Y-3.4377
X8.4808Y-3.1827
X8.4924Y-3.3411
X8.5067Y-3.0861
X8.5183Y-3.2445
X8.5442Y-3.1479
X8.5701Y-3.0513
X8.8015Y-4.3039
X8.8274Y-4.2073
X8.8533Y-4.1107
X8.8641Y-4.2689
X8.8792Y-4.0142
X8.89Y-4.1724
X8.9051Y-3.9176
X8.9159Y-4.0758
X8.9309Y-3.821
X8.9418Y-3.9792
X8.9568Y-3.7244
X8.9677Y-3.8826
X8.9827Y-3.6278
X8.9936Y-3.786
X9.0086Y-3.5312
X9.0194Y-3.6894
X9.0345Y-3.4346
X9.0453Y-3.5928
X9.0603Y-3.338
X9.0712Y-3.4962
X9.0862Y-3.2414
X9.0971Y-3.3996
X9.123Y-3.303
X9.1488Y-3.2064
X8.3379Y-4.4406
X8.4345Y-4.4665
X8.5311Y-4.4924
X8.6277Y-4.5183
T4
X8.3995Y-5.0613
X8.6466Y-5.1275
T5
X8.5277Y-5.3838
X7.9737Y-5.0652
T3
G00X8.3081Y-4.8223
M15
G01X8.2891Y-4.8172
M16
G05
G00X8.3331Y-4.7291
M15
G01X8.3141Y-4.724
M16
G05
G00X8.3474Y-4.9041
M15
G01X8.3283Y-4.8991
M16
G05
G00X8.408Y-4.6779
M15
G01X8.389Y-4.6728
M16
G05
G00X8.4995Y-4.9449
M15
G01X8.4805Y-4.9398
M16
G05
G00X8.5601Y-4.7186
M15
G01X8.5411Y-4.7135
M16
G05
G00X8.6136Y-4.9755
M15
G01X8.5945Y-4.9704
M16
G05
G00X8.6742Y-4.7492
M15
G01X8.6552Y-4.7441
M16
G05
T0
M30
