M48
; DRILL file {KiCad (5.1.2)-1} date 2019/05/17 22:53:37
; FORMAT={-:-/ absolute / inch / decimal}
; #@! TF.CreationDate,2019-05-17T22:53:37+09:00
; #@! TF.GenerationSoftware,Kicad,Pcbnew,(5.1.2)-1
; #@! TF.FileFunction,NonPlated,1,2,NPTH
FMAT,2
INCH
T1C0.0472
T2C0.0669
T3C0.0748
T4C0.1181
T5C0.1575
T6C0.1890
%
G90
G05
T1
X8.4277Y-4.8401
X8.4455Y-4.7735
X8.6939Y-4.9114
X8.7117Y-4.8449
T2
X5.9234Y-3.9303
X6.3139Y-4.0169
X5.2011Y-3.2627
X5.5977Y-3.3149
X7.7431Y-3.0819
X8.1295Y-3.1855
X5.299Y-2.5194
X5.6956Y-2.5716
X4.2914Y-4.4951
X4.6914Y-4.4951
X5.2292Y-5.0581
X5.6292Y-5.0581
X7.0191Y-2.8879
X7.4055Y-2.9915
X6.631Y-4.3362
X7.0174Y-4.4398
X7.8296Y-5.6005
X8.176Y-5.8005
X3.5414Y-3.7451
X3.9414Y-3.7451
X3.5414Y-4.4951
X3.9414Y-4.4951
X4.2914Y-2.9951
X4.6914Y-2.9951
X6.0855Y-3.1987
X6.476Y-3.2853
X7.355Y-4.5308
X7.7414Y-4.6343
X7.0629Y-5.2806
X7.4388Y-5.4174
X6.2478Y-2.4667
X6.6383Y-2.5533
X7.5491Y-3.8062
X7.9355Y-3.9097
X4.2914Y-3.7451
X4.6914Y-3.7451
X6.825Y-3.6121
X7.2114Y-3.7157
X3.5414Y-2.9951
X3.9414Y-2.9951
X5.1031Y-4.0066
X5.4997Y-4.0588
X6.2457Y-5.0973
X6.6396Y-5.1667
T3
X5.9073Y-3.9267
X6.3301Y-4.0204
X5.1847Y-3.2606
X5.6141Y-3.3171
X7.7272Y-3.0776
X8.1455Y-3.1897
X5.2826Y-2.5173
X5.712Y-2.5738
X4.2749Y-4.4951
X4.708Y-4.4951
X5.2127Y-5.0581
X5.6458Y-5.0581
X7.0032Y-2.8836
X7.4215Y-2.9957
X6.6151Y-4.3319
X7.0334Y-4.444
X7.8153Y-5.5922
X8.1903Y-5.8087
X3.5249Y-3.7451
X3.958Y-3.7451
X3.5249Y-4.4951
X3.958Y-4.4951
X4.2749Y-2.9951
X4.708Y-2.9951
X6.0694Y-3.1951
X6.4922Y-3.2888
X7.3391Y-4.5265
X7.7574Y-4.6386
X7.0474Y-5.2749
X7.4543Y-5.423
X6.2317Y-2.4631
X6.6545Y-2.5568
X7.5332Y-3.8019
X7.9515Y-3.914
X4.2749Y-3.7451
X4.708Y-3.7451
X6.8091Y-3.6078
X7.2274Y-3.7199
X3.5249Y-2.9951
X3.958Y-2.9951
X5.0867Y-4.0045
X5.5161Y-4.061
X6.2294Y-5.0944
X6.6559Y-5.1696
T4
X5.1852Y-3.4076
X5.2637Y-3.1701
X5.3264Y-3.0775
X5.3691Y-3.5191
X5.5246Y-3.1036
X5.5612Y-3.2093
X5.5756Y-3.459
X7.7085Y-3.2234
X7.8173Y-2.9983
X7.8762Y-3.3581
X7.8915Y-2.9146
X8.0847Y-2.9664
X8.0888Y-3.3253
X8.1071Y-3.0759
X5.2831Y-2.6643
X5.3616Y-2.4268
X5.4243Y-2.3342
X5.467Y-2.7758
X5.6225Y-2.3603
X5.6591Y-2.466
X5.6735Y-2.7157
X4.2946Y-4.6408
X4.3414Y-4.3951
X4.3914Y-4.2951
X4.4914Y-4.7274
X4.5914Y-4.2951
X4.6414Y-4.3951
X4.6883Y-4.6408
X5.2324Y-5.2037
X5.2792Y-4.9581
X5.3292Y-4.8581
X5.4292Y-5.2904
X5.5292Y-4.8581
X5.5792Y-4.9581
X5.6261Y-5.2037
X6.9845Y-3.0294
X7.0933Y-2.8043
X7.1522Y-3.1641
X7.1675Y-2.7206
X7.3607Y-2.7724
X7.3648Y-3.1313
X7.3831Y-2.8819
X6.5964Y-4.4777
X6.7052Y-4.2526
X6.7641Y-4.6124
X6.7794Y-4.1689
X6.9726Y-4.2207
X6.9767Y-4.5796
X6.995Y-4.3302
X7.7595Y-5.7282
X7.8866Y-5.9016
X7.9229Y-5.5389
X8.0162Y-5.4773
X8.1004Y-5.9251
X8.1827Y-5.6889
X8.1894Y-5.5773
X3.5446Y-3.8908
X3.5914Y-3.6451
X3.6414Y-3.5451
X3.7414Y-3.9774
X3.8414Y-3.5451
X3.8914Y-3.6451
X3.9383Y-3.8908
X3.5446Y-4.6408
X3.5914Y-4.3951
X3.6414Y-4.2951
X3.7414Y-4.7274
X3.8414Y-4.2951
X3.8914Y-4.3951
X3.9383Y-4.6408
X4.2946Y-3.1408
X4.3414Y-2.8951
X4.3914Y-2.7951
X4.4914Y-3.2274
X4.5914Y-2.7951
X4.6414Y-2.8951
X4.6883Y-3.1408
X6.0571Y-3.3416
X6.156Y-3.1119
X6.2264Y-3.0251
X6.2305Y-3.4687
X6.4217Y-3.0684
X6.4414Y-3.4268
X6.4489Y-3.1768
X7.3204Y-4.6723
X7.4292Y-4.4472
X7.4881Y-4.807
X7.5034Y-4.3635
X7.6966Y-4.4153
X7.7007Y-4.7742
X7.719Y-4.5248
X7.0161Y-5.4185
X7.1441Y-5.2037
X7.1714Y-5.5672
X7.2253Y-5.1268
X7.386Y-5.5532
X7.4132Y-5.1952
X7.426Y-5.3063
X6.2194Y-2.6096
X6.3183Y-2.3799
X6.3887Y-2.2931
X6.3928Y-2.7367
X6.584Y-2.3364
X6.6037Y-2.6948
X6.6112Y-2.4448
X7.5145Y-3.9477
X7.6233Y-3.7226
X7.6822Y-4.0824
X7.6975Y-3.6389
X7.8907Y-3.6907
X7.8948Y-4.0496
X7.9131Y-3.8002
X4.2946Y-3.8908
X4.3414Y-3.6451
X4.3914Y-3.5451
X4.4914Y-3.9774
X4.5914Y-3.5451
X4.6414Y-3.6451
X4.6883Y-3.8908
X6.7904Y-3.7536
X6.8992Y-3.5285
X6.9581Y-3.8883
X6.9734Y-3.4448
X7.1666Y-3.4966
X7.1707Y-3.8555
X7.189Y-3.6061
X3.5446Y-3.1408
X3.5914Y-2.8951
X3.6414Y-2.7951
X3.7414Y-3.2274
X3.8414Y-2.7951
X3.8914Y-2.8951
X3.9383Y-3.1408
X5.0872Y-4.1515
X5.1657Y-3.914
X5.2284Y-3.8214
X5.2711Y-4.263
X5.4266Y-3.8475
X5.4632Y-3.9532
X5.4776Y-4.2029
X6.2235Y-5.2413
X6.3123Y-5.0075
X6.3789Y-4.9177
X6.4023Y-5.3607
X6.5758Y-4.9524
X6.6077Y-5.0595
X6.6112Y-5.3096
X5.895Y-4.0732
X5.9939Y-3.8435
X6.0643Y-3.7567
X6.0684Y-4.2003
X6.2596Y-3.8
X6.2793Y-4.1584
X6.2868Y-3.9084
T5
X5.3994Y-3.2888
X7.9363Y-3.1337
X5.4973Y-2.5455
X4.4914Y-4.4951
X5.4292Y-5.0581
X7.2123Y-2.9397
X6.8242Y-4.388
X8.0028Y-5.7005
X3.7414Y-3.7451
X3.7414Y-4.4951
X4.4914Y-2.9951
X6.2808Y-3.242
X7.5482Y-4.5826
X7.2509Y-5.349
X6.4431Y-2.51
X7.7423Y-3.858
X4.4914Y-3.7451
X7.0182Y-3.6639
X3.7414Y-2.9951
X5.3014Y-4.0327
X6.4426Y-5.132
X6.1187Y-3.9736
T6
X5.9048Y-2.885
X7.4769Y-3.3988
X4.1159Y-4.1198
X5.9629Y-4.8098
X7.7489Y-5.2678
X4.1159Y-3.3698
T0
M30
