M48
; DRILL file {KiCad (5.1.2)-1} date 2019/06/14 17:52:19
; FORMAT={-:-/ absolute / inch / decimal}
; #@! TF.CreationDate,2019-06-14T17:52:19+09:00
; #@! TF.GenerationSoftware,Kicad,Pcbnew,(5.1.2)-1
; #@! TF.FileFunction,NonPlated,1,2,NPTH
FMAT,2
INCH
T1C0.0472
T2C0.0748
T3C0.1181
T4C0.1614
T5C0.1890
%
G90
G05
T1
X8.3755Y-4.7549
X8.3934Y-4.6884
X8.6417Y-4.8262
X8.6596Y-4.7597
T2
X6.631Y-4.3362
X7.0174Y-4.4398
X5.2292Y-5.0581
X5.6292Y-5.0581
X5.9234Y-3.9303
X6.3139Y-4.0169
X7.7431Y-3.0819
X8.1295Y-3.1855
X3.5414Y-4.4951
X3.9414Y-4.4951
X7.0629Y-5.2806
X7.4388Y-5.4174
X4.2914Y-4.4951
X4.6914Y-4.4951
X6.2478Y-2.4667
X6.6383Y-2.5533
X5.2011Y-3.2627
X5.5977Y-3.3149
X3.5414Y-3.7451
X3.9414Y-3.7451
X6.825Y-3.6121
X7.2114Y-3.7157
X4.2914Y-2.9951
X4.6914Y-2.9951
X7.0191Y-2.8879
X7.4055Y-2.9915
X7.355Y-4.5308
X7.7414Y-4.6343
X7.5491Y-3.8062
X7.9355Y-3.9097
X6.0855Y-3.1987
X6.476Y-3.2853
X7.8299Y-5.5998
X8.1763Y-5.7998
X6.2457Y-5.0973
X6.6396Y-5.1667
X5.1031Y-4.0066
X5.4997Y-4.0588
X5.299Y-2.5194
X5.6956Y-2.5716
X3.5414Y-2.9951
X3.9414Y-2.9951
X4.2914Y-3.7451
X4.6914Y-3.7451
T3
X7.6233Y-3.7226
X7.6975Y-3.6389
X7.8907Y-3.6907
X7.9131Y-3.8002
X6.156Y-3.1119
X6.2264Y-3.0251
X6.4217Y-3.0684
X6.4489Y-3.1768
X7.8165Y-5.823
X7.8232Y-5.7114
X7.9897Y-5.923
X8.083Y-5.8614
X6.2775Y-5.2044
X6.3094Y-5.3116
X6.5064Y-5.3463
X6.573Y-5.2565
X5.1657Y-3.914
X5.2284Y-3.8214
X5.4266Y-3.8475
X5.4632Y-3.9532
X5.3616Y-2.4268
X5.4243Y-2.3342
X5.6225Y-2.3603
X5.6591Y-2.466
X3.5914Y-2.8951
X3.6414Y-2.7951
X3.8414Y-2.7951
X3.8914Y-2.8951
X4.3414Y-3.6451
X4.3914Y-3.5451
X4.5914Y-3.5451
X4.6414Y-3.6451
X6.7052Y-4.2526
X6.7794Y-4.1689
X6.9726Y-4.2207
X6.995Y-4.3302
X5.2792Y-5.1581
X5.3292Y-5.2581
X5.5292Y-5.2581
X5.5792Y-5.1581
X5.9939Y-3.8435
X6.0643Y-3.7567
X6.2596Y-3.8
X6.2868Y-3.9084
X7.8173Y-2.9983
X7.8915Y-2.9146
X8.0847Y-2.9664
X8.1071Y-3.0759
X3.5914Y-4.3951
X3.6414Y-4.2951
X3.8414Y-4.2951
X3.8914Y-4.3951
X7.0757Y-5.3916
X7.0885Y-5.5027
X7.2764Y-5.5711
X7.3576Y-5.4942
X4.3414Y-4.3951
X4.3914Y-4.2951
X4.5914Y-4.2951
X4.6414Y-4.3951
X6.3183Y-2.3799
X6.3887Y-2.2931
X6.584Y-2.3364
X6.6112Y-2.4448
X5.2637Y-3.1701
X5.3264Y-3.0775
X5.5246Y-3.1036
X5.5612Y-3.2093
X3.5914Y-3.6451
X3.6414Y-3.5451
X3.8414Y-3.5451
X3.8914Y-3.6451
X6.8992Y-3.5285
X6.9734Y-3.4448
X7.1666Y-3.4966
X7.189Y-3.6061
X4.3414Y-2.8951
X4.3914Y-2.7951
X4.5914Y-2.7951
X4.6414Y-2.8951
X7.0933Y-2.8043
X7.1675Y-2.7206
X7.3607Y-2.7724
X7.3831Y-2.8819
X7.4292Y-4.4472
X7.5034Y-4.3635
X7.6966Y-4.4153
X7.719Y-4.5248
T4
X5.3994Y-3.2888
X3.7414Y-3.7451
X7.0182Y-3.6639
X4.4914Y-2.9951
X7.2123Y-2.9397
X7.5482Y-4.5826
X7.7423Y-3.858
X6.2808Y-3.242
X8.0031Y-5.6998
X6.4426Y-5.132
X5.3014Y-4.0327
X5.4973Y-2.5455
X3.7414Y-2.9951
X4.4914Y-3.7451
X6.8242Y-4.388
X5.4292Y-5.0581
X6.1187Y-3.9736
X7.9363Y-3.1337
X3.7414Y-4.4951
X7.2509Y-5.349
X4.4914Y-4.4951
X6.4431Y-2.51
T5
X5.9048Y-2.885
X6.0544Y-4.7991
X7.4161Y-4.9703
X7.4769Y-3.3988
X4.1159Y-3.3698
X4.1159Y-4.1198
T0
M30
