G04 #@! TF.GenerationSoftware,KiCad,Pcbnew,(5.1.2)-1*
G04 #@! TF.CreationDate,2019-06-14T17:52:14+09:00*
G04 #@! TF.ProjectId,adelie,6164656c-6965-42e6-9b69-6361645f7063,rev?*
G04 #@! TF.SameCoordinates,Original*
G04 #@! TF.FileFunction,Legend,Top*
G04 #@! TF.FilePolarity,Positive*
%FSLAX46Y46*%
G04 Gerber Fmt 4.6, Leading zero omitted, Abs format (unit mm)*
G04 Created by KiCad (PCBNEW (5.1.2)-1) date 2019-06-14 17:52:14*
%MOMM*%
%LPD*%
G04 APERTURE LIST*
%ADD10C,0.200000*%
%ADD11C,0.400000*%
%ADD12C,0.500000*%
%ADD13C,1.000000*%
%ADD14C,0.150000*%
%ADD15C,3.500000*%
%ADD16C,3.000000*%
%ADD17C,0.800000*%
%ADD18C,0.300000*%
%ADD19C,0.125000*%
G04 APERTURE END LIST*
D10*
X131754040Y-112589397D02*
X131754040Y-111960825D01*
X131696897Y-111846540D01*
X131582611Y-111789397D01*
X131354040Y-111789397D01*
X131239754Y-111846540D01*
X131754040Y-112532254D02*
X131639754Y-112589397D01*
X131354040Y-112589397D01*
X131239754Y-112532254D01*
X131182611Y-112417968D01*
X131182611Y-112303682D01*
X131239754Y-112189397D01*
X131354040Y-112132254D01*
X131639754Y-112132254D01*
X131754040Y-112075111D01*
X132839754Y-112589397D02*
X132839754Y-111389397D01*
X132839754Y-112532254D02*
X132725468Y-112589397D01*
X132496897Y-112589397D01*
X132382611Y-112532254D01*
X132325468Y-112475111D01*
X132268325Y-112360825D01*
X132268325Y-112017968D01*
X132325468Y-111903682D01*
X132382611Y-111846540D01*
X132496897Y-111789397D01*
X132725468Y-111789397D01*
X132839754Y-111846540D01*
X133868325Y-112532254D02*
X133754040Y-112589397D01*
X133525468Y-112589397D01*
X133411182Y-112532254D01*
X133354040Y-112417968D01*
X133354040Y-111960825D01*
X133411182Y-111846540D01*
X133525468Y-111789397D01*
X133754040Y-111789397D01*
X133868325Y-111846540D01*
X133925468Y-111960825D01*
X133925468Y-112075111D01*
X133354040Y-112189397D01*
X134611182Y-112589397D02*
X134496897Y-112532254D01*
X134439754Y-112417968D01*
X134439754Y-111389397D01*
X135068325Y-112589397D02*
X135068325Y-111789397D01*
X135068325Y-111389397D02*
X135011182Y-111446540D01*
X135068325Y-111503682D01*
X135125468Y-111446540D01*
X135068325Y-111389397D01*
X135068325Y-111503682D01*
X136096897Y-112532254D02*
X135982611Y-112589397D01*
X135754040Y-112589397D01*
X135639754Y-112532254D01*
X135582611Y-112417968D01*
X135582611Y-111960825D01*
X135639754Y-111846540D01*
X135754040Y-111789397D01*
X135982611Y-111789397D01*
X136096897Y-111846540D01*
X136154040Y-111960825D01*
X136154040Y-112075111D01*
X135582611Y-112189397D01*
X137525468Y-112532254D02*
X137639754Y-112589397D01*
X137868325Y-112589397D01*
X137982611Y-112532254D01*
X138039754Y-112417968D01*
X138039754Y-112360825D01*
X137982611Y-112246540D01*
X137868325Y-112189397D01*
X137696897Y-112189397D01*
X137582611Y-112132254D01*
X137525468Y-112017968D01*
X137525468Y-111960825D01*
X137582611Y-111846540D01*
X137696897Y-111789397D01*
X137868325Y-111789397D01*
X137982611Y-111846540D01*
X138554040Y-111789397D02*
X138554040Y-112989397D01*
X138554040Y-111846540D02*
X138668325Y-111789397D01*
X138896897Y-111789397D01*
X139011182Y-111846540D01*
X139068325Y-111903682D01*
X139125468Y-112017968D01*
X139125468Y-112360825D01*
X139068325Y-112475111D01*
X139011182Y-112532254D01*
X138896897Y-112589397D01*
X138668325Y-112589397D01*
X138554040Y-112532254D01*
X139639754Y-112589397D02*
X139639754Y-111789397D01*
X139639754Y-112017968D02*
X139696897Y-111903682D01*
X139754040Y-111846540D01*
X139868325Y-111789397D01*
X139982611Y-111789397D01*
X140382611Y-112589397D02*
X140382611Y-111789397D01*
X140382611Y-111389397D02*
X140325468Y-111446540D01*
X140382611Y-111503682D01*
X140439754Y-111446540D01*
X140382611Y-111389397D01*
X140382611Y-111503682D01*
X140782611Y-111789397D02*
X141239754Y-111789397D01*
X140954040Y-111389397D02*
X140954040Y-112417968D01*
X141011182Y-112532254D01*
X141125468Y-112589397D01*
X141239754Y-112589397D01*
X142554040Y-112589397D02*
X142554040Y-111389397D01*
X142668325Y-112132254D02*
X143011182Y-112589397D01*
X143011182Y-111789397D02*
X142554040Y-112246540D01*
X143982611Y-112532254D02*
X143868325Y-112589397D01*
X143639754Y-112589397D01*
X143525468Y-112532254D01*
X143468325Y-112417968D01*
X143468325Y-111960825D01*
X143525468Y-111846540D01*
X143639754Y-111789397D01*
X143868325Y-111789397D01*
X143982611Y-111846540D01*
X144039754Y-111960825D01*
X144039754Y-112075111D01*
X143468325Y-112189397D01*
X144439754Y-111789397D02*
X144725468Y-112589397D01*
X145011182Y-111789397D02*
X144725468Y-112589397D01*
X144611182Y-112875111D01*
X144554040Y-112932254D01*
X144439754Y-112989397D01*
X145468325Y-112589397D02*
X145468325Y-111389397D01*
X145468325Y-111846540D02*
X145582611Y-111789397D01*
X145811182Y-111789397D01*
X145925468Y-111846540D01*
X145982611Y-111903682D01*
X146039754Y-112017968D01*
X146039754Y-112360825D01*
X145982611Y-112475111D01*
X145925468Y-112532254D01*
X145811182Y-112589397D01*
X145582611Y-112589397D01*
X145468325Y-112532254D01*
X146725468Y-112589397D02*
X146611182Y-112532254D01*
X146554040Y-112475111D01*
X146496897Y-112360825D01*
X146496897Y-112017968D01*
X146554040Y-111903682D01*
X146611182Y-111846540D01*
X146725468Y-111789397D01*
X146896897Y-111789397D01*
X147011182Y-111846540D01*
X147068325Y-111903682D01*
X147125468Y-112017968D01*
X147125468Y-112360825D01*
X147068325Y-112475111D01*
X147011182Y-112532254D01*
X146896897Y-112589397D01*
X146725468Y-112589397D01*
X148154040Y-112589397D02*
X148154040Y-111960825D01*
X148096897Y-111846540D01*
X147982611Y-111789397D01*
X147754040Y-111789397D01*
X147639754Y-111846540D01*
X148154040Y-112532254D02*
X148039754Y-112589397D01*
X147754040Y-112589397D01*
X147639754Y-112532254D01*
X147582611Y-112417968D01*
X147582611Y-112303682D01*
X147639754Y-112189397D01*
X147754040Y-112132254D01*
X148039754Y-112132254D01*
X148154040Y-112075111D01*
X148725468Y-112589397D02*
X148725468Y-111789397D01*
X148725468Y-112017968D02*
X148782611Y-111903682D01*
X148839754Y-111846540D01*
X148954040Y-111789397D01*
X149068325Y-111789397D01*
X149982611Y-112589397D02*
X149982611Y-111389397D01*
X149982611Y-112532254D02*
X149868325Y-112589397D01*
X149639754Y-112589397D01*
X149525468Y-112532254D01*
X149468325Y-112475111D01*
X149411182Y-112360825D01*
X149411182Y-112017968D01*
X149468325Y-111903682D01*
X149525468Y-111846540D01*
X149639754Y-111789397D01*
X149868325Y-111789397D01*
X149982611Y-111846540D01*
X151468325Y-111789397D02*
X151468325Y-112989397D01*
X151468325Y-111846540D02*
X151582611Y-111789397D01*
X151811182Y-111789397D01*
X151925468Y-111846540D01*
X151982611Y-111903682D01*
X152039754Y-112017968D01*
X152039754Y-112360825D01*
X151982611Y-112475111D01*
X151925468Y-112532254D01*
X151811182Y-112589397D01*
X151582611Y-112589397D01*
X151468325Y-112532254D01*
X153068325Y-112532254D02*
X152954040Y-112589397D01*
X152725468Y-112589397D01*
X152611182Y-112532254D01*
X152554040Y-112475111D01*
X152496897Y-112360825D01*
X152496897Y-112017968D01*
X152554040Y-111903682D01*
X152611182Y-111846540D01*
X152725468Y-111789397D01*
X152954040Y-111789397D01*
X153068325Y-111846540D01*
X153582611Y-112589397D02*
X153582611Y-111389397D01*
X153582611Y-111846540D02*
X153696897Y-111789397D01*
X153925468Y-111789397D01*
X154039754Y-111846540D01*
X154096897Y-111903682D01*
X154154040Y-112017968D01*
X154154040Y-112360825D01*
X154096897Y-112475111D01*
X154039754Y-112532254D01*
X153925468Y-112589397D01*
X153696897Y-112589397D01*
X153582611Y-112532254D01*
X155525468Y-111503682D02*
X155582611Y-111446540D01*
X155696897Y-111389397D01*
X155982611Y-111389397D01*
X156096897Y-111446540D01*
X156154040Y-111503682D01*
X156211182Y-111617968D01*
X156211182Y-111732254D01*
X156154040Y-111903682D01*
X155468325Y-112589397D01*
X156211182Y-112589397D01*
X156725468Y-112475111D02*
X156782611Y-112532254D01*
X156725468Y-112589397D01*
X156668325Y-112532254D01*
X156725468Y-112475111D01*
X156725468Y-112589397D01*
X157525468Y-111389397D02*
X157639754Y-111389397D01*
X157754040Y-111446540D01*
X157811182Y-111503682D01*
X157868325Y-111617968D01*
X157925468Y-111846540D01*
X157925468Y-112132254D01*
X157868325Y-112360825D01*
X157811182Y-112475111D01*
X157754040Y-112532254D01*
X157639754Y-112589397D01*
X157525468Y-112589397D01*
X157411182Y-112532254D01*
X157354040Y-112475111D01*
X157296897Y-112360825D01*
X157239754Y-112132254D01*
X157239754Y-111846540D01*
X157296897Y-111617968D01*
X157354040Y-111503682D01*
X157411182Y-111446540D01*
X157525468Y-111389397D01*
X137211182Y-114589397D02*
X137211182Y-113389397D01*
X137211182Y-114532254D02*
X137096897Y-114589397D01*
X136868325Y-114589397D01*
X136754040Y-114532254D01*
X136696897Y-114475111D01*
X136639754Y-114360825D01*
X136639754Y-114017968D01*
X136696897Y-113903682D01*
X136754040Y-113846540D01*
X136868325Y-113789397D01*
X137096897Y-113789397D01*
X137211182Y-113846540D01*
X138239754Y-114532254D02*
X138125468Y-114589397D01*
X137896897Y-114589397D01*
X137782611Y-114532254D01*
X137725468Y-114417968D01*
X137725468Y-113960825D01*
X137782611Y-113846540D01*
X137896897Y-113789397D01*
X138125468Y-113789397D01*
X138239754Y-113846540D01*
X138296897Y-113960825D01*
X138296897Y-114075111D01*
X137725468Y-114189397D01*
X138754040Y-114532254D02*
X138868325Y-114589397D01*
X139096897Y-114589397D01*
X139211182Y-114532254D01*
X139268325Y-114417968D01*
X139268325Y-114360825D01*
X139211182Y-114246540D01*
X139096897Y-114189397D01*
X138925468Y-114189397D01*
X138811182Y-114132254D01*
X138754040Y-114017968D01*
X138754040Y-113960825D01*
X138811182Y-113846540D01*
X138925468Y-113789397D01*
X139096897Y-113789397D01*
X139211182Y-113846540D01*
X139782611Y-114589397D02*
X139782611Y-113789397D01*
X139782611Y-113389397D02*
X139725468Y-113446540D01*
X139782611Y-113503682D01*
X139839754Y-113446540D01*
X139782611Y-113389397D01*
X139782611Y-113503682D01*
X140868325Y-113789397D02*
X140868325Y-114760825D01*
X140811182Y-114875111D01*
X140754040Y-114932254D01*
X140639754Y-114989397D01*
X140468325Y-114989397D01*
X140354040Y-114932254D01*
X140868325Y-114532254D02*
X140754040Y-114589397D01*
X140525468Y-114589397D01*
X140411182Y-114532254D01*
X140354040Y-114475111D01*
X140296897Y-114360825D01*
X140296897Y-114017968D01*
X140354040Y-113903682D01*
X140411182Y-113846540D01*
X140525468Y-113789397D01*
X140754040Y-113789397D01*
X140868325Y-113846540D01*
X141439754Y-114589397D02*
X141439754Y-113789397D01*
X141439754Y-113389397D02*
X141382611Y-113446540D01*
X141439754Y-113503682D01*
X141496897Y-113446540D01*
X141439754Y-113389397D01*
X141439754Y-113503682D01*
X142011182Y-113789397D02*
X142011182Y-114589397D01*
X142011182Y-113903682D02*
X142068325Y-113846540D01*
X142182611Y-113789397D01*
X142354040Y-113789397D01*
X142468325Y-113846540D01*
X142525468Y-113960825D01*
X142525468Y-114589397D01*
X143554040Y-114532254D02*
X143439754Y-114589397D01*
X143211182Y-114589397D01*
X143096897Y-114532254D01*
X143039754Y-114417968D01*
X143039754Y-113960825D01*
X143096897Y-113846540D01*
X143211182Y-113789397D01*
X143439754Y-113789397D01*
X143554040Y-113846540D01*
X143611182Y-113960825D01*
X143611182Y-114075111D01*
X143039754Y-114189397D01*
X144639754Y-114589397D02*
X144639754Y-113389397D01*
X144639754Y-114532254D02*
X144525468Y-114589397D01*
X144296897Y-114589397D01*
X144182611Y-114532254D01*
X144125468Y-114475111D01*
X144068325Y-114360825D01*
X144068325Y-114017968D01*
X144125468Y-113903682D01*
X144182611Y-113846540D01*
X144296897Y-113789397D01*
X144525468Y-113789397D01*
X144639754Y-113846540D01*
X146125468Y-114589397D02*
X146125468Y-113389397D01*
X146125468Y-113846540D02*
X146239754Y-113789397D01*
X146468325Y-113789397D01*
X146582611Y-113846540D01*
X146639754Y-113903682D01*
X146696897Y-114017968D01*
X146696897Y-114360825D01*
X146639754Y-114475111D01*
X146582611Y-114532254D01*
X146468325Y-114589397D01*
X146239754Y-114589397D01*
X146125468Y-114532254D01*
X147096897Y-113789397D02*
X147382611Y-114589397D01*
X147668325Y-113789397D02*
X147382611Y-114589397D01*
X147268325Y-114875111D01*
X147211182Y-114932254D01*
X147096897Y-114989397D01*
X148925468Y-113789397D02*
X149211182Y-114589397D01*
X149496897Y-113789397D01*
X150468325Y-113789397D02*
X150468325Y-114589397D01*
X150182611Y-113332254D02*
X149896897Y-114189397D01*
X150639754Y-114189397D01*
X151096897Y-114589397D02*
X151096897Y-113789397D01*
X151096897Y-114017968D02*
X151154040Y-113903682D01*
X151211182Y-113846540D01*
X151325468Y-113789397D01*
X151439754Y-113789397D01*
X152354040Y-113789397D02*
X152354040Y-114589397D01*
X152068325Y-113332254D02*
X151782611Y-114189397D01*
X152525468Y-114189397D01*
D11*
X188484347Y-111491760D02*
X188303173Y-112167909D01*
X189131394Y-109076946D02*
X190483690Y-109439293D01*
D12*
X197567268Y-116617240D02*
X194959268Y-115918429D01*
D13*
X195032352Y-115708728D02*
G75*
G03X193377751Y-113320582I-2153453J275263D01*
G01*
D14*
X188899386Y-109170071D02*
X188989973Y-108831997D01*
X198640438Y-113384856D02*
G75*
G03X197103750Y-111006076I-1957734J421046D01*
G01*
X194542453Y-115991570D02*
G75*
G03X192887853Y-113603425I-2153452J275263D01*
G01*
X188989973Y-108831997D02*
X197103750Y-111006076D01*
X192887853Y-113603425D02*
X188058224Y-112309330D01*
X197708689Y-116862189D02*
X194540453Y-116013262D01*
X198640438Y-113384856D02*
X198381619Y-114350782D01*
X197708689Y-116862189D02*
X197801864Y-116514456D01*
X197608679Y-116462692D02*
X197801864Y-116514456D01*
X198159456Y-114291253D02*
X197579701Y-116454927D01*
X198381619Y-114350782D02*
X198188434Y-114299018D01*
X189092571Y-109221835D02*
X188899386Y-109170071D01*
X188529547Y-111400344D02*
X189111890Y-109227011D01*
X188317043Y-111343404D02*
X188510229Y-111395168D01*
X188058224Y-112309330D02*
X188317043Y-111343404D01*
D15*
X190455950Y-111088302D02*
X196927653Y-112822389D01*
D13*
X189510830Y-109592726D02*
X188863782Y-112007540D01*
D12*
X188425648Y-112097198D02*
X189777944Y-112459545D01*
D16*
X197072914Y-112550729D02*
X196493159Y-114714403D01*
D17*
X197258543Y-116223935D02*
X197724418Y-114485268D01*
D18*
X198310907Y-114228307D02*
X198543845Y-113358975D01*
D11*
X135778057Y-60215807D02*
X135686688Y-60909818D01*
X136104372Y-57737195D02*
X137492395Y-57919931D01*
D12*
X145452282Y-64111878D02*
X142775381Y-63759457D01*
D13*
X142820468Y-63542011D02*
G75*
G03X140868307Y-61390265I-2170959J-8174D01*
G01*
D14*
X135886504Y-57859806D02*
X135932189Y-57512800D01*
X146094361Y-60767071D02*
G75*
G03X144260325Y-58609219I-1995944J161908D01*
G01*
X142371679Y-63886378D02*
G75*
G03X140419519Y-61734633I-2170958J-8174D01*
G01*
X135932189Y-57512800D02*
X144260325Y-58609219D01*
X140419519Y-61734633D02*
X135462294Y-61082002D01*
X145624465Y-64336272D02*
X142372526Y-63908146D01*
X146094360Y-60767071D02*
X145963834Y-61758516D01*
X145624465Y-64336272D02*
X145671455Y-63979352D01*
X145473166Y-63953247D02*
X145671455Y-63979352D01*
X145735801Y-61728495D02*
X145443423Y-63949331D01*
X145963834Y-61758516D02*
X145765545Y-61732410D01*
X136084793Y-57885911D02*
X135886504Y-57859806D01*
X135810938Y-60119273D02*
X136104622Y-57888522D01*
X135592820Y-60090557D02*
X135791109Y-60116662D01*
X135462294Y-61082002D02*
X135592820Y-60090557D01*
D15*
X137680131Y-59558454D02*
X144322812Y-60432979D01*
D13*
X136547884Y-58199036D02*
X136221569Y-60677648D01*
D12*
X135798886Y-60823726D02*
X137186908Y-61006463D01*
D16*
X144431371Y-60144682D02*
X144138992Y-62365519D01*
D17*
X145094862Y-63762234D02*
X145329809Y-61977633D01*
D18*
X145877741Y-61646318D02*
X145995215Y-60754019D01*
D14*
X220777607Y-112698941D02*
X228666411Y-83257522D01*
X223231058Y-113356342D02*
X220777607Y-112698941D01*
X231119863Y-83914922D02*
X223231058Y-113356342D01*
X228666411Y-83257522D02*
X231119863Y-83914922D01*
X206076215Y-108759715D02*
X213965020Y-79318296D01*
X208529667Y-109417116D02*
X206076215Y-108759715D01*
X216418472Y-79975697D02*
X208529667Y-109417116D01*
X213965020Y-79318296D02*
X216418472Y-79975697D01*
D11*
X198341605Y-74689754D02*
X198160431Y-75365903D01*
X198988652Y-72274940D02*
X200340948Y-72637287D01*
D12*
X207424526Y-79815234D02*
X204816526Y-79116423D01*
D13*
X204889610Y-78906722D02*
G75*
G03X203235009Y-76518576I-2153453J275263D01*
G01*
D14*
X198756644Y-72368065D02*
X198847231Y-72029991D01*
X208497696Y-76582850D02*
G75*
G03X206961008Y-74204070I-1957734J421046D01*
G01*
X204399711Y-79189564D02*
G75*
G03X202745111Y-76801419I-2153452J275263D01*
G01*
X198847231Y-72029991D02*
X206961008Y-74204070D01*
X202745111Y-76801419D02*
X197915482Y-75507324D01*
X207565947Y-80060183D02*
X204397711Y-79211256D01*
X208497696Y-76582850D02*
X208238877Y-77548776D01*
X207565947Y-80060183D02*
X207659122Y-79712450D01*
X207465937Y-79660686D02*
X207659122Y-79712450D01*
X208016714Y-77489247D02*
X207436959Y-79652921D01*
X208238877Y-77548776D02*
X208045692Y-77497012D01*
X198949829Y-72419829D02*
X198756644Y-72368065D01*
X198386805Y-74598338D02*
X198969148Y-72425005D01*
X198174301Y-74541398D02*
X198367487Y-74593162D01*
X197915482Y-75507324D02*
X198174301Y-74541398D01*
D15*
X200313208Y-74286296D02*
X206784911Y-76020383D01*
D13*
X199368088Y-72790720D02*
X198721040Y-75205534D01*
D12*
X198282906Y-75295192D02*
X199635202Y-75657539D01*
D16*
X206930172Y-75748723D02*
X206350417Y-77912397D01*
D17*
X207115801Y-79421929D02*
X207581676Y-77683262D01*
D18*
X208168165Y-77426301D02*
X208401103Y-76556969D01*
D11*
X109682040Y-91225540D02*
X109682040Y-91925540D01*
X109682040Y-88725540D02*
X111082040Y-88725540D01*
D12*
X119782040Y-93825540D02*
X117082040Y-93825540D01*
D13*
X117098358Y-93604069D02*
G75*
G03X114882040Y-91725540I-2151318J-291471D01*
G01*
D14*
X109482040Y-88875540D02*
X109482040Y-88525540D01*
X119982041Y-90425540D02*
G75*
G03X117882040Y-88525539I-2000001J-100000D01*
G01*
X116698358Y-94004069D02*
G75*
G03X114482040Y-92125540I-2151318J-291471D01*
G01*
X109482040Y-88525540D02*
X117882040Y-88525539D01*
X114482040Y-92125540D02*
X109482040Y-92125540D01*
X119982040Y-94025540D02*
X116702040Y-94025540D01*
X119982040Y-90425540D02*
X119982040Y-91425540D01*
X119982040Y-94025540D02*
X119982040Y-93665540D01*
X119782040Y-93665540D02*
X119982040Y-93665540D01*
X119752040Y-91425540D02*
X119752040Y-93665540D01*
X119982040Y-91425540D02*
X119782040Y-91425540D01*
X109682040Y-88875540D02*
X109482040Y-88875540D01*
X109702040Y-91125540D02*
X109702040Y-88875540D01*
X109482040Y-91125540D02*
X109682040Y-91125540D01*
X109482040Y-92125540D02*
X109482040Y-91125540D01*
D15*
X111482040Y-90325540D02*
X118182040Y-90325540D01*
D13*
X110182040Y-89125540D02*
X110182040Y-91625540D01*
D12*
X109782040Y-91825540D02*
X111182040Y-91825540D01*
D16*
X118252040Y-90025540D02*
X118252040Y-92265540D01*
D17*
X119382040Y-93525540D02*
X119382040Y-91725540D01*
D18*
X119882039Y-91325540D02*
X119882040Y-90425541D01*
D11*
X133291397Y-79095627D02*
X133200028Y-79789638D01*
X133617712Y-76617015D02*
X135005735Y-76799751D01*
D12*
X142965622Y-82991698D02*
X140288721Y-82639277D01*
D13*
X140333808Y-82421831D02*
G75*
G03X138381647Y-80270085I-2170959J-8174D01*
G01*
D14*
X133399844Y-76739626D02*
X133445529Y-76392620D01*
X143607701Y-79646891D02*
G75*
G03X141773665Y-77489039I-1995944J161908D01*
G01*
X139885019Y-82766198D02*
G75*
G03X137932859Y-80614453I-2170958J-8174D01*
G01*
X133445529Y-76392620D02*
X141773665Y-77489039D01*
X137932859Y-80614453D02*
X132975634Y-79961822D01*
X143137805Y-83216092D02*
X139885866Y-82787966D01*
X143607700Y-79646891D02*
X143477174Y-80638336D01*
X143137805Y-83216092D02*
X143184795Y-82859172D01*
X142986506Y-82833067D02*
X143184795Y-82859172D01*
X143249141Y-80608315D02*
X142956763Y-82829151D01*
X143477174Y-80638336D02*
X143278885Y-80612230D01*
X133598133Y-76765731D02*
X133399844Y-76739626D01*
X133324278Y-78999093D02*
X133617962Y-76768342D01*
X133106160Y-78970377D02*
X133304449Y-78996482D01*
X132975634Y-79961822D02*
X133106160Y-78970377D01*
D15*
X135193471Y-78438274D02*
X141836152Y-79312799D01*
D13*
X134061224Y-77078856D02*
X133734909Y-79557468D01*
D12*
X133312226Y-79703546D02*
X134700248Y-79886283D01*
D16*
X141944711Y-79024502D02*
X141652332Y-81245339D01*
D17*
X142608202Y-82642054D02*
X142843149Y-80857453D01*
D18*
X143391081Y-80526138D02*
X143508555Y-79633839D01*
D11*
X205139425Y-150351753D02*
X205489425Y-149745535D01*
X203889425Y-152516817D02*
X202676989Y-151816817D01*
D12*
X197692568Y-143050087D02*
X200030837Y-144400087D01*
D13*
X199905970Y-144583727D02*
G75*
G03X200886093Y-147318740I2008831J-823238D01*
G01*
D14*
X204137630Y-152486913D02*
X203962630Y-152790022D01*
X195819362Y-145894573D02*
G75*
G03X196688016Y-148590023I1782052J-913398D01*
G01*
X200452380Y-144437317D02*
G75*
G03X201432503Y-147172330I2008831J-823238D01*
G01*
X203962630Y-152790022D02*
X196688016Y-148590023D01*
X201432503Y-147172330D02*
X205762630Y-149672330D01*
X197619363Y-142776882D02*
X200459926Y-144416882D01*
X195819363Y-145894573D02*
X196319363Y-145028548D01*
X197619363Y-142776882D02*
X197439363Y-143088651D01*
X197612568Y-143188651D02*
X197439363Y-143088651D01*
X196518549Y-145143548D02*
X197638549Y-143203651D01*
X196319363Y-145028548D02*
X196492568Y-145128548D01*
X203964425Y-152386913D02*
X204137630Y-152486913D01*
X205072104Y-150428356D02*
X203947104Y-152376913D01*
X205262630Y-150538356D02*
X205089425Y-150438356D01*
X205762630Y-149672330D02*
X205262630Y-150538356D01*
D15*
X203130579Y-150231176D02*
X197328209Y-146881176D01*
D13*
X203656412Y-151920406D02*
X204906412Y-149755343D01*
D12*
X205352822Y-149782138D02*
X204140387Y-149082138D01*
D16*
X197117587Y-147105984D02*
X198237587Y-145166087D01*
D17*
X197888978Y-143509895D02*
X196988978Y-145068740D01*
D18*
X196355967Y-145165151D02*
X195905966Y-145944573D01*
D11*
X142302400Y-132375100D02*
X142302400Y-131675100D01*
X142302400Y-134875100D02*
X140902400Y-134875100D01*
D12*
X132202400Y-129775100D02*
X134902400Y-129775100D01*
D13*
X134886082Y-129996571D02*
G75*
G03X137102400Y-131875100I2151318J291471D01*
G01*
D14*
X142502400Y-134725100D02*
X142502400Y-135075100D01*
X132002399Y-133175100D02*
G75*
G03X134102400Y-135075101I2000001J100000D01*
G01*
X135286082Y-129596571D02*
G75*
G03X137502400Y-131475100I2151318J291471D01*
G01*
X142502400Y-135075100D02*
X134102400Y-135075101D01*
X137502400Y-131475100D02*
X142502400Y-131475100D01*
X132002400Y-129575100D02*
X135282400Y-129575100D01*
X132002400Y-133175100D02*
X132002400Y-132175100D01*
X132002400Y-129575100D02*
X132002400Y-129935100D01*
X132202400Y-129935100D02*
X132002400Y-129935100D01*
X132232400Y-132175100D02*
X132232400Y-129935100D01*
X132002400Y-132175100D02*
X132202400Y-132175100D01*
X142302400Y-134725100D02*
X142502400Y-134725100D01*
X142282400Y-132475100D02*
X142282400Y-134725100D01*
X142502400Y-132475100D02*
X142302400Y-132475100D01*
X142502400Y-131475100D02*
X142502400Y-132475100D01*
D15*
X140502400Y-133275100D02*
X133802400Y-133275100D01*
D13*
X141802400Y-134475100D02*
X141802400Y-131975100D01*
D12*
X142202400Y-131775100D02*
X140802400Y-131775100D01*
D16*
X133732400Y-133575100D02*
X133732400Y-131335100D01*
D17*
X132602400Y-130075100D02*
X132602400Y-131875100D01*
D18*
X132102401Y-132275100D02*
X132102400Y-133175099D01*
D11*
X170094265Y-106548974D02*
X169913091Y-107225123D01*
X170741312Y-104134160D02*
X172093608Y-104496507D01*
D12*
X179177186Y-111674454D02*
X176569186Y-110975643D01*
D13*
X176642270Y-110765942D02*
G75*
G03X174987669Y-108377796I-2153453J275263D01*
G01*
D14*
X170509304Y-104227285D02*
X170599891Y-103889211D01*
X180250356Y-108442070D02*
G75*
G03X178713668Y-106063290I-1957734J421046D01*
G01*
X176152371Y-111048784D02*
G75*
G03X174497771Y-108660639I-2153452J275263D01*
G01*
X170599891Y-103889211D02*
X178713668Y-106063290D01*
X174497771Y-108660639D02*
X169668142Y-107366544D01*
X179318607Y-111919403D02*
X176150371Y-111070476D01*
X180250356Y-108442070D02*
X179991537Y-109407996D01*
X179318607Y-111919403D02*
X179411782Y-111571670D01*
X179218597Y-111519906D02*
X179411782Y-111571670D01*
X179769374Y-109348467D02*
X179189619Y-111512141D01*
X179991537Y-109407996D02*
X179798352Y-109356232D01*
X170702489Y-104279049D02*
X170509304Y-104227285D01*
X170139465Y-106457558D02*
X170721808Y-104284225D01*
X169926961Y-106400618D02*
X170120147Y-106452382D01*
X169668142Y-107366544D02*
X169926961Y-106400618D01*
D15*
X172065868Y-106145516D02*
X178537571Y-107879603D01*
D13*
X171120748Y-104649940D02*
X170473700Y-107064754D01*
D12*
X170035566Y-107154412D02*
X171387862Y-107516759D01*
D16*
X178682832Y-107607943D02*
X178103077Y-109771617D01*
D17*
X178868461Y-111281149D02*
X179334336Y-109542482D01*
D18*
X179920825Y-109285521D02*
X180153763Y-108416189D01*
D11*
X151962888Y-96168732D02*
X151811380Y-96852139D01*
X152503987Y-93727992D02*
X153870802Y-94031008D01*
D12*
X161260735Y-100893142D02*
X158624736Y-100308755D01*
D13*
X158688602Y-100096065D02*
G75*
G03X156931407Y-97782366I-2163409J181068D01*
G01*
D14*
X152276262Y-93831149D02*
X152352016Y-93489445D01*
X162191890Y-97617023D02*
G75*
G03X160552902Y-95307537I-1974237J335249D01*
G01*
X158211508Y-100400008D02*
G75*
G03X156454313Y-98086309I-2163409J181068D01*
G01*
X152352016Y-93489445D02*
X160552902Y-95307537D01*
X156454313Y-98086309D02*
X151572833Y-97004111D01*
X161412706Y-101131689D02*
X158210455Y-100421767D01*
X162191889Y-97617023D02*
X161975449Y-98593319D01*
X161412706Y-101131689D02*
X161490624Y-100780223D01*
X161295365Y-100736935D02*
X161490624Y-100780223D01*
X161750901Y-98543538D02*
X161266076Y-100730441D01*
X161975449Y-98593319D02*
X161780190Y-98550032D01*
X152471521Y-93874437D02*
X152276262Y-93831149D01*
X152004058Y-96075431D02*
X152491047Y-93878765D01*
X151789273Y-96027815D02*
X151984532Y-96071103D01*
X151572833Y-97004111D02*
X151789273Y-96027815D01*
D15*
X153915017Y-95679657D02*
X160456200Y-97129803D01*
D13*
X152905559Y-94226730D02*
X152364460Y-96667470D01*
D12*
X151930654Y-96776154D02*
X153297468Y-97079169D01*
D16*
X160589472Y-96852065D02*
X160104648Y-99038968D01*
D17*
X160935148Y-100513677D02*
X161324740Y-98756345D01*
D18*
X161899462Y-98474046D02*
X162094259Y-97595381D01*
D11*
X130802197Y-97990687D02*
X130710828Y-98684698D01*
X131128512Y-95512075D02*
X132516535Y-95694811D01*
D12*
X140476422Y-101886758D02*
X137799521Y-101534337D01*
D13*
X137844608Y-101316891D02*
G75*
G03X135892447Y-99165145I-2170959J-8174D01*
G01*
D14*
X130910644Y-95634686D02*
X130956329Y-95287680D01*
X141118501Y-98541951D02*
G75*
G03X139284465Y-96384099I-1995944J161908D01*
G01*
X137395819Y-101661258D02*
G75*
G03X135443659Y-99509513I-2170958J-8174D01*
G01*
X130956329Y-95287680D02*
X139284465Y-96384099D01*
X135443659Y-99509513D02*
X130486434Y-98856882D01*
X140648605Y-102111152D02*
X137396666Y-101683026D01*
X141118500Y-98541951D02*
X140987974Y-99533396D01*
X140648605Y-102111152D02*
X140695595Y-101754232D01*
X140497306Y-101728127D02*
X140695595Y-101754232D01*
X140759941Y-99503375D02*
X140467563Y-101724211D01*
X140987974Y-99533396D02*
X140789685Y-99507290D01*
X131108933Y-95660791D02*
X130910644Y-95634686D01*
X130835078Y-97894153D02*
X131128762Y-95663402D01*
X130616960Y-97865437D02*
X130815249Y-97891542D01*
X130486434Y-98856882D02*
X130616960Y-97865437D01*
D15*
X132704271Y-97333334D02*
X139346952Y-98207859D01*
D13*
X131572024Y-95973916D02*
X131245709Y-98452528D01*
D12*
X130823026Y-98598606D02*
X132211048Y-98781343D01*
D16*
X139455511Y-97919562D02*
X139163132Y-100140399D01*
D17*
X140119002Y-101537114D02*
X140353949Y-99752513D01*
D18*
X140901881Y-99421198D02*
X141019355Y-98528899D01*
D11*
X109682040Y-110275540D02*
X109682040Y-110975540D01*
X109682040Y-107775540D02*
X111082040Y-107775540D01*
D12*
X119782040Y-112875540D02*
X117082040Y-112875540D01*
D13*
X117098358Y-112654069D02*
G75*
G03X114882040Y-110775540I-2151318J-291471D01*
G01*
D14*
X109482040Y-107925540D02*
X109482040Y-107575540D01*
X119982041Y-109475540D02*
G75*
G03X117882040Y-107575539I-2000001J-100000D01*
G01*
X116698358Y-113054069D02*
G75*
G03X114482040Y-111175540I-2151318J-291471D01*
G01*
X109482040Y-107575540D02*
X117882040Y-107575539D01*
X114482040Y-111175540D02*
X109482040Y-111175540D01*
X119982040Y-113075540D02*
X116702040Y-113075540D01*
X119982040Y-109475540D02*
X119982040Y-110475540D01*
X119982040Y-113075540D02*
X119982040Y-112715540D01*
X119782040Y-112715540D02*
X119982040Y-112715540D01*
X119752040Y-110475540D02*
X119752040Y-112715540D01*
X119982040Y-110475540D02*
X119782040Y-110475540D01*
X109682040Y-107925540D02*
X109482040Y-107925540D01*
X109702040Y-110175540D02*
X109702040Y-107925540D01*
X109482040Y-110175540D02*
X109682040Y-110175540D01*
X109482040Y-111175540D02*
X109482040Y-110175540D01*
D15*
X111482040Y-109375540D02*
X118182040Y-109375540D01*
D13*
X110182040Y-108175540D02*
X110182040Y-110675540D01*
D12*
X109782040Y-110875540D02*
X111182040Y-110875540D01*
D16*
X118252040Y-109075540D02*
X118252040Y-111315540D01*
D17*
X119382040Y-112575540D02*
X119382040Y-110775540D01*
D18*
X119882039Y-110375540D02*
X119882040Y-109475541D01*
D11*
X90632040Y-110275540D02*
X90632040Y-110975540D01*
X90632040Y-107775540D02*
X92032040Y-107775540D01*
D12*
X100732040Y-112875540D02*
X98032040Y-112875540D01*
D13*
X98048358Y-112654069D02*
G75*
G03X95832040Y-110775540I-2151318J-291471D01*
G01*
D14*
X90432040Y-107925540D02*
X90432040Y-107575540D01*
X100932041Y-109475540D02*
G75*
G03X98832040Y-107575539I-2000001J-100000D01*
G01*
X97648358Y-113054069D02*
G75*
G03X95432040Y-111175540I-2151318J-291471D01*
G01*
X90432040Y-107575540D02*
X98832040Y-107575539D01*
X95432040Y-111175540D02*
X90432040Y-111175540D01*
X100932040Y-113075540D02*
X97652040Y-113075540D01*
X100932040Y-109475540D02*
X100932040Y-110475540D01*
X100932040Y-113075540D02*
X100932040Y-112715540D01*
X100732040Y-112715540D02*
X100932040Y-112715540D01*
X100702040Y-110475540D02*
X100702040Y-112715540D01*
X100932040Y-110475540D02*
X100732040Y-110475540D01*
X90632040Y-107925540D02*
X90432040Y-107925540D01*
X90652040Y-110175540D02*
X90652040Y-107925540D01*
X90432040Y-110175540D02*
X90632040Y-110175540D01*
X90432040Y-111175540D02*
X90432040Y-110175540D01*
D15*
X92432040Y-109375540D02*
X99132040Y-109375540D01*
D13*
X91132040Y-108175540D02*
X91132040Y-110675540D01*
D12*
X90732040Y-110875540D02*
X92132040Y-110875540D01*
D16*
X99202040Y-109075540D02*
X99202040Y-111315540D01*
D17*
X100332040Y-112575540D02*
X100332040Y-110775540D01*
D18*
X100832039Y-110375540D02*
X100832040Y-109475541D01*
D11*
X193414487Y-93086920D02*
X193233313Y-93763069D01*
X194061534Y-90672106D02*
X195413830Y-91034453D01*
D12*
X202497408Y-98212400D02*
X199889408Y-97513589D01*
D13*
X199962492Y-97303888D02*
G75*
G03X198307891Y-94915742I-2153453J275263D01*
G01*
D14*
X193829526Y-90765231D02*
X193920113Y-90427157D01*
X203570578Y-94980016D02*
G75*
G03X202033890Y-92601236I-1957734J421046D01*
G01*
X199472593Y-97586730D02*
G75*
G03X197817993Y-95198585I-2153452J275263D01*
G01*
X193920113Y-90427157D02*
X202033890Y-92601236D01*
X197817993Y-95198585D02*
X192988364Y-93904490D01*
X202638829Y-98457349D02*
X199470593Y-97608422D01*
X203570578Y-94980016D02*
X203311759Y-95945942D01*
X202638829Y-98457349D02*
X202732004Y-98109616D01*
X202538819Y-98057852D02*
X202732004Y-98109616D01*
X203089596Y-95886413D02*
X202509841Y-98050087D01*
X203311759Y-95945942D02*
X203118574Y-95894178D01*
X194022711Y-90816995D02*
X193829526Y-90765231D01*
X193459687Y-92995504D02*
X194042030Y-90822171D01*
X193247183Y-92938564D02*
X193440369Y-92990328D01*
X192988364Y-93904490D02*
X193247183Y-92938564D01*
D15*
X195386090Y-92683462D02*
X201857793Y-94417549D01*
D13*
X194440970Y-91187886D02*
X193793922Y-93602700D01*
D12*
X193355788Y-93692358D02*
X194708084Y-94054705D01*
D16*
X202003054Y-94145889D02*
X201423299Y-96309563D01*
D17*
X202188683Y-97819095D02*
X202654558Y-96080428D01*
D18*
X203241047Y-95823467D02*
X203473985Y-94954135D01*
D11*
X175021865Y-88156834D02*
X174840691Y-88832983D01*
X175668912Y-85742020D02*
X177021208Y-86104367D01*
D12*
X184104786Y-93282314D02*
X181496786Y-92583503D01*
D13*
X181569870Y-92373802D02*
G75*
G03X179915269Y-89985656I-2153453J275263D01*
G01*
D14*
X175436904Y-85835145D02*
X175527491Y-85497071D01*
X185177956Y-90049930D02*
G75*
G03X183641268Y-87671150I-1957734J421046D01*
G01*
X181079971Y-92656644D02*
G75*
G03X179425371Y-90268499I-2153452J275263D01*
G01*
X175527491Y-85497071D02*
X183641268Y-87671150D01*
X179425371Y-90268499D02*
X174595742Y-88974404D01*
X184246207Y-93527263D02*
X181077971Y-92678336D01*
X185177956Y-90049930D02*
X184919137Y-91015856D01*
X184246207Y-93527263D02*
X184339382Y-93179530D01*
X184146197Y-93127766D02*
X184339382Y-93179530D01*
X184696974Y-90956327D02*
X184117219Y-93120001D01*
X184919137Y-91015856D02*
X184725952Y-90964092D01*
X175630089Y-85886909D02*
X175436904Y-85835145D01*
X175067065Y-88065418D02*
X175649408Y-85892085D01*
X174854561Y-88008478D02*
X175047747Y-88060242D01*
X174595742Y-88974404D02*
X174854561Y-88008478D01*
D15*
X176993468Y-87753376D02*
X183465171Y-89487463D01*
D13*
X176048348Y-86257800D02*
X175401300Y-88672614D01*
D12*
X174963166Y-88762272D02*
X176315462Y-89124619D01*
D16*
X183610432Y-89215803D02*
X183030677Y-91379477D01*
D17*
X183796061Y-92889009D02*
X184261936Y-91150342D01*
D18*
X184848425Y-90893381D02*
X185081363Y-90024049D01*
D11*
X156080228Y-77586092D02*
X155928720Y-78269499D01*
X156621327Y-75145352D02*
X157988142Y-75448368D01*
D12*
X165378075Y-82310502D02*
X162742076Y-81726115D01*
D13*
X162805942Y-81513425D02*
G75*
G03X161048747Y-79199726I-2163409J181068D01*
G01*
D14*
X156393602Y-75248509D02*
X156469356Y-74906805D01*
X166309230Y-79034383D02*
G75*
G03X164670242Y-76724897I-1974237J335249D01*
G01*
X162328848Y-81817368D02*
G75*
G03X160571653Y-79503669I-2163409J181068D01*
G01*
X156469356Y-74906805D02*
X164670242Y-76724897D01*
X160571653Y-79503669D02*
X155690173Y-78421471D01*
X165530046Y-82549049D02*
X162327795Y-81839127D01*
X166309229Y-79034383D02*
X166092789Y-80010679D01*
X165530046Y-82549049D02*
X165607964Y-82197583D01*
X165412705Y-82154295D02*
X165607964Y-82197583D01*
X165868241Y-79960898D02*
X165383416Y-82147801D01*
X166092789Y-80010679D02*
X165897530Y-79967392D01*
X156588861Y-75291797D02*
X156393602Y-75248509D01*
X156121398Y-77492791D02*
X156608387Y-75296125D01*
X155906613Y-77445175D02*
X156101872Y-77488463D01*
X155690173Y-78421471D02*
X155906613Y-77445175D01*
D15*
X158032357Y-77097017D02*
X164573540Y-78547163D01*
D13*
X157022899Y-75644090D02*
X156481800Y-78084830D01*
D12*
X156047994Y-78193514D02*
X157414808Y-78496529D01*
D16*
X164706812Y-78269425D02*
X164221988Y-80456328D01*
D17*
X165052488Y-81931037D02*
X165442080Y-80173705D01*
D18*
X166016802Y-79891406D02*
X166211599Y-79012741D01*
D11*
X90632040Y-91225540D02*
X90632040Y-91925540D01*
X90632040Y-88725540D02*
X92032040Y-88725540D01*
D12*
X100732040Y-93825540D02*
X98032040Y-93825540D01*
D13*
X98048358Y-93604069D02*
G75*
G03X95832040Y-91725540I-2151318J-291471D01*
G01*
D14*
X90432040Y-88875540D02*
X90432040Y-88525540D01*
X100932041Y-90425540D02*
G75*
G03X98832040Y-88525539I-2000001J-100000D01*
G01*
X97648358Y-94004069D02*
G75*
G03X95432040Y-92125540I-2151318J-291471D01*
G01*
X90432040Y-88525540D02*
X98832040Y-88525539D01*
X95432040Y-92125540D02*
X90432040Y-92125540D01*
X100932040Y-94025540D02*
X97652040Y-94025540D01*
X100932040Y-90425540D02*
X100932040Y-91425540D01*
X100932040Y-94025540D02*
X100932040Y-93665540D01*
X100732040Y-93665540D02*
X100932040Y-93665540D01*
X100702040Y-91425540D02*
X100702040Y-93665540D01*
X100932040Y-91425540D02*
X100732040Y-91425540D01*
X90632040Y-88875540D02*
X90432040Y-88875540D01*
X90652040Y-91125540D02*
X90652040Y-88875540D01*
X90432040Y-91125540D02*
X90632040Y-91125540D01*
X90432040Y-92125540D02*
X90432040Y-91125540D01*
D15*
X92432040Y-90325540D02*
X99132040Y-90325540D01*
D13*
X91132040Y-89125540D02*
X91132040Y-91625540D01*
D12*
X90732040Y-91825540D02*
X92132040Y-91825540D01*
D16*
X99202040Y-90025540D02*
X99202040Y-92265540D01*
D17*
X100332040Y-93525540D02*
X100332040Y-91725540D01*
D18*
X100832039Y-91325540D02*
X100832040Y-90425541D01*
D11*
X179952005Y-69762154D02*
X179770831Y-70438303D01*
X180599052Y-67347340D02*
X181951348Y-67709687D01*
D12*
X189034926Y-74887634D02*
X186426926Y-74188823D01*
D13*
X186500010Y-73979122D02*
G75*
G03X184845409Y-71590976I-2153453J275263D01*
G01*
D14*
X180367044Y-67440465D02*
X180457631Y-67102391D01*
X190108096Y-71655250D02*
G75*
G03X188571408Y-69276470I-1957734J421046D01*
G01*
X186010111Y-74261964D02*
G75*
G03X184355511Y-71873819I-2153452J275263D01*
G01*
X180457631Y-67102391D02*
X188571408Y-69276470D01*
X184355511Y-71873819D02*
X179525882Y-70579724D01*
X189176347Y-75132583D02*
X186008111Y-74283656D01*
X190108096Y-71655250D02*
X189849277Y-72621176D01*
X189176347Y-75132583D02*
X189269522Y-74784850D01*
X189076337Y-74733086D02*
X189269522Y-74784850D01*
X189627114Y-72561647D02*
X189047359Y-74725321D01*
X189849277Y-72621176D02*
X189656092Y-72569412D01*
X180560229Y-67492229D02*
X180367044Y-67440465D01*
X179997205Y-69670738D02*
X180579548Y-67497405D01*
X179784701Y-69613798D02*
X179977887Y-69665562D01*
X179525882Y-70579724D02*
X179784701Y-69613798D01*
D15*
X181923608Y-69358696D02*
X188395311Y-71092783D01*
D13*
X180978488Y-67863120D02*
X180331440Y-70277934D01*
D12*
X179893306Y-70367592D02*
X181245602Y-70729939D01*
D16*
X188540572Y-70821123D02*
X187960817Y-72984797D01*
D17*
X188726201Y-74494329D02*
X189192076Y-72755662D01*
D18*
X189778565Y-72498701D02*
X190011503Y-71629369D01*
D11*
X160202648Y-58993292D02*
X160051140Y-59676699D01*
X160743747Y-56552552D02*
X162110562Y-56855568D01*
D12*
X169500495Y-63717702D02*
X166864496Y-63133315D01*
D13*
X166928362Y-62920625D02*
G75*
G03X165171167Y-60606926I-2163409J181068D01*
G01*
D14*
X160516022Y-56655709D02*
X160591776Y-56314005D01*
X170431650Y-60441583D02*
G75*
G03X168792662Y-58132097I-1974237J335249D01*
G01*
X166451268Y-63224568D02*
G75*
G03X164694073Y-60910869I-2163409J181068D01*
G01*
X160591776Y-56314005D02*
X168792662Y-58132097D01*
X164694073Y-60910869D02*
X159812593Y-59828671D01*
X169652466Y-63956249D02*
X166450215Y-63246327D01*
X170431649Y-60441583D02*
X170215209Y-61417879D01*
X169652466Y-63956249D02*
X169730384Y-63604783D01*
X169535125Y-63561495D02*
X169730384Y-63604783D01*
X169990661Y-61368098D02*
X169505836Y-63555001D01*
X170215209Y-61417879D02*
X170019950Y-61374592D01*
X160711281Y-56698997D02*
X160516022Y-56655709D01*
X160243818Y-58899991D02*
X160730807Y-56703325D01*
X160029033Y-58852375D02*
X160224292Y-58895663D01*
X159812593Y-59828671D02*
X160029033Y-58852375D01*
D15*
X162154777Y-58504217D02*
X168695960Y-59954363D01*
D13*
X161145319Y-57051290D02*
X160604220Y-59492030D01*
D12*
X160170414Y-59600714D02*
X161537228Y-59903729D01*
D16*
X168829232Y-59676625D02*
X168344408Y-61863528D01*
D17*
X169174908Y-63338237D02*
X169564500Y-61580905D01*
D18*
X170139222Y-61298606D02*
X170334019Y-60419941D01*
D11*
X109682040Y-72175540D02*
X109682040Y-72875540D01*
X109682040Y-69675540D02*
X111082040Y-69675540D01*
D12*
X119782040Y-74775540D02*
X117082040Y-74775540D01*
D13*
X117098358Y-74554069D02*
G75*
G03X114882040Y-72675540I-2151318J-291471D01*
G01*
D14*
X109482040Y-69825540D02*
X109482040Y-69475540D01*
X119982041Y-71375540D02*
G75*
G03X117882040Y-69475539I-2000001J-100000D01*
G01*
X116698358Y-74954069D02*
G75*
G03X114482040Y-73075540I-2151318J-291471D01*
G01*
X109482040Y-69475540D02*
X117882040Y-69475539D01*
X114482040Y-73075540D02*
X109482040Y-73075540D01*
X119982040Y-74975540D02*
X116702040Y-74975540D01*
X119982040Y-71375540D02*
X119982040Y-72375540D01*
X119982040Y-74975540D02*
X119982040Y-74615540D01*
X119782040Y-74615540D02*
X119982040Y-74615540D01*
X119752040Y-72375540D02*
X119752040Y-74615540D01*
X119982040Y-72375540D02*
X119782040Y-72375540D01*
X109682040Y-69825540D02*
X109482040Y-69825540D01*
X109702040Y-72075540D02*
X109702040Y-69825540D01*
X109482040Y-72075540D02*
X109682040Y-72075540D01*
X109482040Y-73075540D02*
X109482040Y-72075540D01*
D15*
X111482040Y-71275540D02*
X118182040Y-71275540D01*
D13*
X110182040Y-70075540D02*
X110182040Y-72575540D01*
D12*
X109782040Y-72775540D02*
X111182040Y-72775540D01*
D16*
X118252040Y-70975540D02*
X118252040Y-73215540D01*
D17*
X119382040Y-74475540D02*
X119382040Y-72675540D01*
D18*
X119882039Y-72275540D02*
X119882040Y-71375541D01*
D11*
X90632040Y-72175540D02*
X90632040Y-72875540D01*
X90632040Y-69675540D02*
X92032040Y-69675540D01*
D12*
X100732040Y-74775540D02*
X98032040Y-74775540D01*
D13*
X98048358Y-74554069D02*
G75*
G03X95832040Y-72675540I-2151318J-291471D01*
G01*
D14*
X90432040Y-69825540D02*
X90432040Y-69475540D01*
X100932041Y-71375540D02*
G75*
G03X98832040Y-69475539I-2000001J-100000D01*
G01*
X97648358Y-74954069D02*
G75*
G03X95432040Y-73075540I-2151318J-291471D01*
G01*
X90432040Y-69475540D02*
X98832040Y-69475539D01*
X95432040Y-73075540D02*
X90432040Y-73075540D01*
X100932040Y-74975540D02*
X97652040Y-74975540D01*
X100932040Y-71375540D02*
X100932040Y-72375540D01*
X100932040Y-74975540D02*
X100932040Y-74615540D01*
X100732040Y-74615540D02*
X100932040Y-74615540D01*
X100702040Y-72375540D02*
X100702040Y-74615540D01*
X100932040Y-72375540D02*
X100732040Y-72375540D01*
X90632040Y-69825540D02*
X90432040Y-69825540D01*
X90652040Y-72075540D02*
X90652040Y-69825540D01*
X90432040Y-72075540D02*
X90632040Y-72075540D01*
X90432040Y-73075540D02*
X90432040Y-72075540D01*
D15*
X92432040Y-71275540D02*
X99132040Y-71275540D01*
D13*
X91132040Y-70075540D02*
X91132040Y-72575540D01*
D12*
X90732040Y-72775540D02*
X92132040Y-72775540D01*
D16*
X99202040Y-70975540D02*
X99202040Y-73215540D01*
D17*
X100332040Y-74475540D02*
X100332040Y-72675540D01*
D18*
X100832039Y-72275540D02*
X100832040Y-71375541D01*
D14*
X128702626Y-120568340D02*
X128702626Y-119568340D01*
X128602626Y-120068340D02*
X127702626Y-120568340D01*
X127702626Y-119568340D02*
X128602626Y-120068340D01*
X127702626Y-120568340D02*
X127702626Y-119568340D01*
X125502626Y-120818340D02*
X125502626Y-119318340D01*
X130902626Y-120818340D02*
X130902626Y-119318340D01*
X125502626Y-120818340D02*
X130902626Y-120818340D01*
X130902626Y-119318340D02*
X125502626Y-119318340D01*
X95535040Y-80067675D02*
X95535040Y-79067675D01*
X95435040Y-79567675D02*
X94535040Y-80067675D01*
X94535040Y-79067675D02*
X95435040Y-79567675D01*
X94535040Y-80067675D02*
X94535040Y-79067675D01*
X92335040Y-80317675D02*
X92335040Y-78817675D01*
X97735040Y-80317675D02*
X97735040Y-78817675D01*
X92335040Y-80317675D02*
X97735040Y-80317675D01*
X97735040Y-78817675D02*
X92335040Y-78817675D01*
X116764526Y-78817675D02*
X111364526Y-78817675D01*
X111364526Y-80317675D02*
X116764526Y-80317675D01*
X116764526Y-80317675D02*
X116764526Y-78817675D01*
X111364526Y-80317675D02*
X111364526Y-78817675D01*
X113564526Y-80067675D02*
X113564526Y-79067675D01*
X113564526Y-79067675D02*
X114464526Y-79567675D01*
X114464526Y-79567675D02*
X113564526Y-80067675D01*
X114564526Y-80067675D02*
X114564526Y-79067675D01*
X141875836Y-68064377D02*
X136522034Y-67359536D01*
X136326244Y-68846703D02*
X141680046Y-69551544D01*
X141680046Y-69551544D02*
X141875836Y-68064377D01*
X136326244Y-68846703D02*
X136522034Y-67359536D01*
X138540054Y-68885999D02*
X138670581Y-67894554D01*
X138670581Y-67894554D02*
X139497618Y-68507750D01*
X139497618Y-68507750D02*
X138540054Y-68885999D01*
X139531499Y-69016526D02*
X139662026Y-68025081D01*
X163166468Y-68035908D02*
X163382908Y-67059612D01*
X163177058Y-67526116D02*
X162190172Y-67819468D01*
X162406612Y-66843172D02*
X163177058Y-67526116D01*
X162190172Y-67819468D02*
X162406612Y-66843172D01*
X159988211Y-67587375D02*
X160312870Y-66122931D01*
X165260210Y-68756149D02*
X165584869Y-67291705D01*
X159988211Y-67587375D02*
X165260210Y-68756149D01*
X165584869Y-67291705D02*
X160312870Y-66122931D01*
X185019636Y-78335542D02*
X179803637Y-76937919D01*
X179415408Y-78386808D02*
X184631407Y-79784431D01*
X184631407Y-79784431D02*
X185019636Y-78335542D01*
X179415408Y-78386808D02*
X179803637Y-76937919D01*
X181605150Y-78714728D02*
X181863969Y-77748803D01*
X181863969Y-77748803D02*
X182603892Y-78464703D01*
X182603892Y-78464703D02*
X181605150Y-78714728D01*
X182571075Y-78973547D02*
X182829894Y-78007622D01*
X200973375Y-83837647D02*
X201232194Y-82871722D01*
X201006192Y-83328803D02*
X200007450Y-83578828D01*
X200266269Y-82612903D02*
X201006192Y-83328803D01*
X200007450Y-83578828D02*
X200266269Y-82612903D01*
X197817708Y-83250908D02*
X198205937Y-81802019D01*
X203033707Y-84648531D02*
X203421936Y-83199642D01*
X197817708Y-83250908D02*
X203033707Y-84648531D01*
X203421936Y-83199642D02*
X198205937Y-81802019D01*
X95535040Y-82290540D02*
X95535040Y-81290540D01*
X95435040Y-81790540D02*
X94535040Y-82290540D01*
X94535040Y-81290540D02*
X95435040Y-81790540D01*
X94535040Y-82290540D02*
X94535040Y-81290540D01*
X92335040Y-82540540D02*
X92335040Y-81040540D01*
X97735040Y-82540540D02*
X97735040Y-81040540D01*
X92335040Y-82540540D02*
X97735040Y-82540540D01*
X97735040Y-81040540D02*
X92335040Y-81040540D01*
X114564526Y-82290540D02*
X114564526Y-81290540D01*
X114464526Y-81790540D02*
X113564526Y-82290540D01*
X113564526Y-81290540D02*
X114464526Y-81790540D01*
X113564526Y-82290540D02*
X113564526Y-81290540D01*
X111364526Y-82540540D02*
X111364526Y-81040540D01*
X116764526Y-82540540D02*
X116764526Y-81040540D01*
X111364526Y-82540540D02*
X116764526Y-82540540D01*
X116764526Y-81040540D02*
X111364526Y-81040540D01*
X139259985Y-71239026D02*
X139390512Y-70247581D01*
X139226104Y-70730250D02*
X138268540Y-71108499D01*
X138399067Y-70117054D02*
X139226104Y-70730250D01*
X138268540Y-71108499D02*
X138399067Y-70117054D01*
X136054730Y-71069203D02*
X136250520Y-69582036D01*
X141408532Y-71774044D02*
X141604322Y-70286877D01*
X136054730Y-71069203D02*
X141408532Y-71774044D01*
X141604322Y-70286877D02*
X136250520Y-69582036D01*
X165122855Y-69514205D02*
X159850856Y-68345431D01*
X159526197Y-69809875D02*
X164798196Y-70978649D01*
X164798196Y-70978649D02*
X165122855Y-69514205D01*
X159526197Y-69809875D02*
X159850856Y-68345431D01*
X161728158Y-70041968D02*
X161944598Y-69065672D01*
X161944598Y-69065672D02*
X162715044Y-69748616D01*
X162715044Y-69748616D02*
X161728158Y-70041968D01*
X162704454Y-70258408D02*
X162920894Y-69282112D01*
X181985079Y-81132912D02*
X182243898Y-80166987D01*
X182017896Y-80624068D02*
X181019154Y-80874093D01*
X181277973Y-79908168D02*
X182017896Y-80624068D01*
X181019154Y-80874093D02*
X181277973Y-79908168D01*
X178829412Y-80546173D02*
X179217641Y-79097284D01*
X184045411Y-81943796D02*
X184433640Y-80494907D01*
X178829412Y-80546173D02*
X184045411Y-81943796D01*
X184433640Y-80494907D02*
X179217641Y-79097284D01*
X202832940Y-85422507D02*
X197616941Y-84024884D01*
X197228712Y-85473773D02*
X202444711Y-86871396D01*
X202444711Y-86871396D02*
X202832940Y-85422507D01*
X197228712Y-85473773D02*
X197616941Y-84024884D01*
X199418454Y-85801693D02*
X199677273Y-84835768D01*
X199677273Y-84835768D02*
X200417196Y-85551668D01*
X200417196Y-85551668D02*
X199418454Y-85801693D01*
X200384379Y-86060512D02*
X200643198Y-85094587D01*
X97740040Y-105172540D02*
X92340040Y-105172540D01*
X92340040Y-106672540D02*
X97740040Y-106672540D01*
X97740040Y-106672540D02*
X97740040Y-105172540D01*
X92340040Y-106672540D02*
X92340040Y-105172540D01*
X94540040Y-106422540D02*
X94540040Y-105422540D01*
X94540040Y-105422540D02*
X95440040Y-105922540D01*
X95440040Y-105922540D02*
X94540040Y-106422540D01*
X95540040Y-106422540D02*
X95540040Y-105422540D01*
X114581040Y-106424540D02*
X114581040Y-105424540D01*
X114481040Y-105924540D02*
X113581040Y-106424540D01*
X113581040Y-105424540D02*
X114481040Y-105924540D01*
X113581040Y-106424540D02*
X113581040Y-105424540D01*
X111381040Y-106674540D02*
X111381040Y-105174540D01*
X116781040Y-106674540D02*
X116781040Y-105174540D01*
X111381040Y-106674540D02*
X116781040Y-106674540D01*
X116781040Y-105174540D02*
X111381040Y-105174540D01*
X130902626Y-117095475D02*
X125502626Y-117095475D01*
X125502626Y-118595475D02*
X130902626Y-118595475D01*
X130902626Y-118595475D02*
X130902626Y-117095475D01*
X125502626Y-118595475D02*
X125502626Y-117095475D01*
X127702626Y-118345475D02*
X127702626Y-117345475D01*
X127702626Y-117345475D02*
X128602626Y-117845475D01*
X128602626Y-117845475D02*
X127702626Y-118345475D01*
X128702626Y-118345475D02*
X128702626Y-117345475D01*
X148054426Y-118345475D02*
X148054426Y-117345475D01*
X147954426Y-117845475D02*
X147054426Y-118345475D01*
X147054426Y-117345475D02*
X147954426Y-117845475D01*
X147054426Y-118345475D02*
X147054426Y-117345475D01*
X144854426Y-118595475D02*
X144854426Y-117095475D01*
X150254426Y-118595475D02*
X150254426Y-117095475D01*
X144854426Y-118595475D02*
X150254426Y-118595475D01*
X150254426Y-117095475D02*
X144854426Y-117095475D01*
X171529979Y-120145047D02*
X171788798Y-119179122D01*
X171562796Y-119636203D02*
X170564054Y-119886228D01*
X170822873Y-118920303D02*
X171562796Y-119636203D01*
X170564054Y-119886228D02*
X170822873Y-118920303D01*
X168374312Y-119558308D02*
X168762541Y-118109419D01*
X173590311Y-120955931D02*
X173978540Y-119507042D01*
X168374312Y-119558308D02*
X173590311Y-120955931D01*
X173978540Y-119507042D02*
X168762541Y-118109419D01*
X195424198Y-126553233D02*
X195683017Y-125587308D01*
X195457015Y-126044389D02*
X194458273Y-126294414D01*
X194717092Y-125328489D02*
X195457015Y-126044389D01*
X194458273Y-126294414D02*
X194717092Y-125328489D01*
X192268531Y-125966494D02*
X192656760Y-124517605D01*
X197484530Y-127364117D02*
X197872759Y-125915228D01*
X192268531Y-125966494D02*
X197484530Y-127364117D01*
X197872759Y-125915228D02*
X192656760Y-124517605D01*
X150254426Y-119318340D02*
X144854426Y-119318340D01*
X144854426Y-120818340D02*
X150254426Y-120818340D01*
X150254426Y-120818340D02*
X150254426Y-119318340D01*
X144854426Y-120818340D02*
X144854426Y-119318340D01*
X147054426Y-120568340D02*
X147054426Y-119568340D01*
X147054426Y-119568340D02*
X147954426Y-120068340D01*
X147954426Y-120068340D02*
X147054426Y-120568340D01*
X148054426Y-120568340D02*
X148054426Y-119568340D01*
X173361054Y-121706407D02*
X168145055Y-120308784D01*
X167756826Y-121757673D02*
X172972825Y-123155296D01*
X172972825Y-123155296D02*
X173361054Y-121706407D01*
X167756826Y-121757673D02*
X168145055Y-120308784D01*
X169946568Y-122085593D02*
X170205387Y-121119668D01*
X170205387Y-121119668D02*
X170945310Y-121835568D01*
X170945310Y-121835568D02*
X169946568Y-122085593D01*
X170912493Y-122344412D02*
X171171312Y-121378487D01*
X197291241Y-128117824D02*
X192075242Y-126720201D01*
X191687013Y-128169090D02*
X196903012Y-129566713D01*
X196903012Y-129566713D02*
X197291241Y-128117824D01*
X191687013Y-128169090D02*
X192075242Y-126720201D01*
X193876755Y-128497010D02*
X194135574Y-127531085D01*
X194135574Y-127531085D02*
X194875497Y-128246985D01*
X194875497Y-128246985D02*
X193876755Y-128497010D01*
X194842680Y-128755829D02*
X195101499Y-127789904D01*
X221725497Y-120076763D02*
X220172583Y-125872317D01*
X220172583Y-125872317D02*
X208581473Y-122766489D01*
X208581473Y-122766489D02*
X210134387Y-116970934D01*
X210134387Y-116970934D02*
X221725497Y-120076763D01*
X207944314Y-113496026D02*
X217758120Y-116125627D01*
X208601714Y-111042574D02*
X218415521Y-113672176D01*
X218415521Y-113672176D02*
X217758120Y-116125627D01*
X207944314Y-113496026D02*
X208601714Y-111042574D01*
X217204890Y-113057613D02*
X215487474Y-112597433D01*
X217796550Y-110849507D02*
X217204890Y-113057613D01*
X216079134Y-110389327D02*
X217796550Y-110849507D01*
X215487474Y-112597433D02*
X216079134Y-110389327D01*
X213615494Y-112094513D02*
X214207154Y-109886407D01*
X214207154Y-109886407D02*
X215924570Y-110346587D01*
X215924570Y-110346587D02*
X215332910Y-112554693D01*
X215332910Y-112554693D02*
X213615494Y-112094513D01*
X213458390Y-112052853D02*
X211740974Y-111592673D01*
X214050050Y-109844747D02*
X213458390Y-112052853D01*
X212332634Y-109384567D02*
X214050050Y-109844747D01*
X211740974Y-111592673D02*
X212332634Y-109384567D01*
X209867710Y-111091633D02*
X210459370Y-108883527D01*
X210459370Y-108883527D02*
X212176786Y-109343707D01*
X212176786Y-109343707D02*
X211585126Y-111551813D01*
X211585126Y-111551813D02*
X209867710Y-111091633D01*
X218015391Y-133594110D02*
X219568305Y-127798555D01*
X219568305Y-127798555D02*
X219326824Y-127733850D01*
X218015391Y-133594110D02*
X217773910Y-133529405D01*
X214634651Y-132688243D02*
X214876132Y-132752948D01*
X214634651Y-132688243D02*
X216187565Y-126892688D01*
X216187565Y-126892688D02*
X216429046Y-126957393D01*
D18*
X157270699Y-133087420D02*
X157114415Y-133973746D01*
D17*
X158145128Y-131007667D02*
X157832561Y-132780321D01*
D16*
X158650192Y-134650717D02*
X159039164Y-132444747D01*
D12*
X167304080Y-134348863D02*
X165925349Y-134105755D01*
D13*
X166441307Y-136938384D02*
X166875428Y-134476365D01*
D15*
X165369435Y-135530872D02*
X158771223Y-134367430D01*
D14*
X167651617Y-134105515D02*
X167477969Y-135090323D01*
X167477969Y-135090323D02*
X167281007Y-135055593D01*
X167261311Y-135052120D02*
X166870603Y-137267937D01*
X166890299Y-137271410D02*
X167087261Y-137306140D01*
X157189582Y-132971574D02*
X157386544Y-133006304D01*
X157416088Y-133011514D02*
X157805060Y-130805544D01*
X157775515Y-130800335D02*
X157578554Y-130765605D01*
X157641067Y-130411074D02*
X157578554Y-130765605D01*
X157015934Y-133956382D02*
X157189582Y-132971574D01*
X157641067Y-130411074D02*
X160871237Y-130980640D01*
X162727578Y-133237274D02*
X167651617Y-134105515D01*
X167026484Y-137650823D02*
X158754098Y-136192179D01*
X160871134Y-131002424D02*
G75*
G03X162727578Y-133237274I2169248J-86530D01*
G01*
X157015933Y-133956382D02*
G75*
G03X158754098Y-136192179I1986981J-248816D01*
G01*
X167087261Y-137306140D02*
X167026484Y-137650823D01*
D13*
X160407752Y-131326888D02*
G75*
G03X162264196Y-133561738I2169248J-86530D01*
G01*
D12*
X157803299Y-130642765D02*
X160462280Y-131111616D01*
D11*
X166864252Y-137419132D02*
X165485521Y-137176024D01*
X167298372Y-134957112D02*
X167419926Y-134267747D01*
X186972414Y-141033551D02*
X187211828Y-140375766D01*
X186117364Y-143382782D02*
X184801794Y-142903954D01*
D12*
X178370771Y-135135947D02*
X180907941Y-136059401D01*
D13*
X180816859Y-136261933D02*
G75*
G03X182257022Y-138785200I2121267J-461902D01*
G01*
D14*
X186356605Y-143310233D02*
X186236898Y-143639125D01*
X177019962Y-138262497D02*
G75*
G03X178343480Y-140766157I1913589J-590071D01*
G01*
X181329545Y-136022866D02*
G75*
G03X182769708Y-138546131I2121266J-461901D01*
G01*
X186236898Y-143639125D02*
X178343480Y-140766157D01*
X182769708Y-138546131D02*
X187468171Y-140256232D01*
X178251236Y-134879604D02*
X181333428Y-136001430D01*
X177019964Y-138262497D02*
X177361984Y-137322805D01*
X178251236Y-134879604D02*
X178128109Y-135217893D01*
X178316048Y-135286297D02*
X178128109Y-135217893D01*
X177578113Y-137401469D02*
X178344238Y-135296558D01*
X177361984Y-137322805D02*
X177549923Y-137391209D01*
X186168667Y-143241829D02*
X186356605Y-143310233D01*
X186919418Y-141120680D02*
X186149873Y-143234988D01*
X187126150Y-141195924D02*
X186938212Y-141127520D01*
X187468171Y-140256232D02*
X187126150Y-141195924D01*
D15*
X184973149Y-141263638D02*
X178677209Y-138972103D01*
D13*
X185784325Y-142835895D02*
X186639376Y-140486664D01*
D12*
X187083657Y-140435533D02*
X185768087Y-139956705D01*
D16*
X178508824Y-139230069D02*
X179274949Y-137125158D01*
D17*
X178644042Y-135554662D02*
X178028406Y-137246109D01*
D18*
X177421752Y-137450976D02*
X177113933Y-138296699D01*
D19*
X221940963Y-101528709D02*
X221872410Y-101140599D01*
X221664984Y-101454761D02*
X221859098Y-100730316D01*
X222043084Y-100779615D01*
X222079837Y-100826437D01*
X222093592Y-100867097D01*
X222098103Y-100942254D01*
X222070372Y-101045746D01*
X222028887Y-101108578D01*
X221996645Y-101136913D01*
X221941405Y-101159086D01*
X221757419Y-101109787D01*
X222434054Y-100884375D02*
X222526047Y-100909025D01*
X222562800Y-100955847D01*
X222590309Y-101037166D01*
X222576333Y-101181318D01*
X222511629Y-101422799D01*
X222451656Y-101554626D01*
X222387173Y-101611296D01*
X222331933Y-101633469D01*
X222239940Y-101608819D01*
X222203187Y-101561997D01*
X222175677Y-101480678D01*
X222189653Y-101336526D01*
X222254358Y-101095045D01*
X222314330Y-100963218D01*
X222378814Y-100906548D01*
X222434054Y-100884375D01*
X222802026Y-100982973D02*
X222722903Y-101738229D01*
X222953549Y-101245418D01*
X222906889Y-101787528D01*
X223215994Y-101093895D01*
X223458846Y-101935424D02*
X223182867Y-101861476D01*
X223320857Y-101898450D02*
X223514971Y-101174006D01*
X223441244Y-101265173D01*
X223376760Y-101321843D01*
X223321520Y-101344016D01*
X206698401Y-100008412D02*
X206666159Y-100036747D01*
X206587921Y-100052758D01*
X206541924Y-100040433D01*
X206482173Y-99987449D01*
X206454664Y-99906129D01*
X206450152Y-99830972D01*
X206464128Y-99686820D01*
X206491859Y-99583328D01*
X206551831Y-99451501D01*
X206593317Y-99388669D01*
X206657800Y-99331999D01*
X206736038Y-99315989D01*
X206782035Y-99328313D01*
X206841786Y-99381298D01*
X206855541Y-99421957D01*
X207173005Y-99433073D02*
X207264998Y-99457723D01*
X207301751Y-99504545D01*
X207329260Y-99585864D01*
X207315284Y-99730016D01*
X207250579Y-99971498D01*
X207190607Y-100103325D01*
X207126123Y-100159995D01*
X207070883Y-100182167D01*
X206978891Y-100157518D01*
X206942138Y-100110696D01*
X206914628Y-100029376D01*
X206928604Y-99885225D01*
X206993309Y-99643743D01*
X207053281Y-99511916D01*
X207117765Y-99455246D01*
X207173005Y-99433073D01*
X207622841Y-100330064D02*
X207392859Y-100268440D01*
X207586973Y-99543996D01*
X208120222Y-99945699D02*
X207990813Y-100428662D01*
X208079180Y-99638908D02*
X207825535Y-100125556D01*
X208124512Y-100205667D01*
X221233196Y-103976947D02*
X221164643Y-103588837D01*
X220957217Y-103902999D02*
X221151331Y-103178554D01*
X221335317Y-103227853D01*
X221372070Y-103274675D01*
X221385825Y-103315335D01*
X221390336Y-103390492D01*
X221362605Y-103493984D01*
X221321120Y-103556816D01*
X221288878Y-103585151D01*
X221233638Y-103607324D01*
X221049652Y-103558025D01*
X221726287Y-103332613D02*
X221818280Y-103357263D01*
X221855033Y-103404085D01*
X221882542Y-103485404D01*
X221868566Y-103629556D01*
X221803862Y-103871037D01*
X221743889Y-104002864D01*
X221679406Y-104059534D01*
X221624166Y-104081707D01*
X221532173Y-104057057D01*
X221495420Y-104010235D01*
X221467910Y-103928916D01*
X221481886Y-103784764D01*
X221546591Y-103543283D01*
X221606563Y-103411456D01*
X221671047Y-103354786D01*
X221726287Y-103332613D01*
X222094259Y-103431211D02*
X222015136Y-104186467D01*
X222245782Y-103693656D01*
X222199122Y-104235766D01*
X222508227Y-103542133D01*
X222650728Y-103654265D02*
X222682969Y-103625930D01*
X222738209Y-103603757D01*
X222853200Y-103634569D01*
X222889953Y-103681391D01*
X222903708Y-103722050D01*
X222908219Y-103797208D01*
X222889732Y-103866202D01*
X222839003Y-103963532D01*
X222452102Y-104303552D01*
X222751079Y-104383662D01*
X206026636Y-102515472D02*
X205994394Y-102543807D01*
X205916156Y-102559818D01*
X205870159Y-102547493D01*
X205810408Y-102494509D01*
X205782899Y-102413189D01*
X205778387Y-102338032D01*
X205792363Y-102193880D01*
X205820094Y-102090388D01*
X205880066Y-101958561D01*
X205921552Y-101895729D01*
X205986035Y-101839059D01*
X206064273Y-101823049D01*
X206110270Y-101835373D01*
X206170021Y-101888358D01*
X206183776Y-101929017D01*
X206501240Y-101940133D02*
X206593233Y-101964783D01*
X206629986Y-102011605D01*
X206657495Y-102092924D01*
X206643519Y-102237076D01*
X206578814Y-102478558D01*
X206518842Y-102610385D01*
X206454358Y-102667055D01*
X206399118Y-102689227D01*
X206307126Y-102664578D01*
X206270373Y-102617756D01*
X206242863Y-102536436D01*
X206256839Y-102392285D01*
X206321544Y-102150803D01*
X206381516Y-102018976D01*
X206446000Y-101962306D01*
X206501240Y-101940133D01*
X206951076Y-102837124D02*
X206721094Y-102775500D01*
X206915208Y-102051056D01*
X207536160Y-102217440D02*
X207306178Y-102155816D01*
X207190744Y-102494627D01*
X207222986Y-102466292D01*
X207278226Y-102444119D01*
X207393217Y-102474931D01*
X207429970Y-102521753D01*
X207443725Y-102562413D01*
X207448236Y-102637570D01*
X207402018Y-102810057D01*
X207360533Y-102872889D01*
X207328291Y-102901224D01*
X207273051Y-102923397D01*
X207158060Y-102892585D01*
X207121307Y-102845763D01*
X207107553Y-102805103D01*
X220561431Y-106484008D02*
X220492878Y-106095898D01*
X220285452Y-106410060D02*
X220479566Y-105685615D01*
X220663552Y-105734914D01*
X220700305Y-105781736D01*
X220714060Y-105822396D01*
X220718571Y-105897553D01*
X220690840Y-106001045D01*
X220649355Y-106063877D01*
X220617113Y-106092212D01*
X220561873Y-106114385D01*
X220377887Y-106065086D01*
X221054522Y-105839674D02*
X221146515Y-105864324D01*
X221183268Y-105911146D01*
X221210777Y-105992465D01*
X221196801Y-106136617D01*
X221132097Y-106378098D01*
X221072124Y-106509925D01*
X221007641Y-106566595D01*
X220952401Y-106588768D01*
X220860408Y-106564118D01*
X220823655Y-106517296D01*
X220796145Y-106435977D01*
X220810121Y-106291825D01*
X220874826Y-106050344D01*
X220934798Y-105918517D01*
X220999282Y-105861847D01*
X221054522Y-105839674D01*
X221422494Y-105938272D02*
X221343371Y-106693528D01*
X221574017Y-106200717D01*
X221527357Y-106742827D01*
X221836462Y-106049194D01*
X221974451Y-106086168D02*
X222273428Y-106166279D01*
X222038492Y-106399121D01*
X222107487Y-106417608D01*
X222144240Y-106464431D01*
X222157995Y-106505090D01*
X222162506Y-106580247D01*
X222116288Y-106752734D01*
X222074803Y-106815566D01*
X222042561Y-106843901D01*
X221987321Y-106866074D01*
X221849332Y-106829100D01*
X221812579Y-106782278D01*
X221798824Y-106741618D01*
X205795089Y-104713511D02*
X205854840Y-104766496D01*
X205868595Y-104807156D01*
X205873106Y-104882313D01*
X205845375Y-104985805D01*
X205803890Y-105048637D01*
X205771648Y-105076972D01*
X205716408Y-105099145D01*
X205532422Y-105049846D01*
X205726537Y-104325401D01*
X205887524Y-104368538D01*
X205924277Y-104415360D01*
X205938032Y-104456020D01*
X205942543Y-104531177D01*
X205924056Y-104600171D01*
X205882571Y-104663004D01*
X205850329Y-104691339D01*
X205795089Y-104713511D01*
X205634101Y-104670375D01*
X206168014Y-104517643D02*
X206200256Y-104489308D01*
X206255496Y-104467136D01*
X206370487Y-104497947D01*
X206407240Y-104544770D01*
X206420995Y-104585429D01*
X206425506Y-104660586D01*
X206407019Y-104729581D01*
X206356290Y-104826911D01*
X205969389Y-105166931D01*
X206268366Y-105247041D01*
X220436113Y-108607574D02*
X220495864Y-108660559D01*
X220509619Y-108701219D01*
X220514130Y-108776376D01*
X220486399Y-108879868D01*
X220444914Y-108942700D01*
X220412672Y-108971035D01*
X220357432Y-108993208D01*
X220173446Y-108943909D01*
X220367561Y-108219464D01*
X220528548Y-108262601D01*
X220565301Y-108309423D01*
X220579056Y-108350083D01*
X220583567Y-108425240D01*
X220565080Y-108494234D01*
X220523595Y-108557067D01*
X220491353Y-108585402D01*
X220436113Y-108607574D01*
X220275125Y-108564438D01*
X220992803Y-108645817D02*
X220863393Y-109128780D01*
X220951760Y-108339026D02*
X220698116Y-108825674D01*
X220997093Y-108905785D01*
X219762277Y-111122362D02*
X219822028Y-111175347D01*
X219835783Y-111216007D01*
X219840294Y-111291164D01*
X219812563Y-111394656D01*
X219771078Y-111457488D01*
X219738836Y-111485823D01*
X219683596Y-111507996D01*
X219499610Y-111458697D01*
X219693725Y-110734252D01*
X219854712Y-110777389D01*
X219891465Y-110824211D01*
X219905220Y-110864871D01*
X219909731Y-110940028D01*
X219891244Y-111009022D01*
X219849759Y-111071855D01*
X219817517Y-111100190D01*
X219762277Y-111122362D01*
X219601289Y-111079226D01*
X220406670Y-110925286D02*
X220176687Y-110863662D01*
X220061254Y-111202473D01*
X220093496Y-111174138D01*
X220148736Y-111151965D01*
X220263727Y-111182777D01*
X220300480Y-111229599D01*
X220314234Y-111270259D01*
X220318746Y-111345416D01*
X220272528Y-111517903D01*
X220231043Y-111580735D01*
X220198801Y-111609070D01*
X220143561Y-111631243D01*
X220028570Y-111600431D01*
X219991817Y-111553609D01*
X219978062Y-111512949D01*
X205038508Y-107150740D02*
X205098259Y-107203725D01*
X205112014Y-107244385D01*
X205116525Y-107319542D01*
X205088794Y-107423034D01*
X205047309Y-107485866D01*
X205015067Y-107514201D01*
X204959827Y-107536374D01*
X204775841Y-107487075D01*
X204969956Y-106762630D01*
X205130943Y-106805767D01*
X205167696Y-106852589D01*
X205181451Y-106893249D01*
X205185962Y-106968406D01*
X205167475Y-107037400D01*
X205125990Y-107100233D01*
X205093748Y-107128568D01*
X205038508Y-107150740D01*
X204877520Y-107107604D01*
X205659903Y-106947501D02*
X205567910Y-106922852D01*
X205512670Y-106945024D01*
X205480428Y-106973359D01*
X205406701Y-107064527D01*
X205346728Y-107196354D01*
X205272780Y-107472333D01*
X205277291Y-107547490D01*
X205291046Y-107588149D01*
X205327799Y-107634971D01*
X205419792Y-107659621D01*
X205475032Y-107637448D01*
X205507274Y-107609113D01*
X205548759Y-107546281D01*
X205594977Y-107373794D01*
X205590465Y-107298637D01*
X205576711Y-107257977D01*
X205539958Y-107211155D01*
X205447965Y-107186506D01*
X205392725Y-107208678D01*
X205360483Y-107237013D01*
X205318998Y-107299846D01*
X209373710Y-90217205D02*
X209341468Y-90245540D01*
X209263230Y-90261551D01*
X209217233Y-90249226D01*
X209157482Y-90196242D01*
X209129973Y-90114922D01*
X209125461Y-90039765D01*
X209139437Y-89895613D01*
X209167168Y-89792121D01*
X209227140Y-89660294D01*
X209268626Y-89597462D01*
X209333109Y-89540792D01*
X209411347Y-89524782D01*
X209457344Y-89537106D01*
X209517095Y-89590091D01*
X209530850Y-89630750D01*
X209848314Y-89641866D02*
X209940307Y-89666516D01*
X209977060Y-89713338D01*
X210004569Y-89794657D01*
X209990593Y-89938809D01*
X209925888Y-90180291D01*
X209865916Y-90312118D01*
X209801432Y-90368788D01*
X209746192Y-90390960D01*
X209654200Y-90366311D01*
X209617447Y-90319489D01*
X209589937Y-90238169D01*
X209603913Y-90094018D01*
X209668618Y-89852536D01*
X209728590Y-89720709D01*
X209793074Y-89664039D01*
X209848314Y-89641866D01*
X210298150Y-90538857D02*
X210068168Y-90477233D01*
X210262282Y-89752789D01*
X210745245Y-89882198D02*
X210791241Y-89894523D01*
X210827994Y-89941345D01*
X210841749Y-89982005D01*
X210846260Y-90057162D01*
X210832284Y-90201314D01*
X210786067Y-90373800D01*
X210726094Y-90505627D01*
X210684609Y-90568460D01*
X210652367Y-90596795D01*
X210597127Y-90618967D01*
X210551131Y-90606643D01*
X210514378Y-90559821D01*
X210500623Y-90519161D01*
X210496112Y-90444004D01*
X210510088Y-90299852D01*
X210556305Y-90127365D01*
X210616278Y-89995538D01*
X210657763Y-89932706D01*
X210690005Y-89904371D01*
X210745245Y-89882198D01*
X224149216Y-94194630D02*
X224208968Y-94247614D01*
X224323959Y-94278426D01*
X224379199Y-94256253D01*
X224411441Y-94227918D01*
X224452926Y-94165086D01*
X224471413Y-94096091D01*
X224466902Y-94020934D01*
X224453147Y-93980275D01*
X224416394Y-93933453D01*
X224333645Y-93874306D01*
X224296892Y-93827484D01*
X224283137Y-93786824D01*
X224278626Y-93711667D01*
X224297113Y-93642672D01*
X224338598Y-93579840D01*
X224370840Y-93551505D01*
X224426080Y-93529332D01*
X224541071Y-93560144D01*
X224600822Y-93613128D01*
X224622936Y-94358537D02*
X224817050Y-93634092D01*
X224932041Y-93664904D01*
X224991792Y-93717889D01*
X225019302Y-93799208D01*
X225023813Y-93874365D01*
X225009837Y-94018517D01*
X224982106Y-94122009D01*
X224922134Y-94253836D01*
X224880649Y-94316668D01*
X224816165Y-94373338D01*
X224737927Y-94389349D01*
X224622936Y-94358537D01*
X225138362Y-94274800D02*
X225368344Y-94336423D01*
X225036904Y-94469459D02*
X225392006Y-93788151D01*
X225358879Y-94555732D01*
X208769265Y-92666211D02*
X208737023Y-92694546D01*
X208658785Y-92710557D01*
X208612788Y-92698232D01*
X208553037Y-92645248D01*
X208525528Y-92563928D01*
X208521016Y-92488771D01*
X208534992Y-92344619D01*
X208562723Y-92241127D01*
X208622695Y-92109300D01*
X208664181Y-92046468D01*
X208728664Y-91989798D01*
X208806902Y-91973788D01*
X208852899Y-91986112D01*
X208912650Y-92039097D01*
X208926405Y-92079756D01*
X209243869Y-92090872D02*
X209335862Y-92115522D01*
X209372615Y-92162344D01*
X209400124Y-92243663D01*
X209386148Y-92387815D01*
X209321443Y-92629297D01*
X209261471Y-92761124D01*
X209196987Y-92817794D01*
X209141747Y-92839966D01*
X209049755Y-92815317D01*
X209013002Y-92768495D01*
X208985492Y-92687175D01*
X208999468Y-92543024D01*
X209064173Y-92301542D01*
X209124145Y-92169715D01*
X209188629Y-92113045D01*
X209243869Y-92090872D01*
X209693705Y-92987863D02*
X209463723Y-92926239D01*
X209657837Y-92201795D01*
X210107673Y-93098785D02*
X209831695Y-93024837D01*
X209969684Y-93061811D02*
X210163798Y-92337367D01*
X210090071Y-92428534D01*
X210025588Y-92485204D01*
X209970348Y-92507377D01*
X223503315Y-96651163D02*
X223563066Y-96704147D01*
X223678057Y-96734959D01*
X223733297Y-96712787D01*
X223765539Y-96684452D01*
X223807024Y-96621619D01*
X223825511Y-96552625D01*
X223821000Y-96477468D01*
X223807245Y-96436808D01*
X223770492Y-96389986D01*
X223687743Y-96330839D01*
X223650990Y-96284017D01*
X223637235Y-96243357D01*
X223632724Y-96168200D01*
X223651211Y-96099205D01*
X223692696Y-96036373D01*
X223724938Y-96008038D01*
X223780178Y-95985865D01*
X223895169Y-96016677D01*
X223954921Y-96069662D01*
X224271500Y-96820023D02*
X224239258Y-96848358D01*
X224161020Y-96864369D01*
X224115023Y-96852044D01*
X224055272Y-96799060D01*
X224027763Y-96717740D01*
X224023252Y-96642583D01*
X224037228Y-96498431D01*
X224064958Y-96394939D01*
X224124931Y-96263112D01*
X224166416Y-96200280D01*
X224230899Y-96143610D01*
X224309138Y-96127600D01*
X224355134Y-96139924D01*
X224414885Y-96192909D01*
X224428640Y-96233569D01*
X224689979Y-97006103D02*
X224459997Y-96944479D01*
X224654111Y-96220035D01*
X208063568Y-95106722D02*
X208031326Y-95135057D01*
X207953088Y-95151068D01*
X207907091Y-95138743D01*
X207847340Y-95085759D01*
X207819831Y-95004439D01*
X207815319Y-94929282D01*
X207829295Y-94785130D01*
X207857026Y-94681638D01*
X207916998Y-94549811D01*
X207958484Y-94486979D01*
X208022967Y-94430309D01*
X208101205Y-94414299D01*
X208147202Y-94426623D01*
X208206953Y-94479608D01*
X208220708Y-94520267D01*
X208538172Y-94531383D02*
X208630165Y-94556033D01*
X208666918Y-94602855D01*
X208694427Y-94684174D01*
X208680451Y-94828326D01*
X208615746Y-95069808D01*
X208555774Y-95201635D01*
X208491290Y-95258305D01*
X208436050Y-95280477D01*
X208344058Y-95255828D01*
X208307305Y-95209006D01*
X208279795Y-95127686D01*
X208293771Y-94983535D01*
X208358476Y-94742053D01*
X208418448Y-94610226D01*
X208482932Y-94553556D01*
X208538172Y-94531383D01*
X208988008Y-95428374D02*
X208758026Y-95366750D01*
X208952140Y-94642306D01*
X209301625Y-94809898D02*
X209333866Y-94781563D01*
X209389106Y-94759391D01*
X209504098Y-94790202D01*
X209540851Y-94837024D01*
X209554605Y-94877684D01*
X209559116Y-94952841D01*
X209540629Y-95021836D01*
X209489901Y-95119166D01*
X209102999Y-95459186D01*
X209401976Y-95539296D01*
X222540232Y-99099022D02*
X222471679Y-98710912D01*
X222264253Y-99025074D02*
X222458367Y-98300629D01*
X222642353Y-98349928D01*
X222679106Y-98396750D01*
X222692861Y-98437410D01*
X222697372Y-98512567D01*
X222669641Y-98616059D01*
X222628156Y-98678891D01*
X222595914Y-98707226D01*
X222540674Y-98729399D01*
X222356688Y-98680100D01*
X223033323Y-98454688D02*
X223125316Y-98479338D01*
X223162069Y-98526160D01*
X223189578Y-98607479D01*
X223175602Y-98751631D01*
X223110898Y-98993112D01*
X223050925Y-99124939D01*
X222986442Y-99181609D01*
X222931202Y-99203782D01*
X222839209Y-99179132D01*
X222802456Y-99132310D01*
X222774946Y-99050991D01*
X222788922Y-98906839D01*
X222853627Y-98665358D01*
X222913599Y-98533531D01*
X222978083Y-98476861D01*
X223033323Y-98454688D01*
X223401295Y-98553286D02*
X223322172Y-99308542D01*
X223552818Y-98815731D01*
X223506158Y-99357841D01*
X223815263Y-98664208D01*
X224091242Y-98738157D02*
X224137238Y-98750481D01*
X224173991Y-98797303D01*
X224187746Y-98837963D01*
X224192257Y-98913120D01*
X224178281Y-99057272D01*
X224132063Y-99229759D01*
X224072091Y-99361586D01*
X224030606Y-99424418D01*
X223998364Y-99452753D01*
X223943124Y-99474926D01*
X223897127Y-99462601D01*
X223860375Y-99415779D01*
X223846620Y-99375119D01*
X223842109Y-99299962D01*
X223856085Y-99155810D01*
X223902302Y-98983324D01*
X223962275Y-98851497D01*
X224003760Y-98788664D01*
X224036002Y-98760329D01*
X224091242Y-98738157D01*
X207297152Y-97580656D02*
X207264910Y-97608991D01*
X207186672Y-97625002D01*
X207140675Y-97612677D01*
X207080924Y-97559693D01*
X207053415Y-97478373D01*
X207048903Y-97403216D01*
X207062879Y-97259064D01*
X207090610Y-97155572D01*
X207150582Y-97023745D01*
X207192068Y-96960913D01*
X207256551Y-96904243D01*
X207334789Y-96888233D01*
X207380786Y-96900557D01*
X207440537Y-96953542D01*
X207454292Y-96994201D01*
X207771756Y-97005317D02*
X207863749Y-97029967D01*
X207900502Y-97076789D01*
X207928011Y-97158108D01*
X207914035Y-97302260D01*
X207849330Y-97543742D01*
X207789358Y-97675569D01*
X207724874Y-97732239D01*
X207669634Y-97754411D01*
X207577642Y-97729762D01*
X207540889Y-97682940D01*
X207513379Y-97601620D01*
X207527355Y-97457469D01*
X207592060Y-97215987D01*
X207652032Y-97084160D01*
X207716516Y-97027490D01*
X207771756Y-97005317D01*
X208221592Y-97902308D02*
X207991610Y-97840684D01*
X208185724Y-97116240D01*
X208530698Y-97208675D02*
X208829675Y-97288786D01*
X208594739Y-97521628D01*
X208663733Y-97540115D01*
X208700486Y-97586937D01*
X208714241Y-97627597D01*
X208718752Y-97702754D01*
X208672534Y-97875241D01*
X208631049Y-97938073D01*
X208598807Y-97966408D01*
X208543567Y-97988581D01*
X208405578Y-97951607D01*
X208368825Y-97904785D01*
X208355070Y-97864125D01*
X225184292Y-91205608D02*
X225147539Y-91158786D01*
X225078544Y-91140298D01*
X225000306Y-91156309D01*
X224935822Y-91212979D01*
X224894337Y-91275811D01*
X224834365Y-91407638D01*
X224806634Y-91511130D01*
X224792658Y-91655282D01*
X224797169Y-91730439D01*
X224824679Y-91811758D01*
X224884430Y-91864743D01*
X224930426Y-91877068D01*
X225008665Y-91861057D01*
X225040906Y-91832722D01*
X225105611Y-91591241D01*
X225013618Y-91566591D01*
X225229403Y-91957178D02*
X225423518Y-91232734D01*
X225505382Y-92031126D01*
X225699497Y-91306682D01*
X225735365Y-92092750D02*
X225929479Y-91368306D01*
X226044470Y-91399117D01*
X226104221Y-91452102D01*
X226131731Y-91533421D01*
X226136242Y-91608578D01*
X226122266Y-91752730D01*
X226094535Y-91856222D01*
X226034563Y-91988049D01*
X225993078Y-92050882D01*
X225928594Y-92107552D01*
X225850356Y-92123562D01*
X225735365Y-92092750D01*
X210274619Y-87107858D02*
X210241492Y-87875439D01*
X210596594Y-87194131D01*
X210857933Y-87966665D02*
X210825691Y-87995000D01*
X210747453Y-88011011D01*
X210701457Y-87998686D01*
X210641705Y-87945702D01*
X210614196Y-87864382D01*
X210609685Y-87789225D01*
X210623661Y-87645073D01*
X210651391Y-87541581D01*
X210711364Y-87409754D01*
X210752849Y-87346922D01*
X210817333Y-87290252D01*
X210895571Y-87274242D01*
X210941567Y-87286566D01*
X211001319Y-87339551D01*
X211015073Y-87380210D01*
X211340896Y-88096075D02*
X211308654Y-88124410D01*
X211230416Y-88140420D01*
X211184420Y-88128095D01*
X211124668Y-88075111D01*
X211097159Y-87993792D01*
X211092648Y-87918635D01*
X211106624Y-87774483D01*
X211134354Y-87670991D01*
X211194327Y-87539164D01*
X211235812Y-87476331D01*
X211300296Y-87419661D01*
X211378534Y-87403651D01*
X211424530Y-87415976D01*
X211484281Y-87468960D01*
X211498036Y-87509620D01*
X225903029Y-88768591D02*
X225866276Y-88721769D01*
X225797281Y-88703281D01*
X225719043Y-88719292D01*
X225654559Y-88775962D01*
X225613074Y-88838794D01*
X225553102Y-88970621D01*
X225525371Y-89074113D01*
X225511395Y-89218265D01*
X225515906Y-89293422D01*
X225543416Y-89374741D01*
X225603167Y-89427726D01*
X225649163Y-89440051D01*
X225727402Y-89424040D01*
X225759643Y-89395705D01*
X225824348Y-89154224D01*
X225732355Y-89129574D01*
X225948140Y-89520161D02*
X226142255Y-88795717D01*
X226224119Y-89594109D01*
X226418234Y-88869665D01*
X226454102Y-89655733D02*
X226648216Y-88931289D01*
X226763207Y-88962100D01*
X226822958Y-89015085D01*
X226850468Y-89096404D01*
X226854979Y-89171561D01*
X226841003Y-89315713D01*
X226813272Y-89419205D01*
X226753300Y-89551032D01*
X226711815Y-89613865D01*
X226647331Y-89670535D01*
X226569093Y-89686545D01*
X226454102Y-89655733D01*
X211100940Y-85541866D02*
X211032388Y-85153756D01*
X210824961Y-85467918D02*
X211019076Y-84743474D01*
X211203062Y-84792772D01*
X211239814Y-84839594D01*
X211253569Y-84880254D01*
X211258080Y-84955411D01*
X211230350Y-85058903D01*
X211188864Y-85121736D01*
X211156623Y-85150071D01*
X211101383Y-85172243D01*
X210917397Y-85122944D01*
X211294170Y-85556668D02*
X211353921Y-85609652D01*
X211468912Y-85640464D01*
X211524152Y-85618291D01*
X211556394Y-85589956D01*
X211597879Y-85527124D01*
X211616366Y-85458129D01*
X211611855Y-85382972D01*
X211598100Y-85342313D01*
X211561347Y-85295490D01*
X211478598Y-85236344D01*
X211441845Y-85189522D01*
X211428090Y-85148862D01*
X211423579Y-85073705D01*
X211442066Y-85004710D01*
X211483552Y-84941878D01*
X211515793Y-84913543D01*
X211571033Y-84891370D01*
X211686024Y-84922182D01*
X211745776Y-84975166D01*
X211893009Y-84977643D02*
X212168987Y-85051591D01*
X211836884Y-85739062D02*
X212030998Y-85014617D01*
X225870073Y-86791478D02*
X226064187Y-86067034D01*
X226179178Y-86097845D01*
X226238929Y-86150830D01*
X226266439Y-86232149D01*
X226270950Y-86307306D01*
X226256974Y-86451458D01*
X226229243Y-86554950D01*
X226169271Y-86686777D01*
X226127785Y-86749610D01*
X226063302Y-86806280D01*
X225985064Y-86822290D01*
X225870073Y-86791478D01*
X226385498Y-86707741D02*
X226615481Y-86769365D01*
X226284041Y-86902400D02*
X226639143Y-86221093D01*
X226606016Y-86988674D01*
X226892123Y-86288879D02*
X227168102Y-86362827D01*
X226835998Y-87050297D02*
X227030113Y-86325853D01*
X227167438Y-86917261D02*
X227397421Y-86978885D01*
X227065981Y-87111921D02*
X227421083Y-86430613D01*
X227387956Y-87198194D01*
X211856154Y-82309401D02*
X211819401Y-82262579D01*
X211750406Y-82244091D01*
X211672168Y-82260102D01*
X211607684Y-82316772D01*
X211566199Y-82379604D01*
X211506227Y-82511431D01*
X211478496Y-82614923D01*
X211464520Y-82759075D01*
X211469031Y-82834232D01*
X211496541Y-82915551D01*
X211556292Y-82968536D01*
X211602288Y-82980861D01*
X211680527Y-82964850D01*
X211712768Y-82936515D01*
X211777473Y-82695034D01*
X211685480Y-82670384D01*
X211901265Y-83060971D02*
X212095380Y-82336527D01*
X212177244Y-83134919D01*
X212371359Y-82410475D01*
X212407227Y-83196543D02*
X212601341Y-82472099D01*
X212716332Y-82502910D01*
X212776083Y-82555895D01*
X212803593Y-82637214D01*
X212808104Y-82712371D01*
X212794128Y-82856523D01*
X212766397Y-82960015D01*
X212706425Y-83091842D01*
X212664940Y-83154675D01*
X212600456Y-83211345D01*
X212522218Y-83227355D01*
X212407227Y-83196543D01*
X227083224Y-84499363D02*
X226853241Y-84437740D01*
X227047356Y-83713296D01*
X227345890Y-84163029D02*
X227506878Y-84206166D01*
X227474194Y-84604124D02*
X227244211Y-84542500D01*
X227438326Y-83818056D01*
X227668308Y-83879679D01*
X227681178Y-84659585D02*
X227875292Y-83935140D01*
X227990283Y-83965952D01*
X228050034Y-84018937D01*
X228077544Y-84100256D01*
X228082055Y-84175413D01*
X228068079Y-84319565D01*
X228040348Y-84423057D01*
X227980376Y-84554884D01*
X227938891Y-84617716D01*
X227874407Y-84674386D01*
X227796169Y-84690397D01*
X227681178Y-84659585D01*
X212363182Y-80555139D02*
X212294629Y-80167029D01*
X212087203Y-80481191D02*
X212281317Y-79756746D01*
X212465303Y-79806045D01*
X212502056Y-79852867D01*
X212515810Y-79893527D01*
X212520322Y-79968684D01*
X212492591Y-80072176D01*
X212451106Y-80135009D01*
X212418864Y-80163344D01*
X212363624Y-80185516D01*
X212179638Y-80136217D01*
X212602629Y-80397454D02*
X212832611Y-80459077D01*
X212501171Y-80592113D02*
X212856273Y-79910805D01*
X212823146Y-80678386D01*
X213132252Y-79984754D02*
X213053129Y-80740010D01*
X213283775Y-80247199D01*
X213237114Y-80789309D01*
X213546220Y-80095676D01*
D14*
X213927959Y-122140848D02*
X214075855Y-121588890D01*
X214967833Y-122123688D02*
X214001907Y-121864869D01*
X215275951Y-120973776D02*
X214729713Y-121172504D01*
X215128054Y-121525734D02*
X214162128Y-121266915D01*
X214260726Y-120898943D01*
X214331372Y-120819275D01*
X214389693Y-120785603D01*
X214494011Y-120764256D01*
X214632000Y-120801230D01*
X214711668Y-120871876D01*
X214745340Y-120930197D01*
X214766687Y-121034515D01*
X214668089Y-121402487D01*
X215534770Y-120007850D02*
X214988532Y-120206578D01*
X215386873Y-120559808D02*
X214420947Y-120300989D01*
X214519545Y-119933017D01*
X214590191Y-119853349D01*
X214648512Y-119819677D01*
X214752830Y-119798330D01*
X214890819Y-119835304D01*
X214970487Y-119905950D01*
X215004159Y-119964271D01*
X215025506Y-120068589D01*
X214926908Y-120436561D01*
X215587371Y-119627554D02*
X215670342Y-119501889D01*
X215731965Y-119271907D01*
X215710618Y-119167589D01*
X215676946Y-119109268D01*
X215597278Y-119038622D01*
X215505285Y-119013973D01*
X215400968Y-119035320D01*
X215342646Y-119068991D01*
X215272000Y-119148660D01*
X215176705Y-119320321D01*
X215106059Y-119399989D01*
X215047738Y-119433661D01*
X214943420Y-119455008D01*
X214851427Y-119430358D01*
X214771759Y-119359712D01*
X214738087Y-119301391D01*
X214716740Y-119197074D01*
X214778364Y-118967091D01*
X214861335Y-118841427D01*
X217162540Y-131763376D02*
X216616302Y-131962104D01*
X217014643Y-132315333D02*
X216048718Y-132056514D01*
X216147315Y-131688542D01*
X216217961Y-131608874D01*
X216276282Y-131575202D01*
X216380600Y-131553855D01*
X216518590Y-131590830D01*
X216598258Y-131661475D01*
X216631930Y-131719797D01*
X216653277Y-131824114D01*
X216554679Y-132192086D01*
X216767501Y-131213835D02*
X216853774Y-130891860D01*
X217396710Y-130889443D02*
X217273463Y-131349407D01*
X216307537Y-131090588D01*
X216430784Y-130630624D01*
X217449311Y-130509146D02*
X217532282Y-130383482D01*
X217593905Y-130153499D01*
X217572558Y-130049182D01*
X217538886Y-129990860D01*
X217459218Y-129920214D01*
X217367225Y-129895565D01*
X217262908Y-129916912D01*
X217204586Y-129950584D01*
X217133940Y-130030252D01*
X217038645Y-130201913D01*
X216967999Y-130281581D01*
X216909678Y-130315253D01*
X216805360Y-130336600D01*
X216713367Y-130311951D01*
X216633699Y-130241305D01*
X216600028Y-130182984D01*
X216578680Y-130078666D01*
X216640304Y-129848684D01*
X216723275Y-129723019D01*
X217248165Y-129419973D02*
X217334438Y-129097998D01*
X217877374Y-129095580D02*
X217754126Y-129555545D01*
X216788201Y-129296726D01*
X216911448Y-128836761D01*
X216985396Y-128560783D02*
X217133293Y-128008825D01*
X218025270Y-128543623D02*
X217059344Y-128284804D01*
M02*
