G04 #@! TF.GenerationSoftware,KiCad,Pcbnew,(5.1.2)-1*
G04 #@! TF.CreationDate,2019-06-14T17:52:14+09:00*
G04 #@! TF.ProjectId,adelie,6164656c-6965-42e6-9b69-6361645f7063,rev?*
G04 #@! TF.SameCoordinates,Original*
G04 #@! TF.FileFunction,Profile,NP*
%FSLAX46Y46*%
G04 Gerber Fmt 4.6, Leading zero omitted, Abs format (unit mm)*
G04 Created by KiCad (PCBNEW (5.1.2)-1) date 2019-06-14 17:52:14*
%MOMM*%
%LPD*%
G04 APERTURE LIST*
%ADD10C,0.050000*%
G04 APERTURE END LIST*
D10*
X205466040Y-157035540D02*
X198617040Y-153080736D01*
X123615040Y-125200540D02*
X123615040Y-136500540D01*
X87007080Y-123700540D02*
X122115040Y-123700540D01*
X85507040Y-68050545D02*
X85507040Y-122200500D01*
X128458763Y-66550582D02*
X87007045Y-66550540D01*
X131235040Y-55457517D02*
X129946040Y-65245540D01*
X154005671Y-56941862D02*
X132918167Y-54165540D01*
X156092040Y-53857169D02*
X155666040Y-55779211D01*
X173549943Y-56190540D02*
X157881178Y-52717540D01*
X174049040Y-60872406D02*
X174690040Y-57979338D01*
X231710481Y-77800540D02*
X175125189Y-62645540D01*
X216341305Y-141096655D02*
X232771305Y-79637491D01*
X207516122Y-156487395D02*
X216191014Y-141459121D01*
X216341305Y-141096655D02*
G75*
G02X216191014Y-141459121I-1449290J388533D01*
G01*
X207516122Y-156487395D02*
G75*
G02X205466040Y-157035540I-1299083J750854D01*
G01*
X122115040Y-123700540D02*
G75*
G02X123615040Y-125200540I0J-1500000D01*
G01*
X125115080Y-138000580D02*
G75*
G02X123615040Y-136500540I0J1500040D01*
G01*
X87007080Y-123700540D02*
G75*
G02X85507040Y-122200500I0J1500040D01*
G01*
X85507040Y-68050545D02*
G75*
G02X87007045Y-66550540I1500005J0D01*
G01*
X129946040Y-65245540D02*
G75*
G02X128458763Y-66550582I-1487277J194958D01*
G01*
X131235040Y-55457517D02*
G75*
G02X132918167Y-54165540I1487128J-195022D01*
G01*
X155666041Y-55779212D02*
G75*
G02X154005671Y-56941862I-1464371J324349D01*
G01*
X156092041Y-53857169D02*
G75*
G02X157881178Y-52717540I1464138J-324370D01*
G01*
X175125189Y-62645540D02*
G75*
G02X174049040Y-60872406I388850J1449135D01*
G01*
X173549943Y-56190540D02*
G75*
G02X174690040Y-57979338I-324902J-1464799D01*
G01*
X231710481Y-77800540D02*
G75*
G02X232771305Y-79637491I-388175J-1448952D01*
G01*
X142353041Y-138000540D02*
X125118588Y-138000100D01*
X142353041Y-138000540D02*
G75*
G02X198617040Y-153080736I0J-112500195D01*
G01*
M02*
