M48
; DRILL file {KiCad (5.1.2)-1} date 2019/06/14 17:52:19
; FORMAT={-:-/ absolute / inch / decimal}
; #@! TF.CreationDate,2019-06-14T17:52:19+09:00
; #@! TF.GenerationSoftware,Kicad,Pcbnew,(5.1.2)-1
; #@! TF.FileFunction,Plated,1,2,PTH
FMAT,2
INCH
T1C0.0157
T2C0.0320
T3C0.0394
T4C0.0512
T5C0.0866
%
G90
G05
T1
X3.5177Y-3.4732
X3.5381Y-2.7233
X3.6046Y-3.1326
X3.6174Y-3.2201
X3.7388Y-4.2017
X3.8655Y-3.2014
X3.8659Y-3.1326
X3.9009Y-4.1702
X4.017Y-2.9537
X4.017Y-4.453
X4.0171Y-3.7031
X4.2698Y-3.4732
X4.2881Y-2.7232
X4.3546Y-3.1326
X4.3665Y-3.2201
X4.4884Y-4.2018
X4.6079Y-3.1326
X4.608Y-3.2201
X4.6514Y-4.1703
X4.7669Y-2.9537
X4.767Y-3.703
X4.7671Y-4.4529
X4.8526Y-2.9333
X4.8949Y-2.9333
X4.9325Y-2.8534
X4.9746Y-2.8535
X4.9775Y-4.7749
X5.0275Y-4.5964
X5.0529Y-4.072
X5.1418Y-5.0712
X5.1664Y-4.6534
X5.1665Y-4.7132
X5.3552Y-2.6638
X5.4458Y-2.8228
X5.4812Y-3.7495
X5.5356Y-3.0056
X5.58Y-4.0269
X5.5871Y-2.8141
X5.5932Y-2.722
X5.6771Y-2.2623
X5.6779Y-3.283
X5.7046Y-5.1002
X5.7211Y-5.2595
X5.7393Y-4.7746
X5.7759Y-2.5396
X5.7891Y-4.5968
X5.8732Y-3.9971
X5.9336Y-4.6396
X5.9341Y-4.7271
X6.1536Y-5.115
X6.2851Y-3.6848
X6.3052Y-2.5984
X6.3782Y-2.7832
X6.3966Y-3.992
X6.4472Y-2.9532
X6.5115Y-2.7764
X6.5186Y-2.7117
X6.5591Y-3.2605
X6.5808Y-4.402
X6.6528Y-2.2645
X6.6717Y-4.644
X6.6958Y-4.8229
X6.6976Y-5.3695
X6.7067Y-5.2212
X6.7212Y-2.5285
X6.8394Y-4.8107
X6.8475Y-4.7649
X6.9835Y-4.0971
X6.9969Y-5.2304
X7.0753Y-3.0184
X7.1017Y-4.4187
X7.1434Y-3.2121
X7.1775Y-3.373
X7.2596Y-3.199
X7.2822Y-3.144
X7.2958Y-3.6945
X7.4234Y-2.7005
X7.468Y-5.6152
X7.4895Y-2.9704
X7.5086Y-5.4835
X7.6438Y-4.9088
X7.6521Y-5.0895
X7.6873Y-3.9631
X7.6894Y-4.6845
X7.7076Y-4.2917
X7.7265Y-5.5877
X7.7614Y-5.0263
X7.7655Y-4.7819
X7.7655Y-4.9374
X7.7909Y-3.2185
X7.7943Y-4.8107
X7.864Y-3.4023
X7.9017Y-3.5671
X7.9244Y-5.9948
X7.9427Y-3.4318
X8.0112Y-3.34
X8.1474Y-2.8945
X8.2141Y-3.1644
X8.2265Y-5.8765
X8.3557Y-4.276
X8.4229Y-4.3039
X8.4672Y-4.2751
X8.5187Y-4.1993
X8.5464Y-4.0961
X8.571Y-4.0047
X8.583Y-4.4202
X8.5983Y-3.9029
X8.6197Y-4.3612
X8.6242Y-3.8064
X8.625Y-4.1993
X8.6501Y-3.7098
X8.6527Y-4.0961
X8.6758Y-3.6132
X8.6771Y-4.0047
X8.7045Y-3.9029
X8.7304Y-3.8064
X8.7531Y-3.3258
X8.7564Y-3.7098
X8.7798Y-3.2268
X8.7823Y-3.6131
X8.8595Y-3.3258
X8.8859Y-3.2268
T2
X8.1111Y-4.2813
X8.137Y-4.1847
X8.1629Y-4.0881
X8.1745Y-4.2465
X8.1887Y-3.9915
X8.2004Y-4.1499
X8.2146Y-3.8949
X8.2262Y-4.0533
X8.2405Y-3.7983
X8.2521Y-3.9567
X8.2664Y-3.7017
X8.278Y-3.8602
X8.2923Y-3.6052
X8.3039Y-3.7636
X8.3181Y-3.5086
X8.3298Y-3.667
X8.344Y-3.412
X8.3556Y-3.5704
X8.3699Y-3.3154
X8.3815Y-3.4738
X8.3958Y-3.2188
X8.4074Y-3.3772
X8.4333Y-3.2806
X8.4592Y-3.184
X8.6906Y-4.4366
X8.7165Y-4.34
X8.7424Y-4.2434
X8.7533Y-4.4016
X8.7683Y-4.1468
X8.7792Y-4.305
X8.7942Y-4.0502
X8.805Y-4.2084
X8.8201Y-3.9536
X8.8309Y-4.1118
X8.8459Y-3.857
X8.8568Y-4.0152
X8.8718Y-3.7604
X8.8827Y-3.9186
X8.8977Y-3.6639
X8.9086Y-3.8221
X8.9236Y-3.5673
X8.9344Y-3.7255
X8.9495Y-3.4707
X8.9603Y-3.6289
X8.9753Y-3.3741
X8.9862Y-3.5323
X9.0121Y-3.4357
X9.038Y-3.3391
X8.248Y-4.433
X8.3446Y-4.4589
X8.4412Y-4.4848
X8.5378Y-4.5106
T4
X8.5142Y-5.2513
X8.5804Y-5.0041
T5
X8.4514Y-5.4001
X7.9131Y-5.0897
T3
G00X8.256Y-4.7371
M15
G01X8.237Y-4.732
M16
G05
G00X8.2809Y-4.644
M15
G01X8.2619Y-4.6389
M16
G05
G00X8.2952Y-4.819
M15
G01X8.2762Y-4.8139
M16
G05
G00X8.3558Y-4.5927
M15
G01X8.3368Y-4.5876
M16
G05
G00X8.4473Y-4.8597
M15
G01X8.4283Y-4.8546
M16
G05
G00X8.5079Y-4.6335
M15
G01X8.4889Y-4.6284
M16
G05
G00X8.5614Y-4.8903
M15
G01X8.5424Y-4.8852
M16
G05
G00X8.622Y-4.664
M15
G01X8.603Y-4.6589
M16
G05
T0
M30
