  0
SECTION
  2
HEADER
  9
$ANGBASE
  50
0.0
  9
$ANGDIR
  70
  1
  9
$MEASUREMENT
  70
0
  0
ENDSEC
  0
SECTION
  2
TABLES
  0
TABLE
  2
LTYPE
  70
4
  0
LTYPE
  5
40F
  2
CONTINUOUS
  70
0
  3
Solid line
  72
65
  73
0
  40
0.0
  0
LTYPE
  5
410
  2
DASHDOT
 70
0
  3
Dash Dot ____ _ ____ _
 72
65
 73
4
 40
2.0
 49
1.25
 49
-0.25
 49
0.25
 49
-0.25
  0
LTYPE
  5
411
  2
DASHED
 70
0
  3
Dashed __ __ __ __ __
 72
65
 73
2
 40
0.75
 49
0.5
 49
-0.25
  0
LTYPE
  5
43B
  2
DOTTED
 70
0
  3
Dotted .  .  .  .
 72
65
 73
2
 40
0.2
 49
0.0
 49
-0.2
  0
ENDTAB
  0
TABLE
  2
STYLE
  70
4
  0
STYLE
  2
KICAD
  70
0
  40
0
  41
1
  42
1
  50
0
  71
0
  3
isocp.shx
  0
STYLE
  2
KICADB
  70
0
  40
0
  41
1
  42
1
  50
0
  71
0
  3
isocp.shx
  0
STYLE
  2
KICADI
  70
0
  40
0
  41
1
  42
1
  50
15
  71
0
  3
isocp.shx
  0
STYLE
  2
KICADBI
  70
0
  40
0
  41
1
  42
1
  50
15
  71
0
  3
isocp.shx
  0
ENDTAB
  0
TABLE
  2
LAYER
  70
30
  0
LAYER
  2
BLACK
  70
0
  62
7
  6
CONTINUOUS
  0
LAYER
  2
GRAY1
  70
0
  62
251
  6
CONTINUOUS
  0
LAYER
  2
GRAY2
  70
0
  62
8
  6
CONTINUOUS
  0
LAYER
  2
GRAY3
  70
0
  62
9
  6
CONTINUOUS
  0
LAYER
  2
WHITE
  70
0
  62
7
  6
CONTINUOUS
  0
LAYER
  2
LYELLOW
  70
0
  62
51
  6
CONTINUOUS
  0
LAYER
  2
BLUE1
  70
0
  62
178
  6
CONTINUOUS
  0
LAYER
  2
GREEN1
  70
0
  62
98
  6
CONTINUOUS
  0
LAYER
  2
CYAN1
  70
0
  62
138
  6
CONTINUOUS
  0
LAYER
  2
RED1
  70
0
  62
18
  6
CONTINUOUS
  0
LAYER
  2
MAGENTA1
  70
0
  62
228
  6
CONTINUOUS
  0
LAYER
  2
BROWN1
  70
0
  62
58
  6
CONTINUOUS
  0
LAYER
  2
BLUE2
  70
0
  62
5
  6
CONTINUOUS
  0
LAYER
  2
GREEN2
  70
0
  62
3
  6
CONTINUOUS
  0
LAYER
  2
CYAN2
  70
0
  62
4
  6
CONTINUOUS
  0
LAYER
  2
RED2
  70
0
  62
1
  6
CONTINUOUS
  0
LAYER
  2
MAGENTA2
  70
0
  62
6
  6
CONTINUOUS
  0
LAYER
  2
BROWN2
  70
0
  62
54
  6
CONTINUOUS
  0
LAYER
  2
BLUE3
  70
0
  62
171
  6
CONTINUOUS
  0
LAYER
  2
GREEN3
  70
0
  62
91
  6
CONTINUOUS
  0
LAYER
  2
CYAN3
  70
0
  62
131
  6
CONTINUOUS
  0
LAYER
  2
RED3
  70
0
  62
11
  6
CONTINUOUS
  0
LAYER
  2
MAGENTA3
  70
0
  62
221
  6
CONTINUOUS
  0
LAYER
  2
YELLOW3
  70
0
  62
2
  6
CONTINUOUS
  0
LAYER
  2
BLUE4
  70
0
  62
5
  6
CONTINUOUS
  0
LAYER
  2
GREEN4
  70
0
  62
3
  6
CONTINUOUS
  0
LAYER
  2
CYAN4
  70
0
  62
4
  6
CONTINUOUS
  0
LAYER
  2
RED4
  70
0
  62
1
  6
CONTINUOUS
  0
LAYER
  2
MAGENTA4
  70
0
  62
6
  6
CONTINUOUS
  0
LAYER
  2
YELLOW4
  70
0
  62
2
  6
CONTINUOUS
  0
ENDTAB
  0
ENDSEC
  0
SECTION
  2
ENTITIES
0
LINE
8
BLACK
6
CONTINUOUS
10
118.708
20
-101.497
11
130.961
21
-107.751
0
LINE
8
BLACK
6
CONTINUOUS
10
96.9249
20
-93.7355
11
78.5005
21
-90.8174
0
LINE
8
BLACK
6
CONTINUOUS
10
111.026
20
-98.3166
11
97.0775
21
-93.7721
0
LINE
8
BLACK
6
CONTINUOUS
10
26.7975
20
-90.805
11
12.7475
21
-90.805
0
LINE
8
BLACK
6
CONTINUOUS
10
78.344
20
-90.805
11
34.7975
21
-90.805
0
LINE
8
BLACK
6
CONTINUOUS
10
11.7475
20
-20.3675
11
11.7474
21
-89.805
0
ARC
8
BLACK
10
78.3435
20
-91.8054
40
1.00039
50
80.9708
51
89.9708
0
ARC
8
BLACK
10
96.7685
20
-94.7231
40
0.99994
50
72
51
81
0
ARC
8
BLACK
10
114.104
20
-101.746
40
2.00008
50
-112.488
51
-22.5319
0
ARC
8
BLACK
10
114.105
20
-101.746
40
2.00008
50
157.512
51
247.468
0
ARC
8
BLACK
10
117.799
20
-103.279
40
2.00045
50
62.9738
51
157.451
0
ARC
8
BLACK
10
110.409
20
-100.218
40
1.99932
50
-22.4347
51
72.0407
0
CIRCLE
8
BLACK
10
114.105
20
-101.748
40
1
0
LINE
8
BLACK
6
CONTINUOUS
10
26.7975
20
-19.3675
11
17.2725
21
-19.3675
0
LINE
8
BLACK
6
CONTINUOUS
10
53.3512
20
-19.3678
11
34.7975
21
-19.3675
0
LINE
8
BLACK
6
CONTINUOUS
10
107.841
20
-16.3906
11
96.4234
21
-14.3778
0
LINE
8
BLACK
6
CONTINUOUS
10
134.067
20
-23.4338
11
117.276
21
-20.4738
0
CIRCLE
8
BLACK
10
112.128
20
-15.1164
40
1
0
ARC
8
BLACK
10
116.066
20
-15.8116
40
1.99951
50
169.977
51
260.009
0
ARC
8
BLACK
10
115.546
20
-18.7658
40
1.00025
50
-10.0179
51
79.9824
0
LINE
8
BLACK
6
CONTINUOUS
10
116.465
20
-19.3148
11
116.531
21
-18.9398
0
ARC
8
BLACK
10
108.189
20
-14.4216
40
1.99951
50
-100.023
51
-9.9906
0
ARC
8
BLACK
10
112.127
20
-15.1154
40
1.99951
50
79.9771
51
170.009
0
ARC
8
BLACK
10
112.128
20
-15.1156
40
1.99951
50
-10.0229
51
80.0094
0
LINE
8
BLACK
6
CONTINUOUS
10
12.7475
20
-19.3675
11
17.2725
21
-19.3675
0
ARC
8
BLACK
10
34.7975
20
-17.3675
40
2
50
180
51
270
0
ARC
8
BLACK
10
26.7975
20
-17.3675
40
2
50
-90
51
-0
0
ARC
8
BLACK
10
30.7975
20
-17.3675
40
2
50
-0
51
90
0
ARC
8
BLACK
10
30.7975
20
-17.3675
40
2
50
90
51
180
0
CIRCLE
8
BLACK
10
30.7975
20
-17.3675
40
1
0
ARC
8
BLACK
10
26.7975
20
-92.805
40
2
50
-0
51
90
0
ARC
8
BLACK
10
34.7975
20
-92.805
40
2
50
90
51
180
0
ARC
8
BLACK
10
30.7975
20
-92.805
40
2
50
180
51
360
0
CIRCLE
8
BLACK
10
30.7975
20
-92.805
40
1
0
LINE
8
BLACK
6
CONTINUOUS
10
54.3476
20
-18.4544
11
54.9116
21
-11.9958
0
LINE
8
BLACK
6
CONTINUOUS
10
75.4793
20
-12.8788
11
55.9831
21
-11.1738
0
LINE
8
BLACK
6
CONTINUOUS
10
76.5576
20
-12.0129
11
77.0516
21
-8.25491
0
LINE
8
BLACK
6
CONTINUOUS
10
78.1736
20
-7.39476
11
95.0781
21
-9.61976
0
LINE
8
BLACK
6
CONTINUOUS
10
95.6066
20
-13.2624
11
95.9396
21
-10.7417
0
LINE
8
BLACK
6
CONTINUOUS
10
126.417
20
-72.5718
11
134.878
21
-24.5928
0
LINE
8
BLACK
6
CONTINUOUS
10
126.948
20
-73.6368
11
143.934
21
-82.2915
0
LINE
8
BLACK
6
CONTINUOUS
10
132.306
20
-107.314
11
144.371
21
-83.6367
0
ARC
8
BLACK
10
131.415
20
-106.861
40
0.999997
50
-117.001
51
-26.9707
0
ARC
8
BLACK
10
143.481
20
-83.1827
40
0.999997
50
-27.0006
51
63.0293
0
ARC
8
BLACK
10
12.7475
20
-89.805
40
1.00004
50
180
51
270
0
ARC
8
BLACK
10
12.7475
20
-20.3675
40
1.00004
50
90
51
180
0
ARC
8
BLACK
10
127.402
20
-72.7458
40
1.00025
50
169.982
51
242.967
0
ARC
8
BLACK
10
117.45
20
-19.4888
40
1.00025
50
169.982
51
259.982
0
ARC
8
BLACK
10
133.893
20
-24.4188
40
1.00025
50
-10.0179
51
79.9824
0
ARC
8
BLACK
10
96.5976
20
-13.3934
40
0.99962
50
172.47
51
259.967
0
ARC
8
BLACK
10
94.9476
20
-10.6117
40
1.00048
50
-7.46592
51
82.5013
0
ARC
8
BLACK
10
78.0426
20
-8.38576
40
0.99962
50
82.4698
51
172.478
0
ARC
8
BLACK
10
75.5663
20
-11.8828
40
0.999791
50
-94.992
51
-7.4819
0
ARC
8
BLACK
10
55.8961
20
-12.1698
40
0.999791
50
85.008
51
169.979
0
ARC
8
BLACK
10
53.3512
20
-18.3676
40
1.00014
50
-90
51
-4.97931
  0
ENDSEC
  0
EOF
