G04 #@! TF.GenerationSoftware,KiCad,Pcbnew,(5.1.2)-1*
G04 #@! TF.CreationDate,2019-06-14T17:50:55+09:00*
G04 #@! TF.ProjectId,adelie,6164656c-6965-42e6-9b69-6361645f7063,rev?*
G04 #@! TF.SameCoordinates,Original*
G04 #@! TF.FileFunction,Soldermask,Bot*
G04 #@! TF.FilePolarity,Negative*
%FSLAX46Y46*%
G04 Gerber Fmt 4.6, Leading zero omitted, Abs format (unit mm)*
G04 Created by KiCad (PCBNEW (5.1.2)-1) date 2019-06-14 17:50:55*
%MOMM*%
%LPD*%
G04 APERTURE LIST*
%ADD10C,0.100000*%
G04 APERTURE END LIST*
D10*
G36*
X188967899Y-124273679D02*
G01*
X189341156Y-124428287D01*
X189341158Y-124428288D01*
X189677081Y-124652745D01*
X189962761Y-124938425D01*
X190187219Y-125274350D01*
X190341827Y-125647607D01*
X190420645Y-126043854D01*
X190420645Y-126447868D01*
X190341827Y-126844115D01*
X190187219Y-127217372D01*
X190187218Y-127217374D01*
X189962761Y-127553297D01*
X189677081Y-127838977D01*
X189341158Y-128063434D01*
X189341157Y-128063435D01*
X189341156Y-128063435D01*
X188967899Y-128218043D01*
X188571652Y-128296861D01*
X188167638Y-128296861D01*
X187771391Y-128218043D01*
X187398134Y-128063435D01*
X187398133Y-128063435D01*
X187398132Y-128063434D01*
X187062209Y-127838977D01*
X186776529Y-127553297D01*
X186552072Y-127217374D01*
X186552071Y-127217372D01*
X186397463Y-126844115D01*
X186318645Y-126447868D01*
X186318645Y-126043854D01*
X186397463Y-125647607D01*
X186552071Y-125274350D01*
X186776529Y-124938425D01*
X187062209Y-124652745D01*
X187398132Y-124428288D01*
X187398134Y-124428287D01*
X187771391Y-124273679D01*
X188167638Y-124194861D01*
X188571652Y-124194861D01*
X188967899Y-124273679D01*
X188967899Y-124273679D01*
G37*
G36*
X154379405Y-119925835D02*
G01*
X154752662Y-120080443D01*
X154752664Y-120080444D01*
X155088587Y-120304901D01*
X155374267Y-120590581D01*
X155598725Y-120926506D01*
X155753333Y-121299763D01*
X155832151Y-121696010D01*
X155832151Y-122100024D01*
X155753333Y-122496271D01*
X155598725Y-122869528D01*
X155598724Y-122869530D01*
X155374267Y-123205453D01*
X155088587Y-123491133D01*
X154752664Y-123715590D01*
X154752663Y-123715591D01*
X154752662Y-123715591D01*
X154379405Y-123870199D01*
X153983158Y-123949017D01*
X153579144Y-123949017D01*
X153182897Y-123870199D01*
X152809640Y-123715591D01*
X152809639Y-123715591D01*
X152809638Y-123715590D01*
X152473715Y-123491133D01*
X152188035Y-123205453D01*
X151963578Y-122869530D01*
X151963577Y-122869528D01*
X151808969Y-122496271D01*
X151730151Y-122100024D01*
X151730151Y-121696010D01*
X151808969Y-121299763D01*
X151963577Y-120926506D01*
X152188035Y-120590581D01*
X152473715Y-120304901D01*
X152809638Y-120080444D01*
X152809640Y-120080443D01*
X153182897Y-119925835D01*
X153579144Y-119847017D01*
X153983158Y-119847017D01*
X154379405Y-119925835D01*
X154379405Y-119925835D01*
G37*
G36*
X105142594Y-102670738D02*
G01*
X105515851Y-102825346D01*
X105515853Y-102825347D01*
X105851776Y-103049804D01*
X106137456Y-103335484D01*
X106361914Y-103671409D01*
X106516522Y-104044666D01*
X106595340Y-104440913D01*
X106595340Y-104844927D01*
X106516522Y-105241174D01*
X106361914Y-105614431D01*
X106361913Y-105614433D01*
X106137456Y-105950356D01*
X105851776Y-106236036D01*
X105515853Y-106460493D01*
X105515852Y-106460494D01*
X105515851Y-106460494D01*
X105142594Y-106615102D01*
X104746347Y-106693920D01*
X104342333Y-106693920D01*
X103946086Y-106615102D01*
X103572829Y-106460494D01*
X103572828Y-106460494D01*
X103572827Y-106460493D01*
X103236904Y-106236036D01*
X102951224Y-105950356D01*
X102726767Y-105614433D01*
X102726766Y-105614431D01*
X102572158Y-105241174D01*
X102493340Y-104844927D01*
X102493340Y-104440913D01*
X102572158Y-104044666D01*
X102726766Y-103671409D01*
X102951224Y-103335484D01*
X103236904Y-103049804D01*
X103572827Y-102825347D01*
X103572829Y-102825346D01*
X103946086Y-102670738D01*
X104342333Y-102591920D01*
X104746347Y-102591920D01*
X105142594Y-102670738D01*
X105142594Y-102670738D01*
G37*
G36*
X190511994Y-84357338D02*
G01*
X190885251Y-84511946D01*
X190885253Y-84511947D01*
X191049071Y-84621407D01*
X191221176Y-84736404D01*
X191506856Y-85022084D01*
X191731314Y-85358009D01*
X191885922Y-85731266D01*
X191964740Y-86127513D01*
X191964740Y-86531527D01*
X191885922Y-86927774D01*
X191778946Y-87186036D01*
X191731313Y-87301033D01*
X191506856Y-87636956D01*
X191221176Y-87922636D01*
X190885253Y-88147093D01*
X190885252Y-88147094D01*
X190885251Y-88147094D01*
X190511994Y-88301702D01*
X190115747Y-88380520D01*
X189711733Y-88380520D01*
X189315486Y-88301702D01*
X188942229Y-88147094D01*
X188942228Y-88147094D01*
X188942227Y-88147093D01*
X188606304Y-87922636D01*
X188320624Y-87636956D01*
X188096167Y-87301033D01*
X188048534Y-87186036D01*
X187941558Y-86927774D01*
X187862740Y-86531527D01*
X187862740Y-86127513D01*
X187941558Y-85731266D01*
X188096166Y-85358009D01*
X188320624Y-85022084D01*
X188606304Y-84736404D01*
X188778409Y-84621407D01*
X188942227Y-84511947D01*
X188942229Y-84511946D01*
X189315486Y-84357338D01*
X189711733Y-84278520D01*
X190115747Y-84278520D01*
X190511994Y-84357338D01*
X190511994Y-84357338D01*
G37*
G36*
X105142594Y-83620738D02*
G01*
X105515851Y-83775346D01*
X105515853Y-83775347D01*
X105851776Y-83999804D01*
X106137456Y-84285484D01*
X106361914Y-84621409D01*
X106516522Y-84994666D01*
X106595340Y-85390913D01*
X106595340Y-85794927D01*
X106516522Y-86191174D01*
X106375543Y-86531527D01*
X106361913Y-86564433D01*
X106137456Y-86900356D01*
X105851776Y-87186036D01*
X105515853Y-87410493D01*
X105515852Y-87410494D01*
X105515851Y-87410494D01*
X105142594Y-87565102D01*
X104746347Y-87643920D01*
X104342333Y-87643920D01*
X103946086Y-87565102D01*
X103572829Y-87410494D01*
X103572828Y-87410494D01*
X103572827Y-87410493D01*
X103236904Y-87186036D01*
X102951224Y-86900356D01*
X102726767Y-86564433D01*
X102713137Y-86531527D01*
X102572158Y-86191174D01*
X102493340Y-85794927D01*
X102493340Y-85390913D01*
X102572158Y-84994666D01*
X102726766Y-84621409D01*
X102951224Y-84285484D01*
X103236904Y-83999804D01*
X103572827Y-83775347D01*
X103572829Y-83775346D01*
X103946086Y-83620738D01*
X104342333Y-83541920D01*
X104746347Y-83541920D01*
X105142594Y-83620738D01*
X105142594Y-83620738D01*
G37*
G36*
X150581394Y-71307558D02*
G01*
X150954651Y-71462166D01*
X150954653Y-71462167D01*
X151290576Y-71686624D01*
X151576256Y-71972304D01*
X151800714Y-72308229D01*
X151955322Y-72681486D01*
X152034140Y-73077733D01*
X152034140Y-73481747D01*
X151955322Y-73877994D01*
X151800714Y-74251251D01*
X151800713Y-74251253D01*
X151576256Y-74587176D01*
X151290576Y-74872856D01*
X150954653Y-75097313D01*
X150954652Y-75097314D01*
X150954651Y-75097314D01*
X150581394Y-75251922D01*
X150185147Y-75330740D01*
X149781133Y-75330740D01*
X149384886Y-75251922D01*
X149011629Y-75097314D01*
X149011628Y-75097314D01*
X149011627Y-75097313D01*
X148675704Y-74872856D01*
X148390024Y-74587176D01*
X148165567Y-74251253D01*
X148165566Y-74251251D01*
X148010958Y-73877994D01*
X147932140Y-73481747D01*
X147932140Y-73077733D01*
X148010958Y-72681486D01*
X148165566Y-72308229D01*
X148390024Y-71972304D01*
X148675704Y-71686624D01*
X149011627Y-71462167D01*
X149011629Y-71462166D01*
X149384886Y-71307558D01*
X149781133Y-71228740D01*
X150185147Y-71228740D01*
X150581394Y-71307558D01*
X150581394Y-71307558D01*
G37*
M02*
