G04 #@! TF.GenerationSoftware,KiCad,Pcbnew,(5.1.2)-1*
G04 #@! TF.CreationDate,2019-06-14T17:53:23+09:00*
G04 #@! TF.ProjectId,adelie,6164656c-6965-42e6-9b69-6361645f7063,rev?*
G04 #@! TF.SameCoordinates,Original*
G04 #@! TF.FileFunction,Copper,L2,Bot*
G04 #@! TF.FilePolarity,Positive*
%FSLAX46Y46*%
G04 Gerber Fmt 4.6, Leading zero omitted, Abs format (unit mm)*
G04 Created by KiCad (PCBNEW (5.1.2)-1) date 2019-06-14 17:53:23*
%MOMM*%
%LPD*%
G04 APERTURE LIST*
%ADD10C,4.000000*%
%ADD11C,0.254000*%
G04 APERTURE END LIST*
D10*
X188369645Y-126245861D03*
X189913740Y-86329520D03*
X153781151Y-121898017D03*
X149983140Y-73279740D03*
X104544340Y-85592920D03*
X104544340Y-104642920D03*
D11*
G36*
X157761655Y-53367065D02*
G01*
X173375550Y-56827903D01*
X173561650Y-56888752D01*
X173704132Y-56968729D01*
X173828373Y-57074864D01*
X173929631Y-57203108D01*
X174004052Y-57348578D01*
X174048798Y-57505725D01*
X174062170Y-57668580D01*
X174040197Y-57861251D01*
X173397655Y-60761288D01*
X173394528Y-60787245D01*
X173362649Y-61015652D01*
X173360453Y-61069265D01*
X173356504Y-61122775D01*
X173356790Y-61131985D01*
X173367926Y-61424601D01*
X173376024Y-61483869D01*
X173383292Y-61543245D01*
X173385362Y-61552225D01*
X173453122Y-61837104D01*
X173472581Y-61893684D01*
X173491240Y-61950504D01*
X173495015Y-61958911D01*
X173616818Y-62225203D01*
X173646872Y-62276882D01*
X173676237Y-62329041D01*
X173681573Y-62336554D01*
X173852780Y-62574116D01*
X173892314Y-62618991D01*
X173931233Y-62664432D01*
X173937927Y-62670766D01*
X174152015Y-62870550D01*
X174199511Y-62906890D01*
X174246520Y-62943910D01*
X174254317Y-62948823D01*
X174503132Y-63103218D01*
X174556770Y-63129635D01*
X174610084Y-63156824D01*
X174618686Y-63160129D01*
X174892751Y-63263256D01*
X174892768Y-63263260D01*
X174923068Y-63274664D01*
X211597171Y-73100638D01*
X211780433Y-73169512D01*
X211919252Y-73255575D01*
X212038710Y-73366961D01*
X212134258Y-73499429D01*
X212202255Y-73647930D01*
X212240114Y-73806815D01*
X212246392Y-73970023D01*
X212216084Y-74161439D01*
X197432736Y-129349010D01*
X197429105Y-129371011D01*
X197391647Y-129561494D01*
X197386825Y-129611345D01*
X197379834Y-129660946D01*
X197379509Y-129670155D01*
X197371218Y-129962846D01*
X197375364Y-130022476D01*
X197378682Y-130082246D01*
X197380152Y-130091343D01*
X197428869Y-130380071D01*
X197444523Y-130437778D01*
X197459383Y-130495750D01*
X197462592Y-130504388D01*
X197566462Y-130778154D01*
X197593049Y-130831765D01*
X197618865Y-130885703D01*
X197623690Y-130893554D01*
X197778758Y-131141931D01*
X197815223Y-131189321D01*
X197851051Y-131237253D01*
X197857310Y-131244017D01*
X198057667Y-131457543D01*
X198102610Y-131496919D01*
X198147096Y-131537007D01*
X198154550Y-131542426D01*
X198392564Y-131712971D01*
X198392577Y-131712979D01*
X198418909Y-131731847D01*
X214633095Y-141092901D01*
X214792229Y-141206850D01*
X214904013Y-141325908D01*
X214990544Y-141464413D01*
X215048524Y-141617087D01*
X215075747Y-141778123D01*
X215071173Y-141941371D01*
X215034978Y-142100622D01*
X214956125Y-142277690D01*
X206960750Y-156129323D01*
X206846771Y-156288366D01*
X206727600Y-156400168D01*
X206588973Y-156486700D01*
X206436188Y-156544654D01*
X206275047Y-156571830D01*
X206111699Y-156567189D01*
X205952367Y-156530910D01*
X205775192Y-156451925D01*
X198918998Y-152492968D01*
X198917431Y-152492258D01*
X197906853Y-151915738D01*
X197904675Y-151914548D01*
X197893214Y-151908169D01*
X194264610Y-149950281D01*
X194261550Y-149948702D01*
X194258511Y-149947031D01*
X194243116Y-149939187D01*
X190545205Y-148115579D01*
X190542078Y-148114108D01*
X190538991Y-148112555D01*
X190523318Y-148105280D01*
X188936709Y-147393893D01*
X193045467Y-147393893D01*
X193066645Y-147522165D01*
X193066646Y-147522167D01*
X193112441Y-147643844D01*
X193181095Y-147754246D01*
X193269967Y-147849135D01*
X193323469Y-147887473D01*
X193375643Y-147924861D01*
X193405322Y-147938308D01*
X205473568Y-154905889D01*
X205500043Y-154924861D01*
X205618463Y-154978517D01*
X205745075Y-155008038D01*
X205875013Y-155012293D01*
X206003285Y-154991115D01*
X206124961Y-154945320D01*
X206235364Y-154876666D01*
X206235366Y-154876665D01*
X206330255Y-154787792D01*
X206405982Y-154682115D01*
X206419426Y-154652444D01*
X213387009Y-142584291D01*
X213405982Y-142557815D01*
X213426153Y-142513297D01*
X213459637Y-142439398D01*
X213489158Y-142312785D01*
X213493413Y-142182847D01*
X213472235Y-142054575D01*
X213472234Y-142054573D01*
X213472234Y-142054571D01*
X213449167Y-141993283D01*
X213426440Y-141932898D01*
X213357787Y-141822495D01*
X213268915Y-141727606D01*
X213239058Y-141706211D01*
X213189714Y-141670851D01*
X213189707Y-141670847D01*
X213163237Y-141651879D01*
X213133574Y-141638439D01*
X201065319Y-134670856D01*
X201038837Y-134651879D01*
X200920417Y-134598223D01*
X200920415Y-134598222D01*
X200793802Y-134568701D01*
X200733232Y-134566718D01*
X200663866Y-134564447D01*
X200535594Y-134585625D01*
X200413918Y-134631420D01*
X200413917Y-134631421D01*
X200413916Y-134631421D01*
X200397328Y-134641736D01*
X200303515Y-134700073D01*
X200208626Y-134788945D01*
X200151873Y-134868144D01*
X200151870Y-134868150D01*
X200132898Y-134894625D01*
X200119456Y-134924291D01*
X193151874Y-146992443D01*
X193132898Y-147018925D01*
X193079242Y-147137345D01*
X193049721Y-147263958D01*
X193048744Y-147293810D01*
X193045467Y-147393893D01*
X188936709Y-147393893D01*
X186761067Y-146418402D01*
X186757905Y-146417053D01*
X186754746Y-146415607D01*
X186738910Y-146408951D01*
X186738817Y-146408911D01*
X186738789Y-146408900D01*
X182917279Y-144861030D01*
X182914085Y-144859804D01*
X182910860Y-144858468D01*
X182894697Y-144852361D01*
X179019006Y-143445554D01*
X179015748Y-143444439D01*
X179012498Y-143443230D01*
X178996122Y-143437719D01*
X175071482Y-142173876D01*
X175068177Y-142172878D01*
X175064893Y-142171792D01*
X175048500Y-142166936D01*
X175048326Y-142166884D01*
X175048275Y-142166871D01*
X171080010Y-141047704D01*
X171076696Y-141046835D01*
X171073349Y-141045862D01*
X171056743Y-141041599D01*
X171056612Y-141041565D01*
X171056573Y-141041556D01*
X167070529Y-140073547D01*
X174531779Y-140073547D01*
X174550153Y-140202250D01*
X174593284Y-140324896D01*
X174659512Y-140436772D01*
X174746293Y-140533576D01*
X174850293Y-140611591D01*
X174967514Y-140667817D01*
X174999078Y-140675906D01*
X188093840Y-145442028D01*
X188123214Y-145456117D01*
X188201788Y-145476255D01*
X188249152Y-145488394D01*
X188378967Y-145495481D01*
X188507670Y-145477107D01*
X188630316Y-145433976D01*
X188742192Y-145367748D01*
X188838996Y-145280967D01*
X188917011Y-145176967D01*
X188953759Y-145100352D01*
X188973237Y-145059745D01*
X188981326Y-145028184D01*
X193747450Y-131933414D01*
X193761537Y-131904045D01*
X193793814Y-131778107D01*
X193795962Y-131738754D01*
X193800901Y-131648293D01*
X193785787Y-131542426D01*
X193782527Y-131519589D01*
X193739396Y-131396943D01*
X193673168Y-131285067D01*
X193586386Y-131188263D01*
X193482387Y-131110248D01*
X193394537Y-131068111D01*
X193394531Y-131068109D01*
X193365165Y-131054023D01*
X193333613Y-131045937D01*
X180238837Y-126279812D01*
X180209465Y-126265723D01*
X180083527Y-126233446D01*
X179953713Y-126226359D01*
X179953712Y-126226359D01*
X179825009Y-126244733D01*
X179702363Y-126287864D01*
X179590487Y-126354092D01*
X179493683Y-126440874D01*
X179415668Y-126544873D01*
X179373531Y-126632723D01*
X179359443Y-126662094D01*
X179351356Y-126693648D01*
X174585234Y-139788417D01*
X174571143Y-139817794D01*
X174550096Y-139899915D01*
X174538866Y-139943733D01*
X174531779Y-140073547D01*
X167070529Y-140073547D01*
X167049952Y-140068550D01*
X167046550Y-140067789D01*
X167043227Y-140066955D01*
X167026527Y-140063314D01*
X167026345Y-140063273D01*
X167026292Y-140063263D01*
X162986720Y-139237731D01*
X162983346Y-139237106D01*
X162979942Y-139236382D01*
X162963085Y-139233350D01*
X162962936Y-139233322D01*
X162962892Y-139233315D01*
X158895773Y-138556362D01*
X158892357Y-138555858D01*
X158888950Y-138555263D01*
X158871844Y-138552828D01*
X154782606Y-138025357D01*
X154779162Y-138024977D01*
X154775747Y-138024509D01*
X154758751Y-138022723D01*
X154758563Y-138022702D01*
X154758509Y-138022698D01*
X150652743Y-137645431D01*
X150649323Y-137645180D01*
X150645858Y-137644834D01*
X150628619Y-137643659D01*
X146511732Y-137417093D01*
X146508293Y-137416967D01*
X146504829Y-137416749D01*
X146487559Y-137416207D01*
X142391497Y-137341134D01*
X142385476Y-137340541D01*
X125142478Y-137340101D01*
X124952531Y-137321477D01*
X124796171Y-137274269D01*
X124651960Y-137197590D01*
X124525388Y-137094361D01*
X124421277Y-136968512D01*
X124343596Y-136824844D01*
X124295299Y-136668821D01*
X124275040Y-136476067D01*
X124275040Y-125168121D01*
X124272222Y-125139512D01*
X124272287Y-125130252D01*
X124271388Y-125121081D01*
X124240788Y-124829935D01*
X124228750Y-124771293D01*
X124217550Y-124712577D01*
X124214887Y-124703756D01*
X124128319Y-124424100D01*
X124105141Y-124368962D01*
X124082729Y-124313490D01*
X124078402Y-124305354D01*
X123939163Y-124047838D01*
X123905741Y-123998289D01*
X123872960Y-123948193D01*
X123867135Y-123941052D01*
X123680530Y-123715485D01*
X123638094Y-123673344D01*
X123596231Y-123630595D01*
X123589131Y-123624721D01*
X123362267Y-123439695D01*
X123312448Y-123406595D01*
X123263085Y-123372796D01*
X123254979Y-123368413D01*
X122996498Y-123230976D01*
X122941204Y-123208185D01*
X122886211Y-123184615D01*
X122877408Y-123181890D01*
X122597154Y-123097276D01*
X122538469Y-123085656D01*
X122479961Y-123073220D01*
X122470798Y-123072257D01*
X122470796Y-123072257D01*
X122179444Y-123043690D01*
X122179442Y-123043690D01*
X122147459Y-123040540D01*
X87039359Y-123040540D01*
X86844531Y-123021437D01*
X86688171Y-122974229D01*
X86543960Y-122897550D01*
X86417388Y-122794321D01*
X86313277Y-122668472D01*
X86235596Y-122524804D01*
X86187299Y-122368781D01*
X86167040Y-122176027D01*
X86167040Y-107183920D01*
X87371147Y-107183920D01*
X87374341Y-107216349D01*
X87374340Y-121151501D01*
X87371147Y-121183920D01*
X87383890Y-121313303D01*
X87421630Y-121437713D01*
X87482915Y-121552370D01*
X87553594Y-121638492D01*
X87565392Y-121652868D01*
X87665890Y-121735345D01*
X87780547Y-121796630D01*
X87904957Y-121834370D01*
X88034340Y-121847113D01*
X88066759Y-121843920D01*
X102001921Y-121843920D01*
X102034340Y-121847113D01*
X102066759Y-121843920D01*
X102163723Y-121834370D01*
X102288133Y-121796630D01*
X102402790Y-121735345D01*
X102503288Y-121652868D01*
X102585765Y-121552370D01*
X102647050Y-121437713D01*
X102684790Y-121313303D01*
X102697533Y-121183920D01*
X102694340Y-121151501D01*
X102694340Y-107216339D01*
X102697533Y-107183920D01*
X102684790Y-107054537D01*
X102647050Y-106930127D01*
X102585765Y-106815470D01*
X102503288Y-106714972D01*
X102402790Y-106632495D01*
X102288133Y-106571210D01*
X102163723Y-106533470D01*
X102034340Y-106520727D01*
X102001921Y-106523920D01*
X88066759Y-106523920D01*
X88034340Y-106520727D01*
X88001921Y-106523920D01*
X87904957Y-106533470D01*
X87780547Y-106571210D01*
X87665890Y-106632495D01*
X87565392Y-106714972D01*
X87482915Y-106815470D01*
X87421630Y-106930127D01*
X87383890Y-107054537D01*
X87371147Y-107183920D01*
X86167040Y-107183920D01*
X86167040Y-104383395D01*
X101909340Y-104383395D01*
X101909340Y-104902445D01*
X102010601Y-105411521D01*
X102209233Y-105891061D01*
X102497602Y-106322635D01*
X102864625Y-106689658D01*
X103296199Y-106978027D01*
X103775739Y-107176659D01*
X104284815Y-107277920D01*
X104803865Y-107277920D01*
X105276437Y-107183920D01*
X106421147Y-107183920D01*
X106424341Y-107216349D01*
X106424340Y-121151501D01*
X106421147Y-121183920D01*
X106433890Y-121313303D01*
X106471630Y-121437713D01*
X106532915Y-121552370D01*
X106603594Y-121638492D01*
X106615392Y-121652868D01*
X106715890Y-121735345D01*
X106830547Y-121796630D01*
X106954957Y-121834370D01*
X107084340Y-121847113D01*
X107116759Y-121843920D01*
X121051921Y-121843920D01*
X121084340Y-121847113D01*
X121116759Y-121843920D01*
X121213723Y-121834370D01*
X121338133Y-121796630D01*
X121452790Y-121735345D01*
X121553288Y-121652868D01*
X121635765Y-121552370D01*
X121679300Y-121470920D01*
X130234147Y-121470920D01*
X130237341Y-121503349D01*
X130237340Y-135438501D01*
X130234147Y-135470920D01*
X130246890Y-135600303D01*
X130284630Y-135724713D01*
X130345915Y-135839370D01*
X130418871Y-135928267D01*
X130428392Y-135939868D01*
X130528890Y-136022345D01*
X130643547Y-136083630D01*
X130767957Y-136121370D01*
X130897340Y-136134113D01*
X130929759Y-136130920D01*
X144864921Y-136130920D01*
X144897340Y-136134113D01*
X144929759Y-136130920D01*
X145026723Y-136121370D01*
X145151133Y-136083630D01*
X145231100Y-136040887D01*
X154870205Y-136040887D01*
X154885768Y-136169960D01*
X154926212Y-136293518D01*
X154938779Y-136315843D01*
X154989984Y-136406810D01*
X155074633Y-136505486D01*
X155176906Y-136585750D01*
X155292872Y-136644520D01*
X155418077Y-136679537D01*
X155450561Y-136682022D01*
X169174108Y-139101864D01*
X169205482Y-139110638D01*
X169289543Y-139117069D01*
X169335106Y-139120555D01*
X169335111Y-139120555D01*
X169404553Y-139112182D01*
X169464180Y-139104992D01*
X169464183Y-139104991D01*
X169464184Y-139104991D01*
X169506180Y-139091244D01*
X169587737Y-139064548D01*
X169587741Y-139064546D01*
X169701034Y-139000773D01*
X169780065Y-138932975D01*
X169799706Y-138916126D01*
X169799709Y-138916123D01*
X169879972Y-138813850D01*
X169938742Y-138697883D01*
X169964984Y-138604050D01*
X169973757Y-138572682D01*
X169976242Y-138540202D01*
X172189761Y-125986336D01*
X185734645Y-125986336D01*
X185734645Y-126505386D01*
X185835906Y-127014462D01*
X186034538Y-127494002D01*
X186322907Y-127925576D01*
X186689930Y-128292599D01*
X187121504Y-128580968D01*
X187601044Y-128779600D01*
X188110120Y-128880861D01*
X188629170Y-128880861D01*
X189138246Y-128779600D01*
X189617786Y-128580968D01*
X190049360Y-128292599D01*
X190416383Y-127925576D01*
X190704752Y-127494002D01*
X190903384Y-127014462D01*
X191004645Y-126505386D01*
X191004645Y-125986336D01*
X190903384Y-125477260D01*
X190704752Y-124997720D01*
X190416383Y-124566146D01*
X190049360Y-124199123D01*
X189617786Y-123910754D01*
X189138246Y-123712122D01*
X188629170Y-123610861D01*
X188110120Y-123610861D01*
X187601044Y-123712122D01*
X187121504Y-123910754D01*
X186689930Y-124199123D01*
X186322907Y-124566146D01*
X186034538Y-124997720D01*
X185835906Y-125477260D01*
X185734645Y-125986336D01*
X172189761Y-125986336D01*
X172395985Y-124816749D01*
X172404757Y-124785383D01*
X172407242Y-124752904D01*
X172407243Y-124752898D01*
X172412890Y-124679084D01*
X172414675Y-124655753D01*
X172413201Y-124643524D01*
X172406145Y-124585010D01*
X172399112Y-124526679D01*
X172398134Y-124523689D01*
X172389686Y-124497881D01*
X172358668Y-124403122D01*
X172294896Y-124289829D01*
X172210247Y-124191153D01*
X172107974Y-124110889D01*
X171992007Y-124052119D01*
X171898175Y-124025876D01*
X171898164Y-124025874D01*
X171866798Y-124017102D01*
X171834328Y-124014618D01*
X158110876Y-121594777D01*
X158079503Y-121586003D01*
X157987038Y-121578928D01*
X157949874Y-121576085D01*
X157949873Y-121576085D01*
X157820799Y-121591648D01*
X157697242Y-121632092D01*
X157583949Y-121695864D01*
X157485273Y-121780513D01*
X157405009Y-121882786D01*
X157346239Y-121998753D01*
X157319996Y-122092585D01*
X157319994Y-122092595D01*
X157311223Y-122123957D01*
X157308739Y-122156428D01*
X154888897Y-135879887D01*
X154880123Y-135911258D01*
X154870205Y-136040887D01*
X145231100Y-136040887D01*
X145265790Y-136022345D01*
X145366288Y-135939868D01*
X145448765Y-135839370D01*
X145510050Y-135724713D01*
X145547790Y-135600303D01*
X145560533Y-135470920D01*
X145557340Y-135438501D01*
X145557340Y-121638492D01*
X151146151Y-121638492D01*
X151146151Y-122157542D01*
X151247412Y-122666618D01*
X151446044Y-123146158D01*
X151734413Y-123577732D01*
X152101436Y-123944755D01*
X152533010Y-124233124D01*
X153012550Y-124431756D01*
X153521626Y-124533017D01*
X154040676Y-124533017D01*
X154549752Y-124431756D01*
X155029292Y-124233124D01*
X155460866Y-123944755D01*
X155827889Y-123577732D01*
X156116258Y-123146158D01*
X156314890Y-122666618D01*
X156416151Y-122157542D01*
X156416151Y-121638492D01*
X156350461Y-121308244D01*
X182502267Y-121308244D01*
X182502267Y-121308245D01*
X182506521Y-121438183D01*
X182514154Y-121470920D01*
X182536042Y-121564793D01*
X182536043Y-121564795D01*
X182589698Y-121683215D01*
X182619435Y-121724713D01*
X182665424Y-121788892D01*
X182712862Y-121833322D01*
X182760313Y-121877765D01*
X182870716Y-121946419D01*
X182961905Y-121980740D01*
X182961907Y-121980741D01*
X182992391Y-121992214D01*
X183024530Y-121997520D01*
X196484907Y-125604241D01*
X196515391Y-125615714D01*
X196547530Y-125621020D01*
X196547532Y-125621021D01*
X196643664Y-125636893D01*
X196773603Y-125632639D01*
X196846190Y-125615714D01*
X196900213Y-125603118D01*
X196973487Y-125569918D01*
X197018635Y-125549462D01*
X197124313Y-125473735D01*
X197213185Y-125378847D01*
X197281839Y-125268444D01*
X197327635Y-125146768D01*
X197332943Y-125114621D01*
X200939660Y-111654357D01*
X200951135Y-111623868D01*
X200972313Y-111495595D01*
X200968059Y-111365656D01*
X200938538Y-111239044D01*
X200884882Y-111120624D01*
X200809155Y-111014947D01*
X200714267Y-110926074D01*
X200603864Y-110857420D01*
X200512676Y-110823099D01*
X200512661Y-110823095D01*
X200482189Y-110811626D01*
X200450065Y-110806322D01*
X186989675Y-107199600D01*
X186959189Y-107188126D01*
X186927050Y-107182820D01*
X186927047Y-107182819D01*
X186830915Y-107166947D01*
X186700977Y-107171201D01*
X186677569Y-107176659D01*
X186574366Y-107200722D01*
X186455945Y-107254378D01*
X186350267Y-107330104D01*
X186261395Y-107424993D01*
X186192741Y-107535395D01*
X186158420Y-107626584D01*
X186158418Y-107626593D01*
X186146946Y-107657073D01*
X186141641Y-107689203D01*
X182534919Y-121149490D01*
X182523446Y-121179973D01*
X182518140Y-121212107D01*
X182518139Y-121212112D01*
X182502267Y-121308244D01*
X156350461Y-121308244D01*
X156314890Y-121129416D01*
X156116258Y-120649876D01*
X155827889Y-120218302D01*
X155460866Y-119851279D01*
X155029292Y-119562910D01*
X154549752Y-119364278D01*
X154040676Y-119263017D01*
X153521626Y-119263017D01*
X153012550Y-119364278D01*
X152533010Y-119562910D01*
X152101436Y-119851279D01*
X151734413Y-120218302D01*
X151446044Y-120649876D01*
X151247412Y-121129416D01*
X151146151Y-121638492D01*
X145557340Y-121638492D01*
X145557340Y-121503339D01*
X145560533Y-121470920D01*
X145547790Y-121341537D01*
X145510050Y-121217127D01*
X145448765Y-121102470D01*
X145366288Y-121001972D01*
X145265790Y-120919495D01*
X145151133Y-120858210D01*
X145026723Y-120820470D01*
X144929759Y-120810920D01*
X144897340Y-120807727D01*
X144864921Y-120810920D01*
X130929759Y-120810920D01*
X130897340Y-120807727D01*
X130864921Y-120810920D01*
X130767957Y-120820470D01*
X130643547Y-120858210D01*
X130528890Y-120919495D01*
X130428392Y-121001972D01*
X130345915Y-121102470D01*
X130284630Y-121217127D01*
X130246890Y-121341537D01*
X130234147Y-121470920D01*
X121679300Y-121470920D01*
X121697050Y-121437713D01*
X121734790Y-121313303D01*
X121747533Y-121183920D01*
X121744340Y-121151501D01*
X121744340Y-116377744D01*
X164101367Y-116377744D01*
X164105621Y-116507681D01*
X164135142Y-116634293D01*
X164135143Y-116634295D01*
X164188798Y-116752715D01*
X164220410Y-116796829D01*
X164264524Y-116858392D01*
X164330021Y-116919736D01*
X164359413Y-116947265D01*
X164469816Y-117015919D01*
X164561005Y-117050240D01*
X164561007Y-117050241D01*
X164591491Y-117061714D01*
X164623630Y-117067020D01*
X178084007Y-120673741D01*
X178114491Y-120685214D01*
X178146630Y-120690520D01*
X178146632Y-120690521D01*
X178242764Y-120706393D01*
X178372703Y-120702139D01*
X178445290Y-120685214D01*
X178499313Y-120672618D01*
X178572587Y-120639418D01*
X178617735Y-120618962D01*
X178723413Y-120543235D01*
X178812285Y-120448347D01*
X178880939Y-120337944D01*
X178926735Y-120216268D01*
X178932043Y-120184121D01*
X182538760Y-106723857D01*
X182550235Y-106693368D01*
X182562746Y-106617590D01*
X182571413Y-106565097D01*
X182569583Y-106509188D01*
X182567159Y-106435156D01*
X182537638Y-106308544D01*
X182483982Y-106190124D01*
X182408255Y-106084447D01*
X182313367Y-105995574D01*
X182202964Y-105926920D01*
X182111776Y-105892599D01*
X182111761Y-105892595D01*
X182081289Y-105881126D01*
X182049165Y-105875822D01*
X170971097Y-102907445D01*
X187432767Y-102907445D01*
X187437021Y-103037383D01*
X187437022Y-103037387D01*
X187466544Y-103163999D01*
X187488338Y-103212099D01*
X187520198Y-103282415D01*
X187571887Y-103354547D01*
X187595928Y-103388096D01*
X187634653Y-103424365D01*
X187690813Y-103476965D01*
X187690815Y-103476966D01*
X187690817Y-103476968D01*
X187747410Y-103512160D01*
X187801216Y-103545619D01*
X187801220Y-103545621D01*
X187889423Y-103578817D01*
X187922893Y-103591414D01*
X187955032Y-103596721D01*
X201415408Y-107203341D01*
X201445891Y-107214814D01*
X201478033Y-107220121D01*
X201478037Y-107220122D01*
X201510082Y-107225412D01*
X201574164Y-107235993D01*
X201574169Y-107235993D01*
X201596159Y-107235273D01*
X201704101Y-107231739D01*
X201704105Y-107231738D01*
X201704107Y-107231738D01*
X201776690Y-107214814D01*
X201830713Y-107202218D01*
X201830719Y-107202216D01*
X201899169Y-107171201D01*
X201949134Y-107148562D01*
X201949137Y-107148560D01*
X201949139Y-107148559D01*
X201985022Y-107122846D01*
X202054812Y-107072836D01*
X202143684Y-106977948D01*
X202143685Y-106977946D01*
X202143688Y-106977943D01*
X202212341Y-106867540D01*
X202258136Y-106745863D01*
X202263442Y-106713722D01*
X205870160Y-93253457D01*
X205881635Y-93222968D01*
X205902813Y-93094695D01*
X205898559Y-92964756D01*
X205869038Y-92838144D01*
X205815382Y-92719724D01*
X205739655Y-92614047D01*
X205644767Y-92525174D01*
X205534364Y-92456520D01*
X205443176Y-92422199D01*
X205443161Y-92422195D01*
X205412689Y-92410726D01*
X205380565Y-92405422D01*
X191920181Y-88798702D01*
X191889688Y-88787225D01*
X191761415Y-88766047D01*
X191631476Y-88770301D01*
X191504864Y-88799822D01*
X191386444Y-88853478D01*
X191280767Y-88929205D01*
X191191894Y-89024093D01*
X191123240Y-89134496D01*
X191088919Y-89225684D01*
X191088914Y-89225702D01*
X191077446Y-89256173D01*
X191072142Y-89288295D01*
X187465420Y-102748684D01*
X187453944Y-102779177D01*
X187443161Y-102844492D01*
X187432767Y-102907445D01*
X170971097Y-102907445D01*
X168588775Y-102269100D01*
X168558289Y-102257626D01*
X168526150Y-102252320D01*
X168526147Y-102252319D01*
X168430015Y-102236447D01*
X168300077Y-102240701D01*
X168270556Y-102247584D01*
X168173466Y-102270222D01*
X168055045Y-102323878D01*
X167949367Y-102399604D01*
X167860495Y-102494493D01*
X167791841Y-102604895D01*
X167757520Y-102696084D01*
X167757518Y-102696093D01*
X167746046Y-102726573D01*
X167740741Y-102758703D01*
X164134019Y-116218990D01*
X164122546Y-116249473D01*
X164117240Y-116281607D01*
X164117239Y-116281612D01*
X164101367Y-116377744D01*
X121744340Y-116377744D01*
X121744340Y-108501893D01*
X126137067Y-108501893D01*
X126149436Y-108576806D01*
X126158246Y-108630169D01*
X126204042Y-108751845D01*
X126227839Y-108790113D01*
X126272693Y-108862244D01*
X126272695Y-108862246D01*
X126272696Y-108862248D01*
X126361569Y-108957137D01*
X126467247Y-109032863D01*
X126585666Y-109086518D01*
X126712279Y-109116039D01*
X126744836Y-109117105D01*
X140560759Y-110936043D01*
X140592480Y-110943439D01*
X140625028Y-110944504D01*
X140625033Y-110944505D01*
X140722414Y-110947693D01*
X140850685Y-110926515D01*
X140972361Y-110880720D01*
X140972365Y-110880718D01*
X140992886Y-110867957D01*
X141082765Y-110812067D01*
X141177654Y-110723194D01*
X141253381Y-110617518D01*
X141307037Y-110499098D01*
X141336559Y-110372485D01*
X141337625Y-110339918D01*
X141875477Y-106254352D01*
X146391605Y-106254352D01*
X146401523Y-106383980D01*
X146401524Y-106383983D01*
X146401524Y-106383985D01*
X146436540Y-106509188D01*
X146495311Y-106625155D01*
X146575576Y-106727429D01*
X146632612Y-106776357D01*
X146674247Y-106812074D01*
X146674248Y-106812075D01*
X146674251Y-106812077D01*
X146759038Y-106859803D01*
X146772792Y-106867545D01*
X146787544Y-106875849D01*
X146851489Y-106896780D01*
X146911098Y-106916292D01*
X146943443Y-106920192D01*
X160548340Y-109936258D01*
X160579301Y-109946393D01*
X160708376Y-109961955D01*
X160838005Y-109952036D01*
X160963209Y-109917020D01*
X161079175Y-109858249D01*
X161181449Y-109777984D01*
X161266097Y-109679309D01*
X161329869Y-109566016D01*
X161370313Y-109442458D01*
X161374212Y-109410118D01*
X163908848Y-97976945D01*
X169031867Y-97976945D01*
X169036121Y-98106883D01*
X169036122Y-98106887D01*
X169065644Y-98233499D01*
X169087438Y-98281599D01*
X169119298Y-98351915D01*
X169119301Y-98351919D01*
X169195028Y-98457596D01*
X169253343Y-98512214D01*
X169289913Y-98546465D01*
X169289915Y-98546466D01*
X169289917Y-98546468D01*
X169346510Y-98581660D01*
X169400316Y-98615119D01*
X169400320Y-98615121D01*
X169488523Y-98648317D01*
X169521993Y-98660914D01*
X169554132Y-98666221D01*
X183014508Y-102272841D01*
X183044991Y-102284314D01*
X183077133Y-102289621D01*
X183077137Y-102289622D01*
X183109182Y-102294912D01*
X183173264Y-102305493D01*
X183173269Y-102305493D01*
X183195259Y-102304773D01*
X183303201Y-102301239D01*
X183303205Y-102301238D01*
X183303207Y-102301238D01*
X183375790Y-102284314D01*
X183429813Y-102271718D01*
X183429819Y-102271716D01*
X183498269Y-102240701D01*
X183548234Y-102218062D01*
X183548237Y-102218060D01*
X183548239Y-102218059D01*
X183584122Y-102192346D01*
X183653912Y-102142336D01*
X183742784Y-102047448D01*
X183742785Y-102047446D01*
X183742788Y-102047443D01*
X183811441Y-101937040D01*
X183857236Y-101815363D01*
X183862542Y-101783222D01*
X187469260Y-88322957D01*
X187480735Y-88292468D01*
X187493246Y-88216690D01*
X187501913Y-88164197D01*
X187497659Y-88034259D01*
X187497659Y-88034256D01*
X187468138Y-87907644D01*
X187414482Y-87789224D01*
X187338755Y-87683547D01*
X187243867Y-87594674D01*
X187133464Y-87526020D01*
X187042276Y-87491699D01*
X187042261Y-87491695D01*
X187011789Y-87480226D01*
X186979665Y-87474922D01*
X181736437Y-86069995D01*
X187278740Y-86069995D01*
X187278740Y-86589045D01*
X187380001Y-87098121D01*
X187578633Y-87577661D01*
X187867002Y-88009235D01*
X188234025Y-88376258D01*
X188665599Y-88664627D01*
X189145139Y-88863259D01*
X189654215Y-88964520D01*
X190173265Y-88964520D01*
X190682341Y-88863259D01*
X191161881Y-88664627D01*
X191593455Y-88376258D01*
X191960478Y-88009235D01*
X192248847Y-87577661D01*
X192447479Y-87098121D01*
X192548740Y-86589045D01*
X192548740Y-86069995D01*
X192447479Y-85560919D01*
X192248847Y-85081379D01*
X191960478Y-84649805D01*
X191817219Y-84506546D01*
X192363267Y-84506546D01*
X192363267Y-84506550D01*
X192367522Y-84636487D01*
X192384778Y-84710495D01*
X192397043Y-84763096D01*
X192450699Y-84881516D01*
X192526426Y-84987194D01*
X192526428Y-84987196D01*
X192621317Y-85076068D01*
X192731720Y-85144721D01*
X192812590Y-85175157D01*
X192853394Y-85190515D01*
X192885538Y-85195822D01*
X206345910Y-88802441D01*
X206376394Y-88813915D01*
X206408536Y-88819222D01*
X206408537Y-88819222D01*
X206426948Y-88822262D01*
X206504666Y-88835093D01*
X206504669Y-88835093D01*
X206634607Y-88830838D01*
X206723170Y-88810188D01*
X206761216Y-88801317D01*
X206761217Y-88801316D01*
X206761219Y-88801316D01*
X206829669Y-88770301D01*
X206879636Y-88747661D01*
X206985314Y-88671934D01*
X207034484Y-88619435D01*
X207074188Y-88577043D01*
X207142841Y-88466640D01*
X207188636Y-88344963D01*
X207193942Y-88312821D01*
X210800360Y-74853455D01*
X210811836Y-74822963D01*
X210823562Y-74751934D01*
X210833013Y-74694695D01*
X210832172Y-74668996D01*
X210828758Y-74564752D01*
X210799236Y-74438140D01*
X210745580Y-74319720D01*
X210669852Y-74214043D01*
X210574963Y-74125171D01*
X210464560Y-74056518D01*
X210373371Y-74022198D01*
X210373363Y-74022196D01*
X210342886Y-74010725D01*
X210310752Y-74005420D01*
X196850373Y-70398799D01*
X196819886Y-70387325D01*
X196691614Y-70366147D01*
X196691610Y-70366147D01*
X196561673Y-70370402D01*
X196527638Y-70378338D01*
X196435063Y-70399923D01*
X196316643Y-70453579D01*
X196210965Y-70529306D01*
X196122093Y-70624195D01*
X196053440Y-70734598D01*
X196019119Y-70825786D01*
X196019117Y-70825793D01*
X196007644Y-70856277D01*
X196002339Y-70888409D01*
X192395922Y-84347781D01*
X192384444Y-84378277D01*
X192371952Y-84453945D01*
X192363267Y-84506546D01*
X191817219Y-84506546D01*
X191593455Y-84282782D01*
X191161881Y-83994413D01*
X190682341Y-83795781D01*
X190173265Y-83694520D01*
X189654215Y-83694520D01*
X189145139Y-83795781D01*
X188665599Y-83994413D01*
X188234025Y-84282782D01*
X187867002Y-84649805D01*
X187578633Y-85081379D01*
X187380001Y-85560919D01*
X187278740Y-86069995D01*
X181736437Y-86069995D01*
X173519281Y-83868202D01*
X173488788Y-83856725D01*
X173360515Y-83835547D01*
X173230576Y-83839801D01*
X173103964Y-83869322D01*
X172985544Y-83922978D01*
X172879867Y-83998705D01*
X172790994Y-84093593D01*
X172722340Y-84203996D01*
X172688019Y-84295184D01*
X172688014Y-84295202D01*
X172676546Y-84325673D01*
X172671242Y-84357795D01*
X169064520Y-97818184D01*
X169053044Y-97848677D01*
X169047739Y-97880813D01*
X169031867Y-97976945D01*
X163908848Y-97976945D01*
X164390278Y-95805323D01*
X164400412Y-95774364D01*
X164415975Y-95645290D01*
X164406057Y-95515661D01*
X164371042Y-95390457D01*
X164312272Y-95274490D01*
X164232008Y-95172216D01*
X164133333Y-95087567D01*
X164133331Y-95087566D01*
X164133330Y-95087565D01*
X164104776Y-95071492D01*
X164020041Y-95023793D01*
X163927443Y-94993483D01*
X163927430Y-94993480D01*
X163896479Y-94983349D01*
X163864150Y-94979451D01*
X150259337Y-91963281D01*
X150228382Y-91953149D01*
X150196048Y-91949250D01*
X150196042Y-91949249D01*
X150099309Y-91937585D01*
X149988105Y-91946093D01*
X149969679Y-91947503D01*
X149899649Y-91967088D01*
X149844477Y-91982518D01*
X149844475Y-91982519D01*
X149728508Y-92041289D01*
X149626234Y-92121553D01*
X149541585Y-92220228D01*
X149477812Y-92333520D01*
X149447501Y-92426119D01*
X149447500Y-92426125D01*
X149437368Y-92457077D01*
X149433469Y-92489411D01*
X146417303Y-106094316D01*
X146407167Y-106125282D01*
X146399349Y-106190126D01*
X146391605Y-106254352D01*
X141875477Y-106254352D01*
X143156463Y-96523902D01*
X143163859Y-96492181D01*
X143168112Y-96362241D01*
X143146933Y-96233970D01*
X143101138Y-96112294D01*
X143032483Y-96001891D01*
X142943610Y-95907002D01*
X142837933Y-95831276D01*
X142719513Y-95777621D01*
X142624625Y-95755497D01*
X142624623Y-95755497D01*
X142592900Y-95748100D01*
X142560343Y-95747034D01*
X128744422Y-93928197D01*
X128712701Y-93920801D01*
X128680145Y-93919735D01*
X128680142Y-93919735D01*
X128582762Y-93916548D01*
X128582761Y-93916548D01*
X128563459Y-93919735D01*
X128454491Y-93937726D01*
X128378610Y-93966286D01*
X128332814Y-93983522D01*
X128264160Y-94026215D01*
X128222412Y-94052176D01*
X128222411Y-94052177D01*
X128127522Y-94141050D01*
X128051796Y-94246727D01*
X127998141Y-94365147D01*
X127976017Y-94460035D01*
X127976016Y-94460042D01*
X127968621Y-94491759D01*
X127967556Y-94524307D01*
X126148718Y-108340231D01*
X126141321Y-108371955D01*
X126137067Y-108501893D01*
X121744340Y-108501893D01*
X121744340Y-107216339D01*
X121747533Y-107183920D01*
X121734790Y-107054537D01*
X121697050Y-106930127D01*
X121635765Y-106815470D01*
X121553288Y-106714972D01*
X121452790Y-106632495D01*
X121338133Y-106571210D01*
X121213723Y-106533470D01*
X121116759Y-106523920D01*
X121084340Y-106520727D01*
X121051921Y-106523920D01*
X107116759Y-106523920D01*
X107084340Y-106520727D01*
X107051921Y-106523920D01*
X106954957Y-106533470D01*
X106830547Y-106571210D01*
X106715890Y-106632495D01*
X106615392Y-106714972D01*
X106532915Y-106815470D01*
X106471630Y-106930127D01*
X106433890Y-107054537D01*
X106421147Y-107183920D01*
X105276437Y-107183920D01*
X105312941Y-107176659D01*
X105792481Y-106978027D01*
X106224055Y-106689658D01*
X106591078Y-106322635D01*
X106879447Y-105891061D01*
X107078079Y-105411521D01*
X107179340Y-104902445D01*
X107179340Y-104383395D01*
X107078079Y-103874319D01*
X106879447Y-103394779D01*
X106591078Y-102963205D01*
X106224055Y-102596182D01*
X105792481Y-102307813D01*
X105312941Y-102109181D01*
X104803865Y-102007920D01*
X104284815Y-102007920D01*
X103775739Y-102109181D01*
X103296199Y-102307813D01*
X102864625Y-102596182D01*
X102497602Y-102963205D01*
X102209233Y-103394779D01*
X102010601Y-103874319D01*
X101909340Y-104383395D01*
X86167040Y-104383395D01*
X86167040Y-88132920D01*
X87371147Y-88132920D01*
X87374341Y-88165349D01*
X87374340Y-102100501D01*
X87371147Y-102132920D01*
X87383890Y-102262303D01*
X87421630Y-102386713D01*
X87482915Y-102501370D01*
X87560726Y-102596182D01*
X87565392Y-102601868D01*
X87665890Y-102684345D01*
X87780547Y-102745630D01*
X87904957Y-102783370D01*
X88034340Y-102796113D01*
X88066759Y-102792920D01*
X102001921Y-102792920D01*
X102034340Y-102796113D01*
X102066759Y-102792920D01*
X102163723Y-102783370D01*
X102288133Y-102745630D01*
X102402790Y-102684345D01*
X102503288Y-102601868D01*
X102585765Y-102501370D01*
X102647050Y-102386713D01*
X102684790Y-102262303D01*
X102697533Y-102132920D01*
X102694340Y-102100501D01*
X102694340Y-88165339D01*
X102697533Y-88132920D01*
X102684790Y-88003537D01*
X102647050Y-87879127D01*
X102585765Y-87764470D01*
X102503288Y-87663972D01*
X102402790Y-87581495D01*
X102288133Y-87520210D01*
X102163723Y-87482470D01*
X102066759Y-87472920D01*
X102034340Y-87469727D01*
X102001921Y-87472920D01*
X88066759Y-87472920D01*
X88034340Y-87469727D01*
X88001921Y-87472920D01*
X87904957Y-87482470D01*
X87780547Y-87520210D01*
X87665890Y-87581495D01*
X87565392Y-87663972D01*
X87482915Y-87764470D01*
X87421630Y-87879127D01*
X87383890Y-88003537D01*
X87371147Y-88132920D01*
X86167040Y-88132920D01*
X86167040Y-85333395D01*
X101909340Y-85333395D01*
X101909340Y-85852445D01*
X102010601Y-86361521D01*
X102209233Y-86841061D01*
X102497602Y-87272635D01*
X102864625Y-87639658D01*
X103296199Y-87928027D01*
X103775739Y-88126659D01*
X104284815Y-88227920D01*
X104803865Y-88227920D01*
X105281464Y-88132920D01*
X106421147Y-88132920D01*
X106424340Y-88165339D01*
X106424341Y-102100491D01*
X106421147Y-102132920D01*
X106433890Y-102262303D01*
X106471630Y-102386713D01*
X106532915Y-102501370D01*
X106615392Y-102601868D01*
X106715890Y-102684345D01*
X106830547Y-102745630D01*
X106954957Y-102783370D01*
X107051921Y-102792920D01*
X107084340Y-102796113D01*
X107116759Y-102792920D01*
X121051921Y-102792920D01*
X121084340Y-102796113D01*
X121116759Y-102792920D01*
X121213723Y-102783370D01*
X121338133Y-102745630D01*
X121452790Y-102684345D01*
X121553288Y-102601868D01*
X121635765Y-102501370D01*
X121697050Y-102386713D01*
X121734790Y-102262303D01*
X121747533Y-102132920D01*
X121744340Y-102100501D01*
X121744340Y-89614898D01*
X128623568Y-89614898D01*
X128644746Y-89743169D01*
X128690542Y-89864845D01*
X128759196Y-89975248D01*
X128848069Y-90070137D01*
X128953747Y-90145863D01*
X129072166Y-90199518D01*
X129167054Y-90221642D01*
X129167056Y-90221642D01*
X129198780Y-90229039D01*
X129231336Y-90230105D01*
X143047254Y-92048942D01*
X143078975Y-92056339D01*
X143208913Y-92060593D01*
X143337185Y-92039415D01*
X143458860Y-91993620D01*
X143458864Y-91993618D01*
X143492038Y-91972988D01*
X143569264Y-91924967D01*
X143664153Y-91836094D01*
X143739880Y-91730417D01*
X143793536Y-91611998D01*
X143815661Y-91517110D01*
X143815661Y-91517108D01*
X143823059Y-91485381D01*
X143824125Y-91452824D01*
X144324016Y-87655852D01*
X150514805Y-87655852D01*
X150523116Y-87764471D01*
X150524723Y-87785479D01*
X150559738Y-87910683D01*
X150618508Y-88026650D01*
X150698772Y-88128925D01*
X150797447Y-88213574D01*
X150910739Y-88277347D01*
X151034297Y-88317792D01*
X151066639Y-88321692D01*
X164671538Y-91337857D01*
X164702502Y-91347993D01*
X164779014Y-91357218D01*
X164831571Y-91363555D01*
X164831577Y-91363555D01*
X164886855Y-91359325D01*
X164961200Y-91353637D01*
X164961203Y-91353636D01*
X164961205Y-91353636D01*
X165086408Y-91318620D01*
X165202375Y-91259849D01*
X165304649Y-91179584D01*
X165389297Y-91080909D01*
X165453069Y-90967616D01*
X165483379Y-90875017D01*
X165483380Y-90875013D01*
X165493511Y-90844062D01*
X165497410Y-90811727D01*
X167988244Y-79576046D01*
X173962367Y-79576046D01*
X173962367Y-79576050D01*
X173966622Y-79705987D01*
X173987272Y-79794550D01*
X173996143Y-79832596D01*
X174049799Y-79951016D01*
X174125526Y-80056694D01*
X174125528Y-80056696D01*
X174220417Y-80145568D01*
X174330820Y-80214221D01*
X174411690Y-80244657D01*
X174452494Y-80260015D01*
X174484638Y-80265322D01*
X187945010Y-83871941D01*
X187975494Y-83883415D01*
X188007636Y-83888722D01*
X188007637Y-83888722D01*
X188026048Y-83891762D01*
X188103766Y-83904593D01*
X188103769Y-83904593D01*
X188233707Y-83900338D01*
X188322270Y-83879688D01*
X188360316Y-83870817D01*
X188360317Y-83870816D01*
X188360319Y-83870816D01*
X188428769Y-83839801D01*
X188478736Y-83817161D01*
X188584414Y-83741434D01*
X188628353Y-83694520D01*
X188673288Y-83646543D01*
X188741941Y-83536140D01*
X188787736Y-83414463D01*
X188793042Y-83382321D01*
X192399460Y-69922955D01*
X192410936Y-69892463D01*
X192421719Y-69827148D01*
X192432113Y-69764195D01*
X192429322Y-69678948D01*
X192427858Y-69634252D01*
X192398336Y-69507640D01*
X192344680Y-69389220D01*
X192268952Y-69283543D01*
X192174063Y-69194671D01*
X192063660Y-69126018D01*
X191972471Y-69091698D01*
X191972463Y-69091696D01*
X191941986Y-69080225D01*
X191909852Y-69074920D01*
X178449473Y-65468299D01*
X178418986Y-65456825D01*
X178290714Y-65435647D01*
X178290710Y-65435647D01*
X178160773Y-65439902D01*
X178115484Y-65450462D01*
X178034163Y-65469423D01*
X177915743Y-65523079D01*
X177810065Y-65598806D01*
X177721193Y-65693695D01*
X177652540Y-65804098D01*
X177652539Y-65804100D01*
X177644066Y-65826613D01*
X177618219Y-65895286D01*
X177618217Y-65895293D01*
X177606744Y-65925777D01*
X177601439Y-65957909D01*
X173995022Y-79417281D01*
X173983544Y-79447777D01*
X173969719Y-79531517D01*
X173962367Y-79576046D01*
X167988244Y-79576046D01*
X168513478Y-77206820D01*
X168523613Y-77175859D01*
X168539175Y-77046784D01*
X168529256Y-76917155D01*
X168494240Y-76791951D01*
X168435469Y-76675985D01*
X168355204Y-76573711D01*
X168256529Y-76489063D01*
X168143237Y-76425291D01*
X168050638Y-76394980D01*
X168050628Y-76394978D01*
X168019678Y-76384847D01*
X167987348Y-76380949D01*
X154382544Y-73364883D01*
X154351583Y-73354748D01*
X154222509Y-73339185D01*
X154222504Y-73339185D01*
X154176439Y-73342710D01*
X154092880Y-73349103D01*
X154092877Y-73349104D01*
X154092876Y-73349104D01*
X154086640Y-73350848D01*
X153967676Y-73384118D01*
X153851709Y-73442888D01*
X153749435Y-73523152D01*
X153749432Y-73523155D01*
X153731287Y-73544307D01*
X153664786Y-73621826D01*
X153601012Y-73735119D01*
X153570702Y-73827717D01*
X153570701Y-73827723D01*
X153560567Y-73858681D01*
X153556668Y-73891018D01*
X150540503Y-87495816D01*
X150530368Y-87526778D01*
X150514805Y-87655852D01*
X144324016Y-87655852D01*
X145643062Y-77636909D01*
X145650459Y-77605185D01*
X145654713Y-77475245D01*
X145633535Y-77346974D01*
X145587740Y-77225298D01*
X145519087Y-77114894D01*
X145430214Y-77020005D01*
X145368652Y-76975891D01*
X145324538Y-76944279D01*
X145287612Y-76927548D01*
X145206118Y-76890622D01*
X145111230Y-76868498D01*
X145111228Y-76868498D01*
X145079505Y-76861101D01*
X145046949Y-76860035D01*
X131230929Y-75041098D01*
X131199200Y-75033700D01*
X131092693Y-75030214D01*
X131069266Y-75029447D01*
X131069261Y-75029447D01*
X130940989Y-75050626D01*
X130819314Y-75096422D01*
X130708911Y-75165076D01*
X130614022Y-75253950D01*
X130538296Y-75359627D01*
X130484641Y-75478047D01*
X130474960Y-75519570D01*
X130455121Y-75604655D01*
X130454055Y-75637212D01*
X128635218Y-89453236D01*
X128627821Y-89484959D01*
X128623568Y-89614898D01*
X121744340Y-89614898D01*
X121744340Y-88165339D01*
X121747533Y-88132920D01*
X121734790Y-88003537D01*
X121697050Y-87879127D01*
X121635765Y-87764470D01*
X121553288Y-87663972D01*
X121452790Y-87581495D01*
X121338133Y-87520210D01*
X121213723Y-87482470D01*
X121116759Y-87472920D01*
X121084340Y-87469727D01*
X121051921Y-87472920D01*
X107116759Y-87472920D01*
X107084340Y-87469727D01*
X107051921Y-87472920D01*
X106954957Y-87482470D01*
X106830547Y-87520210D01*
X106715890Y-87581495D01*
X106615392Y-87663972D01*
X106532915Y-87764470D01*
X106471630Y-87879127D01*
X106433890Y-88003537D01*
X106421147Y-88132920D01*
X105281464Y-88132920D01*
X105312941Y-88126659D01*
X105792481Y-87928027D01*
X106224055Y-87639658D01*
X106591078Y-87272635D01*
X106879447Y-86841061D01*
X107078079Y-86361521D01*
X107179340Y-85852445D01*
X107179340Y-85333395D01*
X107078079Y-84824319D01*
X106879447Y-84344779D01*
X106591078Y-83913205D01*
X106224055Y-83546182D01*
X105792481Y-83257813D01*
X105312941Y-83059181D01*
X104803865Y-82957920D01*
X104284815Y-82957920D01*
X103775739Y-83059181D01*
X103296199Y-83257813D01*
X102864625Y-83546182D01*
X102497602Y-83913205D01*
X102209233Y-84344779D01*
X102010601Y-84824319D01*
X101909340Y-85333395D01*
X86167040Y-85333395D01*
X86167040Y-69082920D01*
X87371147Y-69082920D01*
X87374340Y-69115339D01*
X87374341Y-83050491D01*
X87371147Y-83082920D01*
X87383890Y-83212303D01*
X87421630Y-83336713D01*
X87482915Y-83451370D01*
X87565392Y-83551868D01*
X87665890Y-83634345D01*
X87780547Y-83695630D01*
X87904957Y-83733370D01*
X88001921Y-83742920D01*
X88034340Y-83746113D01*
X88066759Y-83742920D01*
X102001921Y-83742920D01*
X102034340Y-83746113D01*
X102066759Y-83742920D01*
X102163723Y-83733370D01*
X102288133Y-83695630D01*
X102402790Y-83634345D01*
X102503288Y-83551868D01*
X102585765Y-83451370D01*
X102647050Y-83336713D01*
X102684790Y-83212303D01*
X102697533Y-83082920D01*
X102694340Y-83050501D01*
X102694340Y-69115339D01*
X102697533Y-69082920D01*
X106421147Y-69082920D01*
X106424340Y-69115339D01*
X106424341Y-83050491D01*
X106421147Y-83082920D01*
X106433890Y-83212303D01*
X106471630Y-83336713D01*
X106532915Y-83451370D01*
X106615392Y-83551868D01*
X106715890Y-83634345D01*
X106830547Y-83695630D01*
X106954957Y-83733370D01*
X107051921Y-83742920D01*
X107084340Y-83746113D01*
X107116759Y-83742920D01*
X121051921Y-83742920D01*
X121084340Y-83746113D01*
X121116759Y-83742920D01*
X121213723Y-83733370D01*
X121338133Y-83695630D01*
X121452790Y-83634345D01*
X121553288Y-83551868D01*
X121635765Y-83451370D01*
X121697050Y-83336713D01*
X121734790Y-83212303D01*
X121747533Y-83082920D01*
X121744340Y-83050501D01*
X121744340Y-70727793D01*
X131110067Y-70727793D01*
X131131245Y-70856065D01*
X131177040Y-70977740D01*
X131245693Y-71088144D01*
X131334566Y-71183033D01*
X131440243Y-71258760D01*
X131558662Y-71312416D01*
X131685275Y-71341939D01*
X131717840Y-71343005D01*
X145533753Y-73161942D01*
X145565475Y-73169339D01*
X145598032Y-73170405D01*
X145598033Y-73170405D01*
X145670200Y-73172768D01*
X145695413Y-73173593D01*
X145695414Y-73173593D01*
X145823685Y-73152415D01*
X145945361Y-73106620D01*
X146055765Y-73037967D01*
X146074718Y-73020215D01*
X147348140Y-73020215D01*
X147348140Y-73539265D01*
X147449401Y-74048341D01*
X147648033Y-74527881D01*
X147936402Y-74959455D01*
X148303425Y-75326478D01*
X148734999Y-75614847D01*
X149214539Y-75813479D01*
X149723615Y-75914740D01*
X150242665Y-75914740D01*
X150751741Y-75813479D01*
X151231281Y-75614847D01*
X151662855Y-75326478D01*
X152029878Y-74959455D01*
X152318247Y-74527881D01*
X152516879Y-74048341D01*
X152618140Y-73539265D01*
X152618140Y-73020215D01*
X152516879Y-72511139D01*
X152318247Y-72031599D01*
X152029878Y-71600025D01*
X151662855Y-71233002D01*
X151231281Y-70944633D01*
X150751741Y-70746001D01*
X150242665Y-70644740D01*
X149723615Y-70644740D01*
X149214539Y-70746001D01*
X148734999Y-70944633D01*
X148303425Y-71233002D01*
X147936402Y-71600025D01*
X147648033Y-72031599D01*
X147449401Y-72511139D01*
X147348140Y-73020215D01*
X146074718Y-73020215D01*
X146150654Y-72949094D01*
X146226381Y-72843418D01*
X146280037Y-72724998D01*
X146309559Y-72598385D01*
X146310625Y-72565820D01*
X146772519Y-69057456D01*
X154638005Y-69057456D01*
X154647924Y-69187084D01*
X154682940Y-69312288D01*
X154741711Y-69428254D01*
X154821975Y-69530528D01*
X154920650Y-69615176D01*
X155033943Y-69678948D01*
X155157501Y-69719393D01*
X155189843Y-69723292D01*
X168794645Y-72739360D01*
X168825596Y-72749491D01*
X168857936Y-72753391D01*
X168857942Y-72753392D01*
X168913647Y-72760108D01*
X168954670Y-72765055D01*
X168954674Y-72765055D01*
X169001514Y-72761471D01*
X169084298Y-72755137D01*
X169084301Y-72755136D01*
X169084304Y-72755136D01*
X169150638Y-72736584D01*
X169209502Y-72720122D01*
X169209505Y-72720121D01*
X169209507Y-72720120D01*
X169250597Y-72699296D01*
X169325470Y-72661352D01*
X169365279Y-72630110D01*
X169427748Y-72581085D01*
X169492738Y-72505326D01*
X169512393Y-72482414D01*
X169512394Y-72482413D01*
X169512396Y-72482410D01*
X169542932Y-72428162D01*
X169576166Y-72369122D01*
X169582379Y-72350144D01*
X169616613Y-72245559D01*
X169620513Y-72213216D01*
X172636480Y-58609414D01*
X172646611Y-58578462D01*
X172650509Y-58546133D01*
X172650511Y-58546124D01*
X172662175Y-58449391D01*
X172653368Y-58334277D01*
X172652257Y-58319759D01*
X172617241Y-58194555D01*
X172558471Y-58078588D01*
X172478207Y-57976314D01*
X172379532Y-57891665D01*
X172266240Y-57827892D01*
X172173641Y-57797581D01*
X172173628Y-57797578D01*
X172142684Y-57787449D01*
X172110355Y-57783551D01*
X158505438Y-54767382D01*
X158474479Y-54757248D01*
X158425570Y-54751351D01*
X158345408Y-54741685D01*
X158345404Y-54741685D01*
X158302445Y-54744972D01*
X158215780Y-54751603D01*
X158215777Y-54751604D01*
X158215775Y-54751604D01*
X158090571Y-54786620D01*
X157974605Y-54845391D01*
X157872331Y-54925656D01*
X157787683Y-55024331D01*
X157723910Y-55137623D01*
X157693600Y-55230222D01*
X157693598Y-55230232D01*
X157683468Y-55261178D01*
X157679570Y-55293510D01*
X154663702Y-68897419D01*
X154653567Y-68928381D01*
X154649668Y-68960723D01*
X154638005Y-69057456D01*
X146772519Y-69057456D01*
X148129562Y-58749910D01*
X148136959Y-58718185D01*
X148141213Y-58588246D01*
X148120035Y-58459974D01*
X148074241Y-58338299D01*
X148005587Y-58227895D01*
X147916715Y-58133006D01*
X147811038Y-58057279D01*
X147692618Y-58003623D01*
X147597731Y-57981498D01*
X147597726Y-57981497D01*
X147566005Y-57974101D01*
X147533451Y-57973035D01*
X133717539Y-56154100D01*
X133685805Y-56146701D01*
X133559292Y-56142559D01*
X133555867Y-56142447D01*
X133555866Y-56142447D01*
X133427594Y-56163625D01*
X133305919Y-56209419D01*
X133195515Y-56278073D01*
X133100626Y-56366945D01*
X133024899Y-56472622D01*
X132971243Y-56591042D01*
X132949118Y-56685929D01*
X132949117Y-56685936D01*
X132941721Y-56717655D01*
X132940655Y-56750209D01*
X131121720Y-70566123D01*
X131114321Y-70597855D01*
X131110067Y-70727793D01*
X121744340Y-70727793D01*
X121744340Y-69115339D01*
X121747533Y-69082920D01*
X121734790Y-68953537D01*
X121697050Y-68829127D01*
X121635765Y-68714470D01*
X121553288Y-68613972D01*
X121452790Y-68531495D01*
X121338133Y-68470210D01*
X121213723Y-68432470D01*
X121116759Y-68422920D01*
X121084340Y-68419727D01*
X121051921Y-68422920D01*
X107116759Y-68422920D01*
X107084340Y-68419727D01*
X107051921Y-68422920D01*
X106954957Y-68432470D01*
X106830547Y-68470210D01*
X106715890Y-68531495D01*
X106615392Y-68613972D01*
X106532915Y-68714470D01*
X106471630Y-68829127D01*
X106433890Y-68953537D01*
X106421147Y-69082920D01*
X102697533Y-69082920D01*
X102684790Y-68953537D01*
X102647050Y-68829127D01*
X102585765Y-68714470D01*
X102503288Y-68613972D01*
X102402790Y-68531495D01*
X102288133Y-68470210D01*
X102163723Y-68432470D01*
X102066759Y-68422920D01*
X102034340Y-68419727D01*
X102001921Y-68422920D01*
X88066759Y-68422920D01*
X88034340Y-68419727D01*
X88001921Y-68422920D01*
X87904957Y-68432470D01*
X87780547Y-68470210D01*
X87665890Y-68531495D01*
X87565392Y-68613972D01*
X87482915Y-68714470D01*
X87421630Y-68829127D01*
X87383890Y-68953537D01*
X87371147Y-69082920D01*
X86167040Y-69082920D01*
X86167040Y-68082822D01*
X86186142Y-67888004D01*
X86233348Y-67731648D01*
X86310023Y-67587446D01*
X86413246Y-67460880D01*
X86539091Y-67356772D01*
X86682757Y-67279093D01*
X86838771Y-67230798D01*
X87031527Y-67210539D01*
X128491181Y-67210582D01*
X128503039Y-67209414D01*
X128590639Y-67206254D01*
X128629830Y-67200979D01*
X128669319Y-67198680D01*
X128678412Y-67197185D01*
X128966947Y-67147699D01*
X129024630Y-67131884D01*
X129082542Y-67116873D01*
X129091172Y-67113641D01*
X129364601Y-67009054D01*
X129418136Y-66982325D01*
X129472008Y-66956361D01*
X129479846Y-66951514D01*
X129727753Y-66795809D01*
X129775060Y-66759204D01*
X129822880Y-66723258D01*
X129829626Y-66716981D01*
X130042569Y-66516089D01*
X130081874Y-66470981D01*
X130121790Y-66426445D01*
X130127189Y-66418977D01*
X130297056Y-66180551D01*
X130326848Y-66128674D01*
X130357358Y-66077224D01*
X130361204Y-66068849D01*
X130481525Y-65801970D01*
X130500672Y-65745299D01*
X130520608Y-65688901D01*
X130522754Y-65679939D01*
X130588947Y-65394771D01*
X130588947Y-65394769D01*
X130596157Y-65363853D01*
X131885200Y-55575510D01*
X131929504Y-55384687D01*
X131996629Y-55235822D01*
X132091389Y-55102831D01*
X132210172Y-54990784D01*
X132348458Y-54903939D01*
X132500978Y-54845609D01*
X132661926Y-54818014D01*
X132855513Y-54822986D01*
X153951662Y-57600446D01*
X153970677Y-57601069D01*
X154130075Y-57612771D01*
X154176746Y-57611630D01*
X154223415Y-57613006D01*
X154232604Y-57612313D01*
X154524337Y-57588272D01*
X154583148Y-57577572D01*
X154642188Y-57567681D01*
X154651067Y-57565216D01*
X154932575Y-57484968D01*
X154988205Y-57463042D01*
X155044181Y-57441879D01*
X155052413Y-57437736D01*
X155312971Y-57304338D01*
X155363311Y-57272007D01*
X155414081Y-57240392D01*
X155421351Y-57234730D01*
X155651037Y-57053262D01*
X155694124Y-57011782D01*
X155737800Y-56970896D01*
X155743832Y-56963930D01*
X155933897Y-56741307D01*
X155968111Y-56692243D01*
X156003012Y-56643654D01*
X156007576Y-56635648D01*
X156150780Y-56380347D01*
X156174825Y-56325543D01*
X156199610Y-56271130D01*
X156202532Y-56262390D01*
X156293420Y-55984136D01*
X156293422Y-55984127D01*
X156303387Y-55953678D01*
X156729423Y-54031475D01*
X156790201Y-53845432D01*
X156870074Y-53703052D01*
X156976078Y-53578902D01*
X157104179Y-53477702D01*
X157249500Y-53403311D01*
X157406494Y-53358566D01*
X157569200Y-53345166D01*
X157761655Y-53367065D01*
X157761655Y-53367065D01*
G37*
X157761655Y-53367065D02*
X173375550Y-56827903D01*
X173561650Y-56888752D01*
X173704132Y-56968729D01*
X173828373Y-57074864D01*
X173929631Y-57203108D01*
X174004052Y-57348578D01*
X174048798Y-57505725D01*
X174062170Y-57668580D01*
X174040197Y-57861251D01*
X173397655Y-60761288D01*
X173394528Y-60787245D01*
X173362649Y-61015652D01*
X173360453Y-61069265D01*
X173356504Y-61122775D01*
X173356790Y-61131985D01*
X173367926Y-61424601D01*
X173376024Y-61483869D01*
X173383292Y-61543245D01*
X173385362Y-61552225D01*
X173453122Y-61837104D01*
X173472581Y-61893684D01*
X173491240Y-61950504D01*
X173495015Y-61958911D01*
X173616818Y-62225203D01*
X173646872Y-62276882D01*
X173676237Y-62329041D01*
X173681573Y-62336554D01*
X173852780Y-62574116D01*
X173892314Y-62618991D01*
X173931233Y-62664432D01*
X173937927Y-62670766D01*
X174152015Y-62870550D01*
X174199511Y-62906890D01*
X174246520Y-62943910D01*
X174254317Y-62948823D01*
X174503132Y-63103218D01*
X174556770Y-63129635D01*
X174610084Y-63156824D01*
X174618686Y-63160129D01*
X174892751Y-63263256D01*
X174892768Y-63263260D01*
X174923068Y-63274664D01*
X211597171Y-73100638D01*
X211780433Y-73169512D01*
X211919252Y-73255575D01*
X212038710Y-73366961D01*
X212134258Y-73499429D01*
X212202255Y-73647930D01*
X212240114Y-73806815D01*
X212246392Y-73970023D01*
X212216084Y-74161439D01*
X197432736Y-129349010D01*
X197429105Y-129371011D01*
X197391647Y-129561494D01*
X197386825Y-129611345D01*
X197379834Y-129660946D01*
X197379509Y-129670155D01*
X197371218Y-129962846D01*
X197375364Y-130022476D01*
X197378682Y-130082246D01*
X197380152Y-130091343D01*
X197428869Y-130380071D01*
X197444523Y-130437778D01*
X197459383Y-130495750D01*
X197462592Y-130504388D01*
X197566462Y-130778154D01*
X197593049Y-130831765D01*
X197618865Y-130885703D01*
X197623690Y-130893554D01*
X197778758Y-131141931D01*
X197815223Y-131189321D01*
X197851051Y-131237253D01*
X197857310Y-131244017D01*
X198057667Y-131457543D01*
X198102610Y-131496919D01*
X198147096Y-131537007D01*
X198154550Y-131542426D01*
X198392564Y-131712971D01*
X198392577Y-131712979D01*
X198418909Y-131731847D01*
X214633095Y-141092901D01*
X214792229Y-141206850D01*
X214904013Y-141325908D01*
X214990544Y-141464413D01*
X215048524Y-141617087D01*
X215075747Y-141778123D01*
X215071173Y-141941371D01*
X215034978Y-142100622D01*
X214956125Y-142277690D01*
X206960750Y-156129323D01*
X206846771Y-156288366D01*
X206727600Y-156400168D01*
X206588973Y-156486700D01*
X206436188Y-156544654D01*
X206275047Y-156571830D01*
X206111699Y-156567189D01*
X205952367Y-156530910D01*
X205775192Y-156451925D01*
X198918998Y-152492968D01*
X198917431Y-152492258D01*
X197906853Y-151915738D01*
X197904675Y-151914548D01*
X197893214Y-151908169D01*
X194264610Y-149950281D01*
X194261550Y-149948702D01*
X194258511Y-149947031D01*
X194243116Y-149939187D01*
X190545205Y-148115579D01*
X190542078Y-148114108D01*
X190538991Y-148112555D01*
X190523318Y-148105280D01*
X188936709Y-147393893D01*
X193045467Y-147393893D01*
X193066645Y-147522165D01*
X193066646Y-147522167D01*
X193112441Y-147643844D01*
X193181095Y-147754246D01*
X193269967Y-147849135D01*
X193323469Y-147887473D01*
X193375643Y-147924861D01*
X193405322Y-147938308D01*
X205473568Y-154905889D01*
X205500043Y-154924861D01*
X205618463Y-154978517D01*
X205745075Y-155008038D01*
X205875013Y-155012293D01*
X206003285Y-154991115D01*
X206124961Y-154945320D01*
X206235364Y-154876666D01*
X206235366Y-154876665D01*
X206330255Y-154787792D01*
X206405982Y-154682115D01*
X206419426Y-154652444D01*
X213387009Y-142584291D01*
X213405982Y-142557815D01*
X213426153Y-142513297D01*
X213459637Y-142439398D01*
X213489158Y-142312785D01*
X213493413Y-142182847D01*
X213472235Y-142054575D01*
X213472234Y-142054573D01*
X213472234Y-142054571D01*
X213449167Y-141993283D01*
X213426440Y-141932898D01*
X213357787Y-141822495D01*
X213268915Y-141727606D01*
X213239058Y-141706211D01*
X213189714Y-141670851D01*
X213189707Y-141670847D01*
X213163237Y-141651879D01*
X213133574Y-141638439D01*
X201065319Y-134670856D01*
X201038837Y-134651879D01*
X200920417Y-134598223D01*
X200920415Y-134598222D01*
X200793802Y-134568701D01*
X200733232Y-134566718D01*
X200663866Y-134564447D01*
X200535594Y-134585625D01*
X200413918Y-134631420D01*
X200413917Y-134631421D01*
X200413916Y-134631421D01*
X200397328Y-134641736D01*
X200303515Y-134700073D01*
X200208626Y-134788945D01*
X200151873Y-134868144D01*
X200151870Y-134868150D01*
X200132898Y-134894625D01*
X200119456Y-134924291D01*
X193151874Y-146992443D01*
X193132898Y-147018925D01*
X193079242Y-147137345D01*
X193049721Y-147263958D01*
X193048744Y-147293810D01*
X193045467Y-147393893D01*
X188936709Y-147393893D01*
X186761067Y-146418402D01*
X186757905Y-146417053D01*
X186754746Y-146415607D01*
X186738910Y-146408951D01*
X186738817Y-146408911D01*
X186738789Y-146408900D01*
X182917279Y-144861030D01*
X182914085Y-144859804D01*
X182910860Y-144858468D01*
X182894697Y-144852361D01*
X179019006Y-143445554D01*
X179015748Y-143444439D01*
X179012498Y-143443230D01*
X178996122Y-143437719D01*
X175071482Y-142173876D01*
X175068177Y-142172878D01*
X175064893Y-142171792D01*
X175048500Y-142166936D01*
X175048326Y-142166884D01*
X175048275Y-142166871D01*
X171080010Y-141047704D01*
X171076696Y-141046835D01*
X171073349Y-141045862D01*
X171056743Y-141041599D01*
X171056612Y-141041565D01*
X171056573Y-141041556D01*
X167070529Y-140073547D01*
X174531779Y-140073547D01*
X174550153Y-140202250D01*
X174593284Y-140324896D01*
X174659512Y-140436772D01*
X174746293Y-140533576D01*
X174850293Y-140611591D01*
X174967514Y-140667817D01*
X174999078Y-140675906D01*
X188093840Y-145442028D01*
X188123214Y-145456117D01*
X188201788Y-145476255D01*
X188249152Y-145488394D01*
X188378967Y-145495481D01*
X188507670Y-145477107D01*
X188630316Y-145433976D01*
X188742192Y-145367748D01*
X188838996Y-145280967D01*
X188917011Y-145176967D01*
X188953759Y-145100352D01*
X188973237Y-145059745D01*
X188981326Y-145028184D01*
X193747450Y-131933414D01*
X193761537Y-131904045D01*
X193793814Y-131778107D01*
X193795962Y-131738754D01*
X193800901Y-131648293D01*
X193785787Y-131542426D01*
X193782527Y-131519589D01*
X193739396Y-131396943D01*
X193673168Y-131285067D01*
X193586386Y-131188263D01*
X193482387Y-131110248D01*
X193394537Y-131068111D01*
X193394531Y-131068109D01*
X193365165Y-131054023D01*
X193333613Y-131045937D01*
X180238837Y-126279812D01*
X180209465Y-126265723D01*
X180083527Y-126233446D01*
X179953713Y-126226359D01*
X179953712Y-126226359D01*
X179825009Y-126244733D01*
X179702363Y-126287864D01*
X179590487Y-126354092D01*
X179493683Y-126440874D01*
X179415668Y-126544873D01*
X179373531Y-126632723D01*
X179359443Y-126662094D01*
X179351356Y-126693648D01*
X174585234Y-139788417D01*
X174571143Y-139817794D01*
X174550096Y-139899915D01*
X174538866Y-139943733D01*
X174531779Y-140073547D01*
X167070529Y-140073547D01*
X167049952Y-140068550D01*
X167046550Y-140067789D01*
X167043227Y-140066955D01*
X167026527Y-140063314D01*
X167026345Y-140063273D01*
X167026292Y-140063263D01*
X162986720Y-139237731D01*
X162983346Y-139237106D01*
X162979942Y-139236382D01*
X162963085Y-139233350D01*
X162962936Y-139233322D01*
X162962892Y-139233315D01*
X158895773Y-138556362D01*
X158892357Y-138555858D01*
X158888950Y-138555263D01*
X158871844Y-138552828D01*
X154782606Y-138025357D01*
X154779162Y-138024977D01*
X154775747Y-138024509D01*
X154758751Y-138022723D01*
X154758563Y-138022702D01*
X154758509Y-138022698D01*
X150652743Y-137645431D01*
X150649323Y-137645180D01*
X150645858Y-137644834D01*
X150628619Y-137643659D01*
X146511732Y-137417093D01*
X146508293Y-137416967D01*
X146504829Y-137416749D01*
X146487559Y-137416207D01*
X142391497Y-137341134D01*
X142385476Y-137340541D01*
X125142478Y-137340101D01*
X124952531Y-137321477D01*
X124796171Y-137274269D01*
X124651960Y-137197590D01*
X124525388Y-137094361D01*
X124421277Y-136968512D01*
X124343596Y-136824844D01*
X124295299Y-136668821D01*
X124275040Y-136476067D01*
X124275040Y-125168121D01*
X124272222Y-125139512D01*
X124272287Y-125130252D01*
X124271388Y-125121081D01*
X124240788Y-124829935D01*
X124228750Y-124771293D01*
X124217550Y-124712577D01*
X124214887Y-124703756D01*
X124128319Y-124424100D01*
X124105141Y-124368962D01*
X124082729Y-124313490D01*
X124078402Y-124305354D01*
X123939163Y-124047838D01*
X123905741Y-123998289D01*
X123872960Y-123948193D01*
X123867135Y-123941052D01*
X123680530Y-123715485D01*
X123638094Y-123673344D01*
X123596231Y-123630595D01*
X123589131Y-123624721D01*
X123362267Y-123439695D01*
X123312448Y-123406595D01*
X123263085Y-123372796D01*
X123254979Y-123368413D01*
X122996498Y-123230976D01*
X122941204Y-123208185D01*
X122886211Y-123184615D01*
X122877408Y-123181890D01*
X122597154Y-123097276D01*
X122538469Y-123085656D01*
X122479961Y-123073220D01*
X122470798Y-123072257D01*
X122470796Y-123072257D01*
X122179444Y-123043690D01*
X122179442Y-123043690D01*
X122147459Y-123040540D01*
X87039359Y-123040540D01*
X86844531Y-123021437D01*
X86688171Y-122974229D01*
X86543960Y-122897550D01*
X86417388Y-122794321D01*
X86313277Y-122668472D01*
X86235596Y-122524804D01*
X86187299Y-122368781D01*
X86167040Y-122176027D01*
X86167040Y-107183920D01*
X87371147Y-107183920D01*
X87374341Y-107216349D01*
X87374340Y-121151501D01*
X87371147Y-121183920D01*
X87383890Y-121313303D01*
X87421630Y-121437713D01*
X87482915Y-121552370D01*
X87553594Y-121638492D01*
X87565392Y-121652868D01*
X87665890Y-121735345D01*
X87780547Y-121796630D01*
X87904957Y-121834370D01*
X88034340Y-121847113D01*
X88066759Y-121843920D01*
X102001921Y-121843920D01*
X102034340Y-121847113D01*
X102066759Y-121843920D01*
X102163723Y-121834370D01*
X102288133Y-121796630D01*
X102402790Y-121735345D01*
X102503288Y-121652868D01*
X102585765Y-121552370D01*
X102647050Y-121437713D01*
X102684790Y-121313303D01*
X102697533Y-121183920D01*
X102694340Y-121151501D01*
X102694340Y-107216339D01*
X102697533Y-107183920D01*
X102684790Y-107054537D01*
X102647050Y-106930127D01*
X102585765Y-106815470D01*
X102503288Y-106714972D01*
X102402790Y-106632495D01*
X102288133Y-106571210D01*
X102163723Y-106533470D01*
X102034340Y-106520727D01*
X102001921Y-106523920D01*
X88066759Y-106523920D01*
X88034340Y-106520727D01*
X88001921Y-106523920D01*
X87904957Y-106533470D01*
X87780547Y-106571210D01*
X87665890Y-106632495D01*
X87565392Y-106714972D01*
X87482915Y-106815470D01*
X87421630Y-106930127D01*
X87383890Y-107054537D01*
X87371147Y-107183920D01*
X86167040Y-107183920D01*
X86167040Y-104383395D01*
X101909340Y-104383395D01*
X101909340Y-104902445D01*
X102010601Y-105411521D01*
X102209233Y-105891061D01*
X102497602Y-106322635D01*
X102864625Y-106689658D01*
X103296199Y-106978027D01*
X103775739Y-107176659D01*
X104284815Y-107277920D01*
X104803865Y-107277920D01*
X105276437Y-107183920D01*
X106421147Y-107183920D01*
X106424341Y-107216349D01*
X106424340Y-121151501D01*
X106421147Y-121183920D01*
X106433890Y-121313303D01*
X106471630Y-121437713D01*
X106532915Y-121552370D01*
X106603594Y-121638492D01*
X106615392Y-121652868D01*
X106715890Y-121735345D01*
X106830547Y-121796630D01*
X106954957Y-121834370D01*
X107084340Y-121847113D01*
X107116759Y-121843920D01*
X121051921Y-121843920D01*
X121084340Y-121847113D01*
X121116759Y-121843920D01*
X121213723Y-121834370D01*
X121338133Y-121796630D01*
X121452790Y-121735345D01*
X121553288Y-121652868D01*
X121635765Y-121552370D01*
X121679300Y-121470920D01*
X130234147Y-121470920D01*
X130237341Y-121503349D01*
X130237340Y-135438501D01*
X130234147Y-135470920D01*
X130246890Y-135600303D01*
X130284630Y-135724713D01*
X130345915Y-135839370D01*
X130418871Y-135928267D01*
X130428392Y-135939868D01*
X130528890Y-136022345D01*
X130643547Y-136083630D01*
X130767957Y-136121370D01*
X130897340Y-136134113D01*
X130929759Y-136130920D01*
X144864921Y-136130920D01*
X144897340Y-136134113D01*
X144929759Y-136130920D01*
X145026723Y-136121370D01*
X145151133Y-136083630D01*
X145231100Y-136040887D01*
X154870205Y-136040887D01*
X154885768Y-136169960D01*
X154926212Y-136293518D01*
X154938779Y-136315843D01*
X154989984Y-136406810D01*
X155074633Y-136505486D01*
X155176906Y-136585750D01*
X155292872Y-136644520D01*
X155418077Y-136679537D01*
X155450561Y-136682022D01*
X169174108Y-139101864D01*
X169205482Y-139110638D01*
X169289543Y-139117069D01*
X169335106Y-139120555D01*
X169335111Y-139120555D01*
X169404553Y-139112182D01*
X169464180Y-139104992D01*
X169464183Y-139104991D01*
X169464184Y-139104991D01*
X169506180Y-139091244D01*
X169587737Y-139064548D01*
X169587741Y-139064546D01*
X169701034Y-139000773D01*
X169780065Y-138932975D01*
X169799706Y-138916126D01*
X169799709Y-138916123D01*
X169879972Y-138813850D01*
X169938742Y-138697883D01*
X169964984Y-138604050D01*
X169973757Y-138572682D01*
X169976242Y-138540202D01*
X172189761Y-125986336D01*
X185734645Y-125986336D01*
X185734645Y-126505386D01*
X185835906Y-127014462D01*
X186034538Y-127494002D01*
X186322907Y-127925576D01*
X186689930Y-128292599D01*
X187121504Y-128580968D01*
X187601044Y-128779600D01*
X188110120Y-128880861D01*
X188629170Y-128880861D01*
X189138246Y-128779600D01*
X189617786Y-128580968D01*
X190049360Y-128292599D01*
X190416383Y-127925576D01*
X190704752Y-127494002D01*
X190903384Y-127014462D01*
X191004645Y-126505386D01*
X191004645Y-125986336D01*
X190903384Y-125477260D01*
X190704752Y-124997720D01*
X190416383Y-124566146D01*
X190049360Y-124199123D01*
X189617786Y-123910754D01*
X189138246Y-123712122D01*
X188629170Y-123610861D01*
X188110120Y-123610861D01*
X187601044Y-123712122D01*
X187121504Y-123910754D01*
X186689930Y-124199123D01*
X186322907Y-124566146D01*
X186034538Y-124997720D01*
X185835906Y-125477260D01*
X185734645Y-125986336D01*
X172189761Y-125986336D01*
X172395985Y-124816749D01*
X172404757Y-124785383D01*
X172407242Y-124752904D01*
X172407243Y-124752898D01*
X172412890Y-124679084D01*
X172414675Y-124655753D01*
X172413201Y-124643524D01*
X172406145Y-124585010D01*
X172399112Y-124526679D01*
X172398134Y-124523689D01*
X172389686Y-124497881D01*
X172358668Y-124403122D01*
X172294896Y-124289829D01*
X172210247Y-124191153D01*
X172107974Y-124110889D01*
X171992007Y-124052119D01*
X171898175Y-124025876D01*
X171898164Y-124025874D01*
X171866798Y-124017102D01*
X171834328Y-124014618D01*
X158110876Y-121594777D01*
X158079503Y-121586003D01*
X157987038Y-121578928D01*
X157949874Y-121576085D01*
X157949873Y-121576085D01*
X157820799Y-121591648D01*
X157697242Y-121632092D01*
X157583949Y-121695864D01*
X157485273Y-121780513D01*
X157405009Y-121882786D01*
X157346239Y-121998753D01*
X157319996Y-122092585D01*
X157319994Y-122092595D01*
X157311223Y-122123957D01*
X157308739Y-122156428D01*
X154888897Y-135879887D01*
X154880123Y-135911258D01*
X154870205Y-136040887D01*
X145231100Y-136040887D01*
X145265790Y-136022345D01*
X145366288Y-135939868D01*
X145448765Y-135839370D01*
X145510050Y-135724713D01*
X145547790Y-135600303D01*
X145560533Y-135470920D01*
X145557340Y-135438501D01*
X145557340Y-121638492D01*
X151146151Y-121638492D01*
X151146151Y-122157542D01*
X151247412Y-122666618D01*
X151446044Y-123146158D01*
X151734413Y-123577732D01*
X152101436Y-123944755D01*
X152533010Y-124233124D01*
X153012550Y-124431756D01*
X153521626Y-124533017D01*
X154040676Y-124533017D01*
X154549752Y-124431756D01*
X155029292Y-124233124D01*
X155460866Y-123944755D01*
X155827889Y-123577732D01*
X156116258Y-123146158D01*
X156314890Y-122666618D01*
X156416151Y-122157542D01*
X156416151Y-121638492D01*
X156350461Y-121308244D01*
X182502267Y-121308244D01*
X182502267Y-121308245D01*
X182506521Y-121438183D01*
X182514154Y-121470920D01*
X182536042Y-121564793D01*
X182536043Y-121564795D01*
X182589698Y-121683215D01*
X182619435Y-121724713D01*
X182665424Y-121788892D01*
X182712862Y-121833322D01*
X182760313Y-121877765D01*
X182870716Y-121946419D01*
X182961905Y-121980740D01*
X182961907Y-121980741D01*
X182992391Y-121992214D01*
X183024530Y-121997520D01*
X196484907Y-125604241D01*
X196515391Y-125615714D01*
X196547530Y-125621020D01*
X196547532Y-125621021D01*
X196643664Y-125636893D01*
X196773603Y-125632639D01*
X196846190Y-125615714D01*
X196900213Y-125603118D01*
X196973487Y-125569918D01*
X197018635Y-125549462D01*
X197124313Y-125473735D01*
X197213185Y-125378847D01*
X197281839Y-125268444D01*
X197327635Y-125146768D01*
X197332943Y-125114621D01*
X200939660Y-111654357D01*
X200951135Y-111623868D01*
X200972313Y-111495595D01*
X200968059Y-111365656D01*
X200938538Y-111239044D01*
X200884882Y-111120624D01*
X200809155Y-111014947D01*
X200714267Y-110926074D01*
X200603864Y-110857420D01*
X200512676Y-110823099D01*
X200512661Y-110823095D01*
X200482189Y-110811626D01*
X200450065Y-110806322D01*
X186989675Y-107199600D01*
X186959189Y-107188126D01*
X186927050Y-107182820D01*
X186927047Y-107182819D01*
X186830915Y-107166947D01*
X186700977Y-107171201D01*
X186677569Y-107176659D01*
X186574366Y-107200722D01*
X186455945Y-107254378D01*
X186350267Y-107330104D01*
X186261395Y-107424993D01*
X186192741Y-107535395D01*
X186158420Y-107626584D01*
X186158418Y-107626593D01*
X186146946Y-107657073D01*
X186141641Y-107689203D01*
X182534919Y-121149490D01*
X182523446Y-121179973D01*
X182518140Y-121212107D01*
X182518139Y-121212112D01*
X182502267Y-121308244D01*
X156350461Y-121308244D01*
X156314890Y-121129416D01*
X156116258Y-120649876D01*
X155827889Y-120218302D01*
X155460866Y-119851279D01*
X155029292Y-119562910D01*
X154549752Y-119364278D01*
X154040676Y-119263017D01*
X153521626Y-119263017D01*
X153012550Y-119364278D01*
X152533010Y-119562910D01*
X152101436Y-119851279D01*
X151734413Y-120218302D01*
X151446044Y-120649876D01*
X151247412Y-121129416D01*
X151146151Y-121638492D01*
X145557340Y-121638492D01*
X145557340Y-121503339D01*
X145560533Y-121470920D01*
X145547790Y-121341537D01*
X145510050Y-121217127D01*
X145448765Y-121102470D01*
X145366288Y-121001972D01*
X145265790Y-120919495D01*
X145151133Y-120858210D01*
X145026723Y-120820470D01*
X144929759Y-120810920D01*
X144897340Y-120807727D01*
X144864921Y-120810920D01*
X130929759Y-120810920D01*
X130897340Y-120807727D01*
X130864921Y-120810920D01*
X130767957Y-120820470D01*
X130643547Y-120858210D01*
X130528890Y-120919495D01*
X130428392Y-121001972D01*
X130345915Y-121102470D01*
X130284630Y-121217127D01*
X130246890Y-121341537D01*
X130234147Y-121470920D01*
X121679300Y-121470920D01*
X121697050Y-121437713D01*
X121734790Y-121313303D01*
X121747533Y-121183920D01*
X121744340Y-121151501D01*
X121744340Y-116377744D01*
X164101367Y-116377744D01*
X164105621Y-116507681D01*
X164135142Y-116634293D01*
X164135143Y-116634295D01*
X164188798Y-116752715D01*
X164220410Y-116796829D01*
X164264524Y-116858392D01*
X164330021Y-116919736D01*
X164359413Y-116947265D01*
X164469816Y-117015919D01*
X164561005Y-117050240D01*
X164561007Y-117050241D01*
X164591491Y-117061714D01*
X164623630Y-117067020D01*
X178084007Y-120673741D01*
X178114491Y-120685214D01*
X178146630Y-120690520D01*
X178146632Y-120690521D01*
X178242764Y-120706393D01*
X178372703Y-120702139D01*
X178445290Y-120685214D01*
X178499313Y-120672618D01*
X178572587Y-120639418D01*
X178617735Y-120618962D01*
X178723413Y-120543235D01*
X178812285Y-120448347D01*
X178880939Y-120337944D01*
X178926735Y-120216268D01*
X178932043Y-120184121D01*
X182538760Y-106723857D01*
X182550235Y-106693368D01*
X182562746Y-106617590D01*
X182571413Y-106565097D01*
X182569583Y-106509188D01*
X182567159Y-106435156D01*
X182537638Y-106308544D01*
X182483982Y-106190124D01*
X182408255Y-106084447D01*
X182313367Y-105995574D01*
X182202964Y-105926920D01*
X182111776Y-105892599D01*
X182111761Y-105892595D01*
X182081289Y-105881126D01*
X182049165Y-105875822D01*
X170971097Y-102907445D01*
X187432767Y-102907445D01*
X187437021Y-103037383D01*
X187437022Y-103037387D01*
X187466544Y-103163999D01*
X187488338Y-103212099D01*
X187520198Y-103282415D01*
X187571887Y-103354547D01*
X187595928Y-103388096D01*
X187634653Y-103424365D01*
X187690813Y-103476965D01*
X187690815Y-103476966D01*
X187690817Y-103476968D01*
X187747410Y-103512160D01*
X187801216Y-103545619D01*
X187801220Y-103545621D01*
X187889423Y-103578817D01*
X187922893Y-103591414D01*
X187955032Y-103596721D01*
X201415408Y-107203341D01*
X201445891Y-107214814D01*
X201478033Y-107220121D01*
X201478037Y-107220122D01*
X201510082Y-107225412D01*
X201574164Y-107235993D01*
X201574169Y-107235993D01*
X201596159Y-107235273D01*
X201704101Y-107231739D01*
X201704105Y-107231738D01*
X201704107Y-107231738D01*
X201776690Y-107214814D01*
X201830713Y-107202218D01*
X201830719Y-107202216D01*
X201899169Y-107171201D01*
X201949134Y-107148562D01*
X201949137Y-107148560D01*
X201949139Y-107148559D01*
X201985022Y-107122846D01*
X202054812Y-107072836D01*
X202143684Y-106977948D01*
X202143685Y-106977946D01*
X202143688Y-106977943D01*
X202212341Y-106867540D01*
X202258136Y-106745863D01*
X202263442Y-106713722D01*
X205870160Y-93253457D01*
X205881635Y-93222968D01*
X205902813Y-93094695D01*
X205898559Y-92964756D01*
X205869038Y-92838144D01*
X205815382Y-92719724D01*
X205739655Y-92614047D01*
X205644767Y-92525174D01*
X205534364Y-92456520D01*
X205443176Y-92422199D01*
X205443161Y-92422195D01*
X205412689Y-92410726D01*
X205380565Y-92405422D01*
X191920181Y-88798702D01*
X191889688Y-88787225D01*
X191761415Y-88766047D01*
X191631476Y-88770301D01*
X191504864Y-88799822D01*
X191386444Y-88853478D01*
X191280767Y-88929205D01*
X191191894Y-89024093D01*
X191123240Y-89134496D01*
X191088919Y-89225684D01*
X191088914Y-89225702D01*
X191077446Y-89256173D01*
X191072142Y-89288295D01*
X187465420Y-102748684D01*
X187453944Y-102779177D01*
X187443161Y-102844492D01*
X187432767Y-102907445D01*
X170971097Y-102907445D01*
X168588775Y-102269100D01*
X168558289Y-102257626D01*
X168526150Y-102252320D01*
X168526147Y-102252319D01*
X168430015Y-102236447D01*
X168300077Y-102240701D01*
X168270556Y-102247584D01*
X168173466Y-102270222D01*
X168055045Y-102323878D01*
X167949367Y-102399604D01*
X167860495Y-102494493D01*
X167791841Y-102604895D01*
X167757520Y-102696084D01*
X167757518Y-102696093D01*
X167746046Y-102726573D01*
X167740741Y-102758703D01*
X164134019Y-116218990D01*
X164122546Y-116249473D01*
X164117240Y-116281607D01*
X164117239Y-116281612D01*
X164101367Y-116377744D01*
X121744340Y-116377744D01*
X121744340Y-108501893D01*
X126137067Y-108501893D01*
X126149436Y-108576806D01*
X126158246Y-108630169D01*
X126204042Y-108751845D01*
X126227839Y-108790113D01*
X126272693Y-108862244D01*
X126272695Y-108862246D01*
X126272696Y-108862248D01*
X126361569Y-108957137D01*
X126467247Y-109032863D01*
X126585666Y-109086518D01*
X126712279Y-109116039D01*
X126744836Y-109117105D01*
X140560759Y-110936043D01*
X140592480Y-110943439D01*
X140625028Y-110944504D01*
X140625033Y-110944505D01*
X140722414Y-110947693D01*
X140850685Y-110926515D01*
X140972361Y-110880720D01*
X140972365Y-110880718D01*
X140992886Y-110867957D01*
X141082765Y-110812067D01*
X141177654Y-110723194D01*
X141253381Y-110617518D01*
X141307037Y-110499098D01*
X141336559Y-110372485D01*
X141337625Y-110339918D01*
X141875477Y-106254352D01*
X146391605Y-106254352D01*
X146401523Y-106383980D01*
X146401524Y-106383983D01*
X146401524Y-106383985D01*
X146436540Y-106509188D01*
X146495311Y-106625155D01*
X146575576Y-106727429D01*
X146632612Y-106776357D01*
X146674247Y-106812074D01*
X146674248Y-106812075D01*
X146674251Y-106812077D01*
X146759038Y-106859803D01*
X146772792Y-106867545D01*
X146787544Y-106875849D01*
X146851489Y-106896780D01*
X146911098Y-106916292D01*
X146943443Y-106920192D01*
X160548340Y-109936258D01*
X160579301Y-109946393D01*
X160708376Y-109961955D01*
X160838005Y-109952036D01*
X160963209Y-109917020D01*
X161079175Y-109858249D01*
X161181449Y-109777984D01*
X161266097Y-109679309D01*
X161329869Y-109566016D01*
X161370313Y-109442458D01*
X161374212Y-109410118D01*
X163908848Y-97976945D01*
X169031867Y-97976945D01*
X169036121Y-98106883D01*
X169036122Y-98106887D01*
X169065644Y-98233499D01*
X169087438Y-98281599D01*
X169119298Y-98351915D01*
X169119301Y-98351919D01*
X169195028Y-98457596D01*
X169253343Y-98512214D01*
X169289913Y-98546465D01*
X169289915Y-98546466D01*
X169289917Y-98546468D01*
X169346510Y-98581660D01*
X169400316Y-98615119D01*
X169400320Y-98615121D01*
X169488523Y-98648317D01*
X169521993Y-98660914D01*
X169554132Y-98666221D01*
X183014508Y-102272841D01*
X183044991Y-102284314D01*
X183077133Y-102289621D01*
X183077137Y-102289622D01*
X183109182Y-102294912D01*
X183173264Y-102305493D01*
X183173269Y-102305493D01*
X183195259Y-102304773D01*
X183303201Y-102301239D01*
X183303205Y-102301238D01*
X183303207Y-102301238D01*
X183375790Y-102284314D01*
X183429813Y-102271718D01*
X183429819Y-102271716D01*
X183498269Y-102240701D01*
X183548234Y-102218062D01*
X183548237Y-102218060D01*
X183548239Y-102218059D01*
X183584122Y-102192346D01*
X183653912Y-102142336D01*
X183742784Y-102047448D01*
X183742785Y-102047446D01*
X183742788Y-102047443D01*
X183811441Y-101937040D01*
X183857236Y-101815363D01*
X183862542Y-101783222D01*
X187469260Y-88322957D01*
X187480735Y-88292468D01*
X187493246Y-88216690D01*
X187501913Y-88164197D01*
X187497659Y-88034259D01*
X187497659Y-88034256D01*
X187468138Y-87907644D01*
X187414482Y-87789224D01*
X187338755Y-87683547D01*
X187243867Y-87594674D01*
X187133464Y-87526020D01*
X187042276Y-87491699D01*
X187042261Y-87491695D01*
X187011789Y-87480226D01*
X186979665Y-87474922D01*
X181736437Y-86069995D01*
X187278740Y-86069995D01*
X187278740Y-86589045D01*
X187380001Y-87098121D01*
X187578633Y-87577661D01*
X187867002Y-88009235D01*
X188234025Y-88376258D01*
X188665599Y-88664627D01*
X189145139Y-88863259D01*
X189654215Y-88964520D01*
X190173265Y-88964520D01*
X190682341Y-88863259D01*
X191161881Y-88664627D01*
X191593455Y-88376258D01*
X191960478Y-88009235D01*
X192248847Y-87577661D01*
X192447479Y-87098121D01*
X192548740Y-86589045D01*
X192548740Y-86069995D01*
X192447479Y-85560919D01*
X192248847Y-85081379D01*
X191960478Y-84649805D01*
X191817219Y-84506546D01*
X192363267Y-84506546D01*
X192363267Y-84506550D01*
X192367522Y-84636487D01*
X192384778Y-84710495D01*
X192397043Y-84763096D01*
X192450699Y-84881516D01*
X192526426Y-84987194D01*
X192526428Y-84987196D01*
X192621317Y-85076068D01*
X192731720Y-85144721D01*
X192812590Y-85175157D01*
X192853394Y-85190515D01*
X192885538Y-85195822D01*
X206345910Y-88802441D01*
X206376394Y-88813915D01*
X206408536Y-88819222D01*
X206408537Y-88819222D01*
X206426948Y-88822262D01*
X206504666Y-88835093D01*
X206504669Y-88835093D01*
X206634607Y-88830838D01*
X206723170Y-88810188D01*
X206761216Y-88801317D01*
X206761217Y-88801316D01*
X206761219Y-88801316D01*
X206829669Y-88770301D01*
X206879636Y-88747661D01*
X206985314Y-88671934D01*
X207034484Y-88619435D01*
X207074188Y-88577043D01*
X207142841Y-88466640D01*
X207188636Y-88344963D01*
X207193942Y-88312821D01*
X210800360Y-74853455D01*
X210811836Y-74822963D01*
X210823562Y-74751934D01*
X210833013Y-74694695D01*
X210832172Y-74668996D01*
X210828758Y-74564752D01*
X210799236Y-74438140D01*
X210745580Y-74319720D01*
X210669852Y-74214043D01*
X210574963Y-74125171D01*
X210464560Y-74056518D01*
X210373371Y-74022198D01*
X210373363Y-74022196D01*
X210342886Y-74010725D01*
X210310752Y-74005420D01*
X196850373Y-70398799D01*
X196819886Y-70387325D01*
X196691614Y-70366147D01*
X196691610Y-70366147D01*
X196561673Y-70370402D01*
X196527638Y-70378338D01*
X196435063Y-70399923D01*
X196316643Y-70453579D01*
X196210965Y-70529306D01*
X196122093Y-70624195D01*
X196053440Y-70734598D01*
X196019119Y-70825786D01*
X196019117Y-70825793D01*
X196007644Y-70856277D01*
X196002339Y-70888409D01*
X192395922Y-84347781D01*
X192384444Y-84378277D01*
X192371952Y-84453945D01*
X192363267Y-84506546D01*
X191817219Y-84506546D01*
X191593455Y-84282782D01*
X191161881Y-83994413D01*
X190682341Y-83795781D01*
X190173265Y-83694520D01*
X189654215Y-83694520D01*
X189145139Y-83795781D01*
X188665599Y-83994413D01*
X188234025Y-84282782D01*
X187867002Y-84649805D01*
X187578633Y-85081379D01*
X187380001Y-85560919D01*
X187278740Y-86069995D01*
X181736437Y-86069995D01*
X173519281Y-83868202D01*
X173488788Y-83856725D01*
X173360515Y-83835547D01*
X173230576Y-83839801D01*
X173103964Y-83869322D01*
X172985544Y-83922978D01*
X172879867Y-83998705D01*
X172790994Y-84093593D01*
X172722340Y-84203996D01*
X172688019Y-84295184D01*
X172688014Y-84295202D01*
X172676546Y-84325673D01*
X172671242Y-84357795D01*
X169064520Y-97818184D01*
X169053044Y-97848677D01*
X169047739Y-97880813D01*
X169031867Y-97976945D01*
X163908848Y-97976945D01*
X164390278Y-95805323D01*
X164400412Y-95774364D01*
X164415975Y-95645290D01*
X164406057Y-95515661D01*
X164371042Y-95390457D01*
X164312272Y-95274490D01*
X164232008Y-95172216D01*
X164133333Y-95087567D01*
X164133331Y-95087566D01*
X164133330Y-95087565D01*
X164104776Y-95071492D01*
X164020041Y-95023793D01*
X163927443Y-94993483D01*
X163927430Y-94993480D01*
X163896479Y-94983349D01*
X163864150Y-94979451D01*
X150259337Y-91963281D01*
X150228382Y-91953149D01*
X150196048Y-91949250D01*
X150196042Y-91949249D01*
X150099309Y-91937585D01*
X149988105Y-91946093D01*
X149969679Y-91947503D01*
X149899649Y-91967088D01*
X149844477Y-91982518D01*
X149844475Y-91982519D01*
X149728508Y-92041289D01*
X149626234Y-92121553D01*
X149541585Y-92220228D01*
X149477812Y-92333520D01*
X149447501Y-92426119D01*
X149447500Y-92426125D01*
X149437368Y-92457077D01*
X149433469Y-92489411D01*
X146417303Y-106094316D01*
X146407167Y-106125282D01*
X146399349Y-106190126D01*
X146391605Y-106254352D01*
X141875477Y-106254352D01*
X143156463Y-96523902D01*
X143163859Y-96492181D01*
X143168112Y-96362241D01*
X143146933Y-96233970D01*
X143101138Y-96112294D01*
X143032483Y-96001891D01*
X142943610Y-95907002D01*
X142837933Y-95831276D01*
X142719513Y-95777621D01*
X142624625Y-95755497D01*
X142624623Y-95755497D01*
X142592900Y-95748100D01*
X142560343Y-95747034D01*
X128744422Y-93928197D01*
X128712701Y-93920801D01*
X128680145Y-93919735D01*
X128680142Y-93919735D01*
X128582762Y-93916548D01*
X128582761Y-93916548D01*
X128563459Y-93919735D01*
X128454491Y-93937726D01*
X128378610Y-93966286D01*
X128332814Y-93983522D01*
X128264160Y-94026215D01*
X128222412Y-94052176D01*
X128222411Y-94052177D01*
X128127522Y-94141050D01*
X128051796Y-94246727D01*
X127998141Y-94365147D01*
X127976017Y-94460035D01*
X127976016Y-94460042D01*
X127968621Y-94491759D01*
X127967556Y-94524307D01*
X126148718Y-108340231D01*
X126141321Y-108371955D01*
X126137067Y-108501893D01*
X121744340Y-108501893D01*
X121744340Y-107216339D01*
X121747533Y-107183920D01*
X121734790Y-107054537D01*
X121697050Y-106930127D01*
X121635765Y-106815470D01*
X121553288Y-106714972D01*
X121452790Y-106632495D01*
X121338133Y-106571210D01*
X121213723Y-106533470D01*
X121116759Y-106523920D01*
X121084340Y-106520727D01*
X121051921Y-106523920D01*
X107116759Y-106523920D01*
X107084340Y-106520727D01*
X107051921Y-106523920D01*
X106954957Y-106533470D01*
X106830547Y-106571210D01*
X106715890Y-106632495D01*
X106615392Y-106714972D01*
X106532915Y-106815470D01*
X106471630Y-106930127D01*
X106433890Y-107054537D01*
X106421147Y-107183920D01*
X105276437Y-107183920D01*
X105312941Y-107176659D01*
X105792481Y-106978027D01*
X106224055Y-106689658D01*
X106591078Y-106322635D01*
X106879447Y-105891061D01*
X107078079Y-105411521D01*
X107179340Y-104902445D01*
X107179340Y-104383395D01*
X107078079Y-103874319D01*
X106879447Y-103394779D01*
X106591078Y-102963205D01*
X106224055Y-102596182D01*
X105792481Y-102307813D01*
X105312941Y-102109181D01*
X104803865Y-102007920D01*
X104284815Y-102007920D01*
X103775739Y-102109181D01*
X103296199Y-102307813D01*
X102864625Y-102596182D01*
X102497602Y-102963205D01*
X102209233Y-103394779D01*
X102010601Y-103874319D01*
X101909340Y-104383395D01*
X86167040Y-104383395D01*
X86167040Y-88132920D01*
X87371147Y-88132920D01*
X87374341Y-88165349D01*
X87374340Y-102100501D01*
X87371147Y-102132920D01*
X87383890Y-102262303D01*
X87421630Y-102386713D01*
X87482915Y-102501370D01*
X87560726Y-102596182D01*
X87565392Y-102601868D01*
X87665890Y-102684345D01*
X87780547Y-102745630D01*
X87904957Y-102783370D01*
X88034340Y-102796113D01*
X88066759Y-102792920D01*
X102001921Y-102792920D01*
X102034340Y-102796113D01*
X102066759Y-102792920D01*
X102163723Y-102783370D01*
X102288133Y-102745630D01*
X102402790Y-102684345D01*
X102503288Y-102601868D01*
X102585765Y-102501370D01*
X102647050Y-102386713D01*
X102684790Y-102262303D01*
X102697533Y-102132920D01*
X102694340Y-102100501D01*
X102694340Y-88165339D01*
X102697533Y-88132920D01*
X102684790Y-88003537D01*
X102647050Y-87879127D01*
X102585765Y-87764470D01*
X102503288Y-87663972D01*
X102402790Y-87581495D01*
X102288133Y-87520210D01*
X102163723Y-87482470D01*
X102066759Y-87472920D01*
X102034340Y-87469727D01*
X102001921Y-87472920D01*
X88066759Y-87472920D01*
X88034340Y-87469727D01*
X88001921Y-87472920D01*
X87904957Y-87482470D01*
X87780547Y-87520210D01*
X87665890Y-87581495D01*
X87565392Y-87663972D01*
X87482915Y-87764470D01*
X87421630Y-87879127D01*
X87383890Y-88003537D01*
X87371147Y-88132920D01*
X86167040Y-88132920D01*
X86167040Y-85333395D01*
X101909340Y-85333395D01*
X101909340Y-85852445D01*
X102010601Y-86361521D01*
X102209233Y-86841061D01*
X102497602Y-87272635D01*
X102864625Y-87639658D01*
X103296199Y-87928027D01*
X103775739Y-88126659D01*
X104284815Y-88227920D01*
X104803865Y-88227920D01*
X105281464Y-88132920D01*
X106421147Y-88132920D01*
X106424340Y-88165339D01*
X106424341Y-102100491D01*
X106421147Y-102132920D01*
X106433890Y-102262303D01*
X106471630Y-102386713D01*
X106532915Y-102501370D01*
X106615392Y-102601868D01*
X106715890Y-102684345D01*
X106830547Y-102745630D01*
X106954957Y-102783370D01*
X107051921Y-102792920D01*
X107084340Y-102796113D01*
X107116759Y-102792920D01*
X121051921Y-102792920D01*
X121084340Y-102796113D01*
X121116759Y-102792920D01*
X121213723Y-102783370D01*
X121338133Y-102745630D01*
X121452790Y-102684345D01*
X121553288Y-102601868D01*
X121635765Y-102501370D01*
X121697050Y-102386713D01*
X121734790Y-102262303D01*
X121747533Y-102132920D01*
X121744340Y-102100501D01*
X121744340Y-89614898D01*
X128623568Y-89614898D01*
X128644746Y-89743169D01*
X128690542Y-89864845D01*
X128759196Y-89975248D01*
X128848069Y-90070137D01*
X128953747Y-90145863D01*
X129072166Y-90199518D01*
X129167054Y-90221642D01*
X129167056Y-90221642D01*
X129198780Y-90229039D01*
X129231336Y-90230105D01*
X143047254Y-92048942D01*
X143078975Y-92056339D01*
X143208913Y-92060593D01*
X143337185Y-92039415D01*
X143458860Y-91993620D01*
X143458864Y-91993618D01*
X143492038Y-91972988D01*
X143569264Y-91924967D01*
X143664153Y-91836094D01*
X143739880Y-91730417D01*
X143793536Y-91611998D01*
X143815661Y-91517110D01*
X143815661Y-91517108D01*
X143823059Y-91485381D01*
X143824125Y-91452824D01*
X144324016Y-87655852D01*
X150514805Y-87655852D01*
X150523116Y-87764471D01*
X150524723Y-87785479D01*
X150559738Y-87910683D01*
X150618508Y-88026650D01*
X150698772Y-88128925D01*
X150797447Y-88213574D01*
X150910739Y-88277347D01*
X151034297Y-88317792D01*
X151066639Y-88321692D01*
X164671538Y-91337857D01*
X164702502Y-91347993D01*
X164779014Y-91357218D01*
X164831571Y-91363555D01*
X164831577Y-91363555D01*
X164886855Y-91359325D01*
X164961200Y-91353637D01*
X164961203Y-91353636D01*
X164961205Y-91353636D01*
X165086408Y-91318620D01*
X165202375Y-91259849D01*
X165304649Y-91179584D01*
X165389297Y-91080909D01*
X165453069Y-90967616D01*
X165483379Y-90875017D01*
X165483380Y-90875013D01*
X165493511Y-90844062D01*
X165497410Y-90811727D01*
X167988244Y-79576046D01*
X173962367Y-79576046D01*
X173962367Y-79576050D01*
X173966622Y-79705987D01*
X173987272Y-79794550D01*
X173996143Y-79832596D01*
X174049799Y-79951016D01*
X174125526Y-80056694D01*
X174125528Y-80056696D01*
X174220417Y-80145568D01*
X174330820Y-80214221D01*
X174411690Y-80244657D01*
X174452494Y-80260015D01*
X174484638Y-80265322D01*
X187945010Y-83871941D01*
X187975494Y-83883415D01*
X188007636Y-83888722D01*
X188007637Y-83888722D01*
X188026048Y-83891762D01*
X188103766Y-83904593D01*
X188103769Y-83904593D01*
X188233707Y-83900338D01*
X188322270Y-83879688D01*
X188360316Y-83870817D01*
X188360317Y-83870816D01*
X188360319Y-83870816D01*
X188428769Y-83839801D01*
X188478736Y-83817161D01*
X188584414Y-83741434D01*
X188628353Y-83694520D01*
X188673288Y-83646543D01*
X188741941Y-83536140D01*
X188787736Y-83414463D01*
X188793042Y-83382321D01*
X192399460Y-69922955D01*
X192410936Y-69892463D01*
X192421719Y-69827148D01*
X192432113Y-69764195D01*
X192429322Y-69678948D01*
X192427858Y-69634252D01*
X192398336Y-69507640D01*
X192344680Y-69389220D01*
X192268952Y-69283543D01*
X192174063Y-69194671D01*
X192063660Y-69126018D01*
X191972471Y-69091698D01*
X191972463Y-69091696D01*
X191941986Y-69080225D01*
X191909852Y-69074920D01*
X178449473Y-65468299D01*
X178418986Y-65456825D01*
X178290714Y-65435647D01*
X178290710Y-65435647D01*
X178160773Y-65439902D01*
X178115484Y-65450462D01*
X178034163Y-65469423D01*
X177915743Y-65523079D01*
X177810065Y-65598806D01*
X177721193Y-65693695D01*
X177652540Y-65804098D01*
X177652539Y-65804100D01*
X177644066Y-65826613D01*
X177618219Y-65895286D01*
X177618217Y-65895293D01*
X177606744Y-65925777D01*
X177601439Y-65957909D01*
X173995022Y-79417281D01*
X173983544Y-79447777D01*
X173969719Y-79531517D01*
X173962367Y-79576046D01*
X167988244Y-79576046D01*
X168513478Y-77206820D01*
X168523613Y-77175859D01*
X168539175Y-77046784D01*
X168529256Y-76917155D01*
X168494240Y-76791951D01*
X168435469Y-76675985D01*
X168355204Y-76573711D01*
X168256529Y-76489063D01*
X168143237Y-76425291D01*
X168050638Y-76394980D01*
X168050628Y-76394978D01*
X168019678Y-76384847D01*
X167987348Y-76380949D01*
X154382544Y-73364883D01*
X154351583Y-73354748D01*
X154222509Y-73339185D01*
X154222504Y-73339185D01*
X154176439Y-73342710D01*
X154092880Y-73349103D01*
X154092877Y-73349104D01*
X154092876Y-73349104D01*
X154086640Y-73350848D01*
X153967676Y-73384118D01*
X153851709Y-73442888D01*
X153749435Y-73523152D01*
X153749432Y-73523155D01*
X153731287Y-73544307D01*
X153664786Y-73621826D01*
X153601012Y-73735119D01*
X153570702Y-73827717D01*
X153570701Y-73827723D01*
X153560567Y-73858681D01*
X153556668Y-73891018D01*
X150540503Y-87495816D01*
X150530368Y-87526778D01*
X150514805Y-87655852D01*
X144324016Y-87655852D01*
X145643062Y-77636909D01*
X145650459Y-77605185D01*
X145654713Y-77475245D01*
X145633535Y-77346974D01*
X145587740Y-77225298D01*
X145519087Y-77114894D01*
X145430214Y-77020005D01*
X145368652Y-76975891D01*
X145324538Y-76944279D01*
X145287612Y-76927548D01*
X145206118Y-76890622D01*
X145111230Y-76868498D01*
X145111228Y-76868498D01*
X145079505Y-76861101D01*
X145046949Y-76860035D01*
X131230929Y-75041098D01*
X131199200Y-75033700D01*
X131092693Y-75030214D01*
X131069266Y-75029447D01*
X131069261Y-75029447D01*
X130940989Y-75050626D01*
X130819314Y-75096422D01*
X130708911Y-75165076D01*
X130614022Y-75253950D01*
X130538296Y-75359627D01*
X130484641Y-75478047D01*
X130474960Y-75519570D01*
X130455121Y-75604655D01*
X130454055Y-75637212D01*
X128635218Y-89453236D01*
X128627821Y-89484959D01*
X128623568Y-89614898D01*
X121744340Y-89614898D01*
X121744340Y-88165339D01*
X121747533Y-88132920D01*
X121734790Y-88003537D01*
X121697050Y-87879127D01*
X121635765Y-87764470D01*
X121553288Y-87663972D01*
X121452790Y-87581495D01*
X121338133Y-87520210D01*
X121213723Y-87482470D01*
X121116759Y-87472920D01*
X121084340Y-87469727D01*
X121051921Y-87472920D01*
X107116759Y-87472920D01*
X107084340Y-87469727D01*
X107051921Y-87472920D01*
X106954957Y-87482470D01*
X106830547Y-87520210D01*
X106715890Y-87581495D01*
X106615392Y-87663972D01*
X106532915Y-87764470D01*
X106471630Y-87879127D01*
X106433890Y-88003537D01*
X106421147Y-88132920D01*
X105281464Y-88132920D01*
X105312941Y-88126659D01*
X105792481Y-87928027D01*
X106224055Y-87639658D01*
X106591078Y-87272635D01*
X106879447Y-86841061D01*
X107078079Y-86361521D01*
X107179340Y-85852445D01*
X107179340Y-85333395D01*
X107078079Y-84824319D01*
X106879447Y-84344779D01*
X106591078Y-83913205D01*
X106224055Y-83546182D01*
X105792481Y-83257813D01*
X105312941Y-83059181D01*
X104803865Y-82957920D01*
X104284815Y-82957920D01*
X103775739Y-83059181D01*
X103296199Y-83257813D01*
X102864625Y-83546182D01*
X102497602Y-83913205D01*
X102209233Y-84344779D01*
X102010601Y-84824319D01*
X101909340Y-85333395D01*
X86167040Y-85333395D01*
X86167040Y-69082920D01*
X87371147Y-69082920D01*
X87374340Y-69115339D01*
X87374341Y-83050491D01*
X87371147Y-83082920D01*
X87383890Y-83212303D01*
X87421630Y-83336713D01*
X87482915Y-83451370D01*
X87565392Y-83551868D01*
X87665890Y-83634345D01*
X87780547Y-83695630D01*
X87904957Y-83733370D01*
X88001921Y-83742920D01*
X88034340Y-83746113D01*
X88066759Y-83742920D01*
X102001921Y-83742920D01*
X102034340Y-83746113D01*
X102066759Y-83742920D01*
X102163723Y-83733370D01*
X102288133Y-83695630D01*
X102402790Y-83634345D01*
X102503288Y-83551868D01*
X102585765Y-83451370D01*
X102647050Y-83336713D01*
X102684790Y-83212303D01*
X102697533Y-83082920D01*
X102694340Y-83050501D01*
X102694340Y-69115339D01*
X102697533Y-69082920D01*
X106421147Y-69082920D01*
X106424340Y-69115339D01*
X106424341Y-83050491D01*
X106421147Y-83082920D01*
X106433890Y-83212303D01*
X106471630Y-83336713D01*
X106532915Y-83451370D01*
X106615392Y-83551868D01*
X106715890Y-83634345D01*
X106830547Y-83695630D01*
X106954957Y-83733370D01*
X107051921Y-83742920D01*
X107084340Y-83746113D01*
X107116759Y-83742920D01*
X121051921Y-83742920D01*
X121084340Y-83746113D01*
X121116759Y-83742920D01*
X121213723Y-83733370D01*
X121338133Y-83695630D01*
X121452790Y-83634345D01*
X121553288Y-83551868D01*
X121635765Y-83451370D01*
X121697050Y-83336713D01*
X121734790Y-83212303D01*
X121747533Y-83082920D01*
X121744340Y-83050501D01*
X121744340Y-70727793D01*
X131110067Y-70727793D01*
X131131245Y-70856065D01*
X131177040Y-70977740D01*
X131245693Y-71088144D01*
X131334566Y-71183033D01*
X131440243Y-71258760D01*
X131558662Y-71312416D01*
X131685275Y-71341939D01*
X131717840Y-71343005D01*
X145533753Y-73161942D01*
X145565475Y-73169339D01*
X145598032Y-73170405D01*
X145598033Y-73170405D01*
X145670200Y-73172768D01*
X145695413Y-73173593D01*
X145695414Y-73173593D01*
X145823685Y-73152415D01*
X145945361Y-73106620D01*
X146055765Y-73037967D01*
X146074718Y-73020215D01*
X147348140Y-73020215D01*
X147348140Y-73539265D01*
X147449401Y-74048341D01*
X147648033Y-74527881D01*
X147936402Y-74959455D01*
X148303425Y-75326478D01*
X148734999Y-75614847D01*
X149214539Y-75813479D01*
X149723615Y-75914740D01*
X150242665Y-75914740D01*
X150751741Y-75813479D01*
X151231281Y-75614847D01*
X151662855Y-75326478D01*
X152029878Y-74959455D01*
X152318247Y-74527881D01*
X152516879Y-74048341D01*
X152618140Y-73539265D01*
X152618140Y-73020215D01*
X152516879Y-72511139D01*
X152318247Y-72031599D01*
X152029878Y-71600025D01*
X151662855Y-71233002D01*
X151231281Y-70944633D01*
X150751741Y-70746001D01*
X150242665Y-70644740D01*
X149723615Y-70644740D01*
X149214539Y-70746001D01*
X148734999Y-70944633D01*
X148303425Y-71233002D01*
X147936402Y-71600025D01*
X147648033Y-72031599D01*
X147449401Y-72511139D01*
X147348140Y-73020215D01*
X146074718Y-73020215D01*
X146150654Y-72949094D01*
X146226381Y-72843418D01*
X146280037Y-72724998D01*
X146309559Y-72598385D01*
X146310625Y-72565820D01*
X146772519Y-69057456D01*
X154638005Y-69057456D01*
X154647924Y-69187084D01*
X154682940Y-69312288D01*
X154741711Y-69428254D01*
X154821975Y-69530528D01*
X154920650Y-69615176D01*
X155033943Y-69678948D01*
X155157501Y-69719393D01*
X155189843Y-69723292D01*
X168794645Y-72739360D01*
X168825596Y-72749491D01*
X168857936Y-72753391D01*
X168857942Y-72753392D01*
X168913647Y-72760108D01*
X168954670Y-72765055D01*
X168954674Y-72765055D01*
X169001514Y-72761471D01*
X169084298Y-72755137D01*
X169084301Y-72755136D01*
X169084304Y-72755136D01*
X169150638Y-72736584D01*
X169209502Y-72720122D01*
X169209505Y-72720121D01*
X169209507Y-72720120D01*
X169250597Y-72699296D01*
X169325470Y-72661352D01*
X169365279Y-72630110D01*
X169427748Y-72581085D01*
X169492738Y-72505326D01*
X169512393Y-72482414D01*
X169512394Y-72482413D01*
X169512396Y-72482410D01*
X169542932Y-72428162D01*
X169576166Y-72369122D01*
X169582379Y-72350144D01*
X169616613Y-72245559D01*
X169620513Y-72213216D01*
X172636480Y-58609414D01*
X172646611Y-58578462D01*
X172650509Y-58546133D01*
X172650511Y-58546124D01*
X172662175Y-58449391D01*
X172653368Y-58334277D01*
X172652257Y-58319759D01*
X172617241Y-58194555D01*
X172558471Y-58078588D01*
X172478207Y-57976314D01*
X172379532Y-57891665D01*
X172266240Y-57827892D01*
X172173641Y-57797581D01*
X172173628Y-57797578D01*
X172142684Y-57787449D01*
X172110355Y-57783551D01*
X158505438Y-54767382D01*
X158474479Y-54757248D01*
X158425570Y-54751351D01*
X158345408Y-54741685D01*
X158345404Y-54741685D01*
X158302445Y-54744972D01*
X158215780Y-54751603D01*
X158215777Y-54751604D01*
X158215775Y-54751604D01*
X158090571Y-54786620D01*
X157974605Y-54845391D01*
X157872331Y-54925656D01*
X157787683Y-55024331D01*
X157723910Y-55137623D01*
X157693600Y-55230222D01*
X157693598Y-55230232D01*
X157683468Y-55261178D01*
X157679570Y-55293510D01*
X154663702Y-68897419D01*
X154653567Y-68928381D01*
X154649668Y-68960723D01*
X154638005Y-69057456D01*
X146772519Y-69057456D01*
X148129562Y-58749910D01*
X148136959Y-58718185D01*
X148141213Y-58588246D01*
X148120035Y-58459974D01*
X148074241Y-58338299D01*
X148005587Y-58227895D01*
X147916715Y-58133006D01*
X147811038Y-58057279D01*
X147692618Y-58003623D01*
X147597731Y-57981498D01*
X147597726Y-57981497D01*
X147566005Y-57974101D01*
X147533451Y-57973035D01*
X133717539Y-56154100D01*
X133685805Y-56146701D01*
X133559292Y-56142559D01*
X133555867Y-56142447D01*
X133555866Y-56142447D01*
X133427594Y-56163625D01*
X133305919Y-56209419D01*
X133195515Y-56278073D01*
X133100626Y-56366945D01*
X133024899Y-56472622D01*
X132971243Y-56591042D01*
X132949118Y-56685929D01*
X132949117Y-56685936D01*
X132941721Y-56717655D01*
X132940655Y-56750209D01*
X131121720Y-70566123D01*
X131114321Y-70597855D01*
X131110067Y-70727793D01*
X121744340Y-70727793D01*
X121744340Y-69115339D01*
X121747533Y-69082920D01*
X121734790Y-68953537D01*
X121697050Y-68829127D01*
X121635765Y-68714470D01*
X121553288Y-68613972D01*
X121452790Y-68531495D01*
X121338133Y-68470210D01*
X121213723Y-68432470D01*
X121116759Y-68422920D01*
X121084340Y-68419727D01*
X121051921Y-68422920D01*
X107116759Y-68422920D01*
X107084340Y-68419727D01*
X107051921Y-68422920D01*
X106954957Y-68432470D01*
X106830547Y-68470210D01*
X106715890Y-68531495D01*
X106615392Y-68613972D01*
X106532915Y-68714470D01*
X106471630Y-68829127D01*
X106433890Y-68953537D01*
X106421147Y-69082920D01*
X102697533Y-69082920D01*
X102684790Y-68953537D01*
X102647050Y-68829127D01*
X102585765Y-68714470D01*
X102503288Y-68613972D01*
X102402790Y-68531495D01*
X102288133Y-68470210D01*
X102163723Y-68432470D01*
X102066759Y-68422920D01*
X102034340Y-68419727D01*
X102001921Y-68422920D01*
X88066759Y-68422920D01*
X88034340Y-68419727D01*
X88001921Y-68422920D01*
X87904957Y-68432470D01*
X87780547Y-68470210D01*
X87665890Y-68531495D01*
X87565392Y-68613972D01*
X87482915Y-68714470D01*
X87421630Y-68829127D01*
X87383890Y-68953537D01*
X87371147Y-69082920D01*
X86167040Y-69082920D01*
X86167040Y-68082822D01*
X86186142Y-67888004D01*
X86233348Y-67731648D01*
X86310023Y-67587446D01*
X86413246Y-67460880D01*
X86539091Y-67356772D01*
X86682757Y-67279093D01*
X86838771Y-67230798D01*
X87031527Y-67210539D01*
X128491181Y-67210582D01*
X128503039Y-67209414D01*
X128590639Y-67206254D01*
X128629830Y-67200979D01*
X128669319Y-67198680D01*
X128678412Y-67197185D01*
X128966947Y-67147699D01*
X129024630Y-67131884D01*
X129082542Y-67116873D01*
X129091172Y-67113641D01*
X129364601Y-67009054D01*
X129418136Y-66982325D01*
X129472008Y-66956361D01*
X129479846Y-66951514D01*
X129727753Y-66795809D01*
X129775060Y-66759204D01*
X129822880Y-66723258D01*
X129829626Y-66716981D01*
X130042569Y-66516089D01*
X130081874Y-66470981D01*
X130121790Y-66426445D01*
X130127189Y-66418977D01*
X130297056Y-66180551D01*
X130326848Y-66128674D01*
X130357358Y-66077224D01*
X130361204Y-66068849D01*
X130481525Y-65801970D01*
X130500672Y-65745299D01*
X130520608Y-65688901D01*
X130522754Y-65679939D01*
X130588947Y-65394771D01*
X130588947Y-65394769D01*
X130596157Y-65363853D01*
X131885200Y-55575510D01*
X131929504Y-55384687D01*
X131996629Y-55235822D01*
X132091389Y-55102831D01*
X132210172Y-54990784D01*
X132348458Y-54903939D01*
X132500978Y-54845609D01*
X132661926Y-54818014D01*
X132855513Y-54822986D01*
X153951662Y-57600446D01*
X153970677Y-57601069D01*
X154130075Y-57612771D01*
X154176746Y-57611630D01*
X154223415Y-57613006D01*
X154232604Y-57612313D01*
X154524337Y-57588272D01*
X154583148Y-57577572D01*
X154642188Y-57567681D01*
X154651067Y-57565216D01*
X154932575Y-57484968D01*
X154988205Y-57463042D01*
X155044181Y-57441879D01*
X155052413Y-57437736D01*
X155312971Y-57304338D01*
X155363311Y-57272007D01*
X155414081Y-57240392D01*
X155421351Y-57234730D01*
X155651037Y-57053262D01*
X155694124Y-57011782D01*
X155737800Y-56970896D01*
X155743832Y-56963930D01*
X155933897Y-56741307D01*
X155968111Y-56692243D01*
X156003012Y-56643654D01*
X156007576Y-56635648D01*
X156150780Y-56380347D01*
X156174825Y-56325543D01*
X156199610Y-56271130D01*
X156202532Y-56262390D01*
X156293420Y-55984136D01*
X156293422Y-55984127D01*
X156303387Y-55953678D01*
X156729423Y-54031475D01*
X156790201Y-53845432D01*
X156870074Y-53703052D01*
X156976078Y-53578902D01*
X157104179Y-53477702D01*
X157249500Y-53403311D01*
X157406494Y-53358566D01*
X157569200Y-53345166D01*
X157761655Y-53367065D01*
M02*
