G04 #@! TF.GenerationSoftware,KiCad,Pcbnew,(5.1.2)-1*
G04 #@! TF.CreationDate,2019-06-14T17:53:39+09:00*
G04 #@! TF.ProjectId,adelie,6164656c-6965-42e6-9b69-6361645f7063,rev?*
G04 #@! TF.SameCoordinates,Original*
G04 #@! TF.FileFunction,Profile,NP*
%FSLAX46Y46*%
G04 Gerber Fmt 4.6, Leading zero omitted, Abs format (unit mm)*
G04 Created by KiCad (PCBNEW (5.1.2)-1) date 2019-06-14 17:53:39*
%MOMM*%
%LPD*%
G04 APERTURE LIST*
%ADD10C,0.050000*%
G04 APERTURE END LIST*
D10*
X205831640Y-154350520D02*
X193707240Y-147350520D01*
X205831640Y-154350520D02*
X212831640Y-142226220D01*
X193707240Y-147350520D02*
X200707240Y-135226220D01*
X212831640Y-142226220D02*
X200707240Y-135226220D01*
X188350040Y-144832920D02*
X193138340Y-131677220D01*
X188350040Y-144832920D02*
X175194340Y-140044620D01*
X175194340Y-140044620D02*
X179982640Y-126888920D01*
X193138340Y-131677220D02*
X179982640Y-126888920D01*
X155533240Y-136026420D02*
X157964340Y-122239120D01*
X155533240Y-136026420D02*
X169320640Y-138457520D01*
X169320640Y-138457520D02*
X171751640Y-124670220D01*
X171751640Y-124670220D02*
X157964340Y-122239120D01*
X130897340Y-135470920D02*
X130897340Y-121470920D01*
X130897340Y-135470920D02*
X144897340Y-135470920D01*
X144897340Y-135470920D02*
X144897340Y-121470920D01*
X144897340Y-121470920D02*
X130897340Y-121470920D01*
X183164040Y-121351620D02*
X196687040Y-124975120D01*
X183164040Y-121351620D02*
X186787540Y-107828720D01*
X186787540Y-107828720D02*
X200310540Y-111452220D01*
X196687040Y-124975120D02*
X200310540Y-111452220D01*
X201617540Y-106574220D02*
X205241040Y-93051320D01*
X201617540Y-106574220D02*
X188094540Y-102950820D01*
X205241040Y-93051320D02*
X191718040Y-89427820D01*
X188094540Y-102950820D02*
X191718040Y-89427820D01*
X206548040Y-88173320D02*
X210171240Y-74651320D01*
X206548040Y-88173320D02*
X193025040Y-84549920D01*
X193025040Y-84549920D02*
X196648240Y-71027920D01*
X210171240Y-74651320D02*
X196648240Y-71027920D01*
X178286140Y-120044620D02*
X181909640Y-106521720D01*
X178286140Y-120044620D02*
X164763140Y-116421120D01*
X164763140Y-116421120D02*
X168386640Y-102898220D01*
X181909640Y-106521720D02*
X168386640Y-102898220D01*
X183216640Y-101643720D02*
X186840140Y-88120820D01*
X183216640Y-101643720D02*
X169693640Y-98020320D01*
X169693640Y-98020320D02*
X173317140Y-84497320D01*
X186840140Y-88120820D02*
X173317140Y-84497320D01*
X191770340Y-69720820D02*
X188147140Y-83242820D01*
X188147140Y-83242820D02*
X174624140Y-79619420D01*
X174624140Y-79619420D02*
X178247340Y-66097420D01*
X191770340Y-69720820D02*
X178247340Y-66097420D01*
X160722840Y-109298920D02*
X163752940Y-95630821D01*
X160722840Y-109298920D02*
X147054640Y-106268820D01*
X147054640Y-106268820D02*
X150084840Y-92600620D01*
X163752940Y-95630821D02*
X150084840Y-92600620D01*
X151177840Y-87670320D02*
X154208040Y-74002220D01*
X151177840Y-87670320D02*
X164846040Y-90700520D01*
X164846040Y-90700520D02*
X167876140Y-77032320D01*
X167876140Y-77032320D02*
X154208040Y-74002220D01*
X168969140Y-72102020D02*
X155301040Y-69071920D01*
X168969140Y-72102020D02*
X171999140Y-58434920D01*
X155301040Y-69071920D02*
X158330940Y-55404720D01*
X171999140Y-58434920D02*
X158330940Y-55404720D01*
X140679040Y-110285920D02*
X126798840Y-108458520D01*
X140679040Y-110285920D02*
X142506340Y-96405620D01*
X126798840Y-108458520D02*
X128626140Y-94578320D01*
X142506340Y-96405620D02*
X128626140Y-94578320D01*
X143165540Y-91398820D02*
X144992940Y-77518620D01*
X143165540Y-91398820D02*
X129285340Y-89571520D01*
X129285340Y-89571520D02*
X131112640Y-75691220D01*
X144992940Y-77518620D02*
X131112640Y-75691220D01*
X145652040Y-72511820D02*
X131771840Y-70684420D01*
X145652040Y-72511820D02*
X147479440Y-58631620D01*
X147479440Y-58631620D02*
X133599240Y-56804220D01*
X131771840Y-70684420D02*
X133599240Y-56804220D01*
X121084340Y-107183920D02*
X107084340Y-107183920D01*
X121084340Y-107183920D02*
X121084340Y-121183920D01*
X121084340Y-121183920D02*
X107084340Y-121183920D01*
X107084340Y-121183920D02*
X107084340Y-107183920D01*
X107084340Y-88132920D02*
X107084340Y-102132920D01*
X107084340Y-102132920D02*
X121084340Y-102132920D01*
X121084340Y-102132920D02*
X121084340Y-88132920D01*
X121084340Y-88132920D02*
X107084340Y-88132920D01*
X121084340Y-83082920D02*
X107084340Y-83082920D01*
X121084340Y-83082920D02*
X121084340Y-69082920D01*
X121084340Y-69082920D02*
X107084340Y-69082920D01*
X107084340Y-69082920D02*
X107084340Y-83082920D01*
X102034340Y-83082920D02*
X88034340Y-83082920D01*
X102034340Y-83082920D02*
X102034340Y-69082920D01*
X102034340Y-69082920D02*
X88034340Y-69082920D01*
X88034340Y-69082920D02*
X88034340Y-83082920D01*
X88034340Y-102132920D02*
X88034340Y-88132920D01*
X88034340Y-102132920D02*
X102034340Y-102132920D01*
X102034340Y-102132920D02*
X102034340Y-88132920D01*
X102034340Y-88132920D02*
X88034340Y-88132920D01*
X88034340Y-121183920D02*
X88034340Y-107183920D01*
X88034340Y-121183920D02*
X102034340Y-121183920D01*
X102034340Y-121183920D02*
X102034340Y-107183920D01*
X102034340Y-107183920D02*
X88034340Y-107183920D01*
X207516122Y-156487395D02*
X215539979Y-142586420D01*
X198776979Y-131176477D02*
X214991074Y-140537477D01*
X212859979Y-74308428D02*
X198078647Y-129488471D01*
X211799155Y-72471477D02*
X175125189Y-62645540D01*
X198776979Y-131176476D02*
G75*
G02X198078647Y-129488471I750667J1299006D01*
G01*
X214991074Y-140537477D02*
G75*
G02X215539979Y-142586420I-750094J-1298944D01*
G01*
X205466040Y-157035540D02*
X198617040Y-153080736D01*
X123615040Y-125200540D02*
X123615040Y-136500540D01*
X87007080Y-123700540D02*
X122115040Y-123700540D01*
X85507040Y-68050545D02*
X85507040Y-122200500D01*
X128458763Y-66550582D02*
X87007045Y-66550540D01*
X131235040Y-55457517D02*
X129946040Y-65245540D01*
X154005671Y-56941862D02*
X132918167Y-54165540D01*
X156092040Y-53857169D02*
X155666040Y-55779211D01*
X173549943Y-56190540D02*
X157881178Y-52717540D01*
X174049040Y-60872406D02*
X174690040Y-57979338D01*
X207516122Y-156487395D02*
G75*
G02X205466040Y-157035540I-1299083J750854D01*
G01*
X122115040Y-123700540D02*
G75*
G02X123615040Y-125200540I0J-1500000D01*
G01*
X125115080Y-138000580D02*
G75*
G02X123615040Y-136500540I0J1500040D01*
G01*
X87007080Y-123700540D02*
G75*
G02X85507040Y-122200500I0J1500040D01*
G01*
X85507040Y-68050545D02*
G75*
G02X87007045Y-66550540I1500005J0D01*
G01*
X129946040Y-65245540D02*
G75*
G02X128458763Y-66550582I-1487277J194958D01*
G01*
X131235040Y-55457517D02*
G75*
G02X132918167Y-54165540I1487128J-195022D01*
G01*
X155666041Y-55779212D02*
G75*
G02X154005671Y-56941862I-1464371J324349D01*
G01*
X156092041Y-53857169D02*
G75*
G02X157881178Y-52717540I1464138J-324370D01*
G01*
X175125189Y-62645540D02*
G75*
G02X174049040Y-60872406I388850J1449135D01*
G01*
X173549943Y-56190540D02*
G75*
G02X174690040Y-57979338I-324902J-1464799D01*
G01*
X211799155Y-72471477D02*
G75*
G02X212859979Y-74308428I-388175J-1448952D01*
G01*
X142353041Y-138000540D02*
X125118588Y-138000100D01*
X142353041Y-138000540D02*
G75*
G02X198617040Y-153080736I0J-112500195D01*
G01*
M02*
